<svg width="96" height="96" viewBox="0 0 96 96" fill="none" xmlns="http://www.w3.org/2000/svg">
  <g clip-path="url(#clip0_340_1393)">
    <path opacity="0.5"
      d="M90.4382 25.6C94.1758 17.43 90.1954 6.60246 82.6242 2.01827C67.584 -6.51673 62.4043 14.5444 50.3348 18.3103C39.0555 21.8297 27.463 16.1261 16.1935 15.2498C2.31903 14.1709 1.26997 32.5455 9.49953 40.0841C17.785 47.6741 31.069 40.935 39.6062 46.7936C46.8745 51.7813 44.6526 62.0837 43.9609 69.7418C41.4932 97.0646 71.6023 104.391 86.3569 85.4156C89.62 81.219 90.1671 74.8886 87.3238 70.3967C84.4707 65.889 78.798 63.9173 75.5406 59.6925C70.8036 53.5487 72.7174 44.1319 77.9697 38.4221C82.0341 34.0037 87.9409 31.0592 90.4382 25.6Z"
      fill="url(#paint0_linear_340_1393)" />
    <path
      d="M91.5591 57.2571L91.1809 56.8789C84.9765 55.3725 82.0322 48.2642 85.3541 42.8119C85.7164 42.2171 85.036 41.5367 84.4412 41.899C78.9889 45.2209 71.8806 42.2766 70.3742 36.0722C70.21 35.3955 69.2475 35.3955 69.0833 36.0722C68.6597 37.8167 67.7933 39.3036 66.6452 40.4657C66.0262 40.0724 65.308 39.8636 64.5746 39.8636C64.1608 39.8636 63.763 39.9296 63.3889 40.0496L63.4125 39.5601C63.7161 33.2696 58.933 27.9617 52.7569 27.5025C53.5172 26.3537 54.4945 25.3097 55.6933 24.4341L55.8315 24.1575C56.1726 23.4754 55.8276 22.9174 55.065 22.9174C47.5045 22.9174 41.3753 16.7882 41.3753 9.22765V8.95746C41.3753 8.11277 40.2364 7.8439 39.8586 8.59952L39.7378 8.84121C35.7992 16.7185 24.5578 16.7185 20.6192 8.84121C20.2114 8.0254 18.9818 8.31565 18.9818 9.22783V9.53702C18.9818 16.927 12.9911 22.9176 5.60121 22.9176C4.66859 22.9176 4.2469 23.6001 4.6639 24.4343C11.2193 29.2228 11.2193 39.0058 4.6639 43.7946C3.94896 44.317 4.41715 45.4474 5.29202 45.3113C13.3135 44.062 20.2311 50.9796 18.9818 59.001C18.8455 59.8759 19.9761 60.3443 20.4985 59.6291C25.287 53.0738 35.07 53.0738 39.8588 59.6291C40.3811 60.3441 41.5116 59.8759 41.3755 59.001C41.0299 56.7827 41.31 54.6491 42.0643 52.749C43.2095 54.8964 45.0249 56.6108 47.2343 57.6313V61.4573L30.7324 70.8173C30.2736 71.0774 29.8749 71.4315 29.5624 71.8564C29.25 72.2813 29.0308 72.7674 28.9193 73.2829L24.4755 93.6971C24.3484 94.2816 24.7935 94.834 25.3916 94.834H78.3848C78.9829 94.834 79.428 94.2816 79.3009 93.6971L74.8588 73.2825C74.8419 73.2049 74.818 73.1299 74.7962 73.054C77.6436 71.4036 81.3139 71.2444 84.4412 73.1498C85.036 73.512 85.7164 72.8316 85.3541 72.2368C82.0322 66.7845 84.9765 59.6762 91.1809 58.1698C91.891 58.17 92.061 57.7592 91.5591 57.2571Z"
      fill="#FA4B55" fill-opacity="0.0627451" />
    <path
      d="M39.8589 4.09953C40.3812 3.38459 41.5117 3.85278 41.3755 4.72765C40.1262 12.7491 47.0439 19.6667 55.0653 18.4174C55.9402 18.2811 56.4085 19.4117 55.6934 19.9341C49.138 24.7227 49.138 34.5057 55.6934 39.2944C56.4084 39.8168 55.9402 40.9472 55.0653 40.8111C47.0439 39.5618 40.1262 46.4794 41.3755 54.5008C41.5119 55.3757 40.3812 55.8441 39.8589 55.129C35.0703 48.5736 25.2873 48.5736 20.4985 55.129C19.9762 55.8439 18.8457 55.3757 18.9819 54.5008C20.2312 46.4794 13.3135 39.5618 5.29211 40.8111C4.41723 40.9474 3.94886 39.8168 4.66398 39.2944C11.2194 34.5058 11.2194 24.7228 4.66398 19.9341C3.94904 19.4117 4.41723 18.2813 5.29211 18.4174C13.3135 19.6667 20.2312 12.7491 18.9819 4.72765C18.8455 3.85278 19.9762 3.3844 20.4985 4.09953C25.2871 10.6549 35.0701 10.6549 39.8589 4.09953Z"
      fill="#FA4B55" />
    <path
      d="M22.3295 48.5378C21.7198 46.2867 20.6161 44.1997 19.0987 42.4287C17.0112 39.991 14.2724 38.2763 11.2578 37.4584C12.605 35.1175 13.3304 32.4349 13.3304 29.6145C13.3304 26.794 12.6052 24.1114 11.258 21.7703C14.2728 20.9526 17.0116 19.2379 19.0991 16.8002C20.6166 15.0292 21.7203 12.9421 22.3299 10.6909C24.6721 12.0398 27.3562 12.7662 30.1786 12.7662C33.0011 12.7662 35.6853 12.0398 38.0274 10.6909C38.6371 12.9421 39.7409 15.029 41.2584 16.8C43.3458 19.2377 46.0846 20.9524 49.0993 21.7703C47.7519 24.1114 47.0266 26.794 47.0266 29.6145C47.0266 32.4349 47.7519 35.1173 49.0993 37.4584C46.0841 38.2761 43.3456 39.9906 41.2582 42.4285C39.7406 44.1995 38.6369 46.2864 38.0274 48.5376C35.6851 47.1887 33.0011 46.4624 30.1786 46.4624C27.3562 46.4624 24.6717 47.1887 22.3295 48.5378Z"
      fill="#1D1E21" />
    <path
      d="M31.754 35.3639H28.6021C28.366 35.3639 28.1385 35.2748 27.9652 35.1144C27.792 34.954 27.6856 34.7341 27.6674 34.4986L26.3124 16.976C26.3024 16.8472 26.3192 16.7177 26.3616 16.5957C26.4041 16.4737 26.4713 16.3617 26.5591 16.2669C26.6469 16.1721 26.7533 16.0965 26.8717 16.0448C26.99 15.993 27.1178 15.9663 27.247 15.9663H33.109C33.2382 15.9663 33.366 15.993 33.4844 16.0448C33.6028 16.0965 33.7092 16.1721 33.797 16.2669C33.8847 16.3617 33.952 16.4737 33.9944 16.5957C34.0369 16.7177 34.0537 16.8472 34.0437 16.976L32.6887 34.4986C32.6705 34.7341 32.5641 34.954 32.3908 35.1144C32.2176 35.2748 31.9901 35.3639 31.754 35.3639Z"
      fill="#FA4B55" />
    <path
      d="M30.1778 43.13C31.6524 43.13 32.8478 41.9346 32.8478 40.46C32.8478 38.9854 31.6524 37.79 30.1778 37.79C28.7032 37.79 27.5078 38.9854 27.5078 40.46C27.5078 41.9346 28.7032 43.13 30.1778 43.13Z"
      fill="#FA4B55" />
    <path
      d="M69.0828 31.5725C69.247 30.8958 70.2094 30.8958 70.3737 31.5725C71.8801 37.7768 78.9884 40.7211 84.4407 37.3992C85.0354 37.037 85.7159 37.7174 85.3536 38.3121C82.0317 43.7645 84.976 50.8728 91.1804 52.3791C91.8571 52.5434 91.8571 53.5058 91.1804 53.6701C84.976 55.1765 82.0317 62.2848 85.3536 67.7371C85.7159 68.3318 85.0354 69.0123 84.4407 68.65C78.9884 65.3281 71.8801 68.2724 70.3737 74.4768C70.2094 75.1535 69.247 75.1535 69.0828 74.4768C67.5764 68.2724 60.4681 65.3281 55.0158 68.65C54.421 69.0123 53.7406 68.3318 54.1028 67.7371C57.4248 62.2848 54.4804 55.1765 48.2761 53.6701C47.5994 53.5058 47.5994 52.5434 48.2761 52.3791C54.4804 50.8728 57.4248 43.7645 54.1028 38.3121C53.7406 37.7174 54.421 37.037 55.0158 37.3992C60.4681 40.7211 67.5764 37.7768 69.0828 31.5725Z"
      fill="#1D1E21" />
    <path
      d="M80.3066 48.6429C80.9923 50.2982 81.9568 51.7751 83.1462 53.0242C81.9567 54.2735 80.9921 55.7505 80.3064 57.4057L80.3064 57.4058C79.6197 59.0639 79.2572 60.7933 79.216 62.5206C75.5728 62.6053 72.2234 64.0605 69.7286 66.4495C67.2338 64.0608 63.8845 62.6053 60.2412 62.5206C60.2 60.7933 59.8375 59.0639 59.1507 57.4059L59.1507 57.4059C58.4651 55.7506 57.5006 54.2736 56.311 53.0243C57.5006 51.775 58.4651 50.298 59.1507 48.6427L59.1507 48.6427C59.8375 46.9847 60.2 45.2552 60.2411 43.5278C63.8843 43.4433 67.2338 41.9881 69.7288 39.5991C72.2237 41.9876 75.5732 43.4431 79.2162 43.5278C79.2574 45.2552 79.6198 46.9849 80.3066 48.6429L80.3066 48.6429Z"
      stroke="#FA4B55" stroke-width="2" />
    <path
      d="M79.5475 90.3337H24.2275L28.9188 68.7825C29.0303 68.267 29.2495 67.7809 29.5619 67.356C29.8744 66.9311 30.2731 66.577 30.7319 66.3169L47.2338 56.9569V51.3281H56.5413V56.9569L73.0432 66.3169C73.9713 66.8437 74.6313 67.74 74.8582 68.7825L79.5475 90.3337Z"
      fill="#1D1E21" />
    <path
      d="M64.5736 43.13C66.7181 43.13 68.4567 41.3915 68.4567 39.2469C68.4567 37.1023 66.7181 35.3638 64.5736 35.3638C62.429 35.3638 60.6904 37.1023 60.6904 39.2469C60.6904 41.3915 62.429 43.13 64.5736 43.13Z"
      fill="#1D1E21" />
    <path
      d="M39.2015 43.13C41.3461 43.13 43.0846 41.3915 43.0846 39.2469C43.0846 37.1023 41.3461 35.3638 39.2015 35.3638C37.0569 35.3638 35.3184 37.1023 35.3184 39.2469C35.3184 41.3915 37.0569 43.13 39.2015 43.13Z"
      fill="#1D1E21" />
    <path
      d="M40.3633 35.0599L40.7734 43.5583C41.0595 49.4882 45.9506 54.1491 51.8874 54.1491C57.8242 54.1491 62.7154 49.4882 63.0015 43.5583L63.4115 35.0599C63.7292 28.4771 58.4777 22.9663 51.8874 22.9663C45.297 22.9663 40.0457 28.4773 40.3633 35.0599Z"
      fill="#1D1E21" />
    <path
      d="M91.4025 51.4669C87.5782 50.5383 84.9075 47.1389 84.9075 43.1999C84.9075 41.6594 85.3385 40.1378 86.1543 38.7994C86.4603 38.2971 86.4731 37.6951 86.1887 37.1886C85.9014 36.6773 85.3646 36.3597 84.7875 36.3597C84.4983 36.3597 84.2103 36.4418 83.9527 36.598C82.6143 37.4136 81.0928 37.8447 79.5525 37.8447C75.6133 37.8447 72.2135 35.1747 71.2852 31.3506C71.1069 30.6192 70.4812 30.1278 69.7286 30.1278C68.9758 30.1278 68.3501 30.6192 68.1716 31.3514C67.8602 32.6331 67.263 33.812 66.4353 34.8005C65.8463 34.5531 65.2138 34.4261 64.575 34.4268C64.5039 34.4268 64.4336 34.4318 64.3629 34.435C64.3505 31.2402 63.1421 28.2304 60.9193 25.8979C59.1504 24.0417 56.922 22.8074 54.4779 22.2963C55.0084 21.6995 55.6011 21.161 56.246 20.6901C56.712 20.3498 56.9793 19.8299 56.9793 19.2638C56.9797 19.0026 56.9235 18.7443 56.8145 18.5069C56.7054 18.2695 56.5462 18.0585 56.3478 17.8885C55.9533 17.5508 55.4462 17.4093 54.92 17.4921C54.3464 17.5818 53.7668 17.6268 53.1862 17.6269C51.0095 17.6269 48.8988 16.9829 47.0821 15.7647C46.9799 15.6955 46.865 15.6471 46.744 15.6224C46.6231 15.5977 46.4984 15.5971 46.3772 15.6207C46.256 15.6443 46.1407 15.6916 46.0378 15.7599C45.9349 15.8282 45.8466 15.9162 45.7778 16.0187C45.709 16.1213 45.6612 16.2364 45.637 16.3575C45.6129 16.4786 45.6129 16.6032 45.637 16.7243C45.6612 16.8454 45.709 16.9605 45.7778 17.0631C45.8466 17.1656 45.9349 17.2536 46.0378 17.3219C48.1644 18.748 50.6362 19.5019 53.186 19.5019C53.7397 19.5019 54.2968 19.4665 54.8475 19.3962C53.8702 20.1503 53.0057 21.0403 52.2802 22.039C52.1495 22.0351 52.019 22.0293 51.8876 22.0293C48.4412 22.0293 45.2338 23.4033 42.8563 25.8983C40.6337 28.2308 39.4252 31.2406 39.4127 34.4354C39.3425 34.4324 39.2726 34.4273 39.2021 34.4273C36.5439 34.4273 34.3815 36.5898 34.3815 39.248C34.3815 41.9061 36.5439 44.0686 39.2021 44.0686C39.4267 44.0686 39.6485 44.0521 39.8673 44.0219C39.9887 45.5123 40.3869 46.9669 41.0415 48.3113C40.5447 49.693 40.291 51.1502 40.2915 52.6184C40.2915 53.1743 40.3271 53.7336 40.398 54.2866C37.9335 51.0968 34.229 49.2751 30.1777 49.2751C26.1285 49.2751 22.4257 51.095 19.9593 54.284C20.4193 50.6661 19.3368 47.0309 16.962 44.2578C14.4963 41.3789 10.9284 39.7276 7.17334 39.7276C6.61759 39.7276 6.05809 39.7632 5.50515 39.8341C8.6964 37.3685 10.5187 33.664 10.5187 29.6136C10.5187 25.5651 8.69846 21.8626 5.50815 19.3954C9.12596 19.8554 12.762 18.7728 15.5355 16.3975C18.4147 13.9315 20.0662 10.3632 20.0662 6.60739C20.0662 6.0537 20.0306 5.49589 19.9601 4.94389C22.4253 8.13289 26.1288 9.95426 30.1781 9.95426C34.2281 9.95426 37.932 8.13232 40.3983 4.94107C40.031 7.79914 40.5984 10.6062 42.048 13.0812C42.1747 13.2934 42.3802 13.447 42.6197 13.5085C42.8592 13.57 43.1132 13.5344 43.3265 13.4094C43.5399 13.2845 43.6953 13.0804 43.7588 12.8415C43.8224 12.6025 43.789 12.3482 43.6659 12.1338C42.3766 9.93214 41.9051 7.42076 42.3026 4.86795C42.3174 4.7712 42.3245 4.67857 42.3245 4.58426C42.3245 3.8187 41.8284 3.14257 41.0898 2.90145C40.3455 2.65882 39.5651 2.91139 39.102 3.5457C36.9969 6.42682 33.7443 8.07926 30.1781 8.07926C26.6118 8.07926 23.3593 6.42682 21.2551 3.54664C20.9152 3.08014 20.3951 2.81239 19.8281 2.81239C19.5669 2.81201 19.3087 2.86825 19.0713 2.97724C18.8339 3.08622 18.6229 3.24536 18.453 3.4437C18.1153 3.8382 17.9743 4.3452 18.0564 4.87151C18.1461 5.44579 18.1912 6.02614 18.1914 6.60739C18.1914 9.81476 16.7788 12.8641 14.316 14.9733C11.8665 17.071 8.62965 17.9883 5.4339 17.4916C5.01505 17.4263 4.58666 17.5127 4.22581 17.7352C3.86497 17.9576 3.59537 18.3015 3.46552 18.7051C3.22327 19.4498 3.47696 20.2293 4.11015 20.6899C6.99146 22.795 8.6439 26.0476 8.6439 29.6138C8.6439 33.1801 6.99146 36.4325 4.10771 38.5394C3.64346 38.881 3.37721 39.4002 3.37721 39.9638C3.37683 40.2254 3.43316 40.484 3.5423 40.7217C3.65145 40.9594 3.81083 41.1706 4.00946 41.3408C4.40396 41.6787 4.9104 41.8195 5.43634 41.7378C6.01122 41.6479 6.59221 41.6027 7.17409 41.6026C10.3809 41.6026 13.4296 43.0148 15.5386 45.4775C17.6358 47.9264 18.5536 51.1624 18.0564 54.3578C18.0416 54.4534 18.0341 54.55 18.0341 54.6451C18.0341 55.4106 18.5304 56.0866 19.2691 56.327C19.4566 56.3879 19.6462 56.4173 19.8324 56.4173C20.3863 56.4173 20.9098 56.1558 21.2548 55.6816C23.3589 52.8018 26.6113 51.1499 30.1785 51.1499C33.7456 51.1499 36.998 52.8018 39.102 55.6816C39.4425 56.1475 39.9624 56.4149 40.5285 56.4149C40.7901 56.4153 41.0486 56.3589 41.2864 56.2498C41.5241 56.1406 41.7353 55.9811 41.9055 55.7824C42.2432 55.3879 42.3842 54.8815 42.3022 54.3558C42.2124 53.7809 42.1673 53.1999 42.1672 52.618C42.1672 51.8877 42.2411 51.1666 42.3838 50.4593C43.442 51.8119 44.7763 52.9234 46.2978 53.7198V56.4108L43.3905 58.0595C43.2834 58.1202 43.1893 58.2014 43.1136 58.2985C43.0379 58.3956 42.982 58.5067 42.9492 58.6253C42.9165 58.744 42.9074 58.868 42.9225 58.9902C42.9376 59.1123 42.9767 59.2304 43.0374 59.3375C43.0981 59.4445 43.1794 59.5386 43.2765 59.6143C43.3736 59.69 43.4846 59.7459 43.6033 59.7787C43.722 59.8114 43.8459 59.8205 43.9681 59.8054C44.0903 59.7903 44.2083 59.7512 44.3154 59.6905L47.6979 57.7724C47.8421 57.6906 47.9621 57.572 48.0455 57.4287C48.129 57.2854 48.173 57.1226 48.173 56.9568V54.502C49.3445 54.88 50.5925 55.087 51.8883 55.087C53.1842 55.087 54.432 54.88 55.6035 54.5022V56.957C55.6035 57.2944 55.785 57.6059 56.0784 57.7726L72.5812 67.1322C72.925 67.3279 73.2238 67.5938 73.4582 67.9125C73.6926 68.2312 73.8573 68.5956 73.9417 68.9821L78.6311 90.5333C78.684 90.7763 78.8313 90.9882 79.0404 91.1226C79.2496 91.257 79.5036 91.3029 79.7465 91.2501C79.8668 91.224 79.9808 91.1744 80.082 91.1041C80.1831 91.0339 80.2694 90.9445 80.336 90.8409C80.4025 90.7373 80.448 90.6216 80.4699 90.5005C80.4917 90.3793 80.4895 90.255 80.4633 90.1347L75.8745 69.0451C77.0248 68.4959 78.2827 68.2053 79.5528 68.2053C81.095 68.2053 82.6166 68.6358 83.9533 69.4505C84.2052 69.6057 84.495 69.6883 84.7908 69.6893C85.0622 69.689 85.3289 69.6184 85.565 69.4846C86.0756 69.1979 86.3928 68.6616 86.3928 68.0853C86.3928 67.799 86.312 67.5121 86.1545 67.2485C85.3389 65.9103 84.9078 64.3887 84.9078 62.8482C84.9078 58.9092 87.5786 55.5098 91.4043 54.5808C92.1347 54.4021 92.6252 53.777 92.6252 53.0251C92.625 52.2719 92.1343 51.646 91.4025 51.4669ZM67.5206 39.2474C67.5206 40.8715 66.1991 42.193 64.575 42.193C64.3851 42.1927 64.1956 42.1742 64.0093 42.1377L64.2902 36.3171C64.3847 36.308 64.4795 36.3018 64.575 36.3018C66.1993 36.3018 67.5206 37.6233 67.5206 39.2474ZM36.2568 39.2474C36.2568 37.6233 37.5782 36.3018 39.2025 36.3018C39.2973 36.3018 39.3918 36.3079 39.4858 36.317L39.7667 42.1377C39.5825 42.1735 39.3943 42.193 39.2025 42.193C37.5783 42.193 36.2568 40.8715 36.2568 39.2474ZM41.7103 43.5132L41.3002 35.0148C41.1592 32.0898 42.194 29.3114 44.2142 27.1913C46.2343 25.0713 48.9596 23.9039 51.888 23.9039C54.8163 23.9039 57.5417 25.0714 59.562 27.1913C61.5821 29.3114 62.6169 32.0898 62.4759 35.0148L62.0658 43.5132C61.8035 48.9516 57.3328 53.2118 51.8882 53.2118C46.4435 53.2118 41.9726 48.9516 41.7103 43.5132ZM83.0325 62.8478C83.0325 64.4206 83.3987 65.9753 84.0952 67.3911C82.6775 66.6944 81.1246 66.3297 79.5523 66.3297C78.0751 66.3297 76.6112 66.6485 75.2634 67.2578C74.846 66.5253 74.2392 65.9186 73.5067 65.5011L57.4779 56.4106V53.7196C61.0402 51.8579 63.558 48.2658 63.9078 44.0211C64.1272 44.0515 64.3496 44.068 64.5748 44.068C67.233 44.068 69.3954 41.9056 69.3954 39.2474C69.3954 37.9255 68.8603 36.7265 67.9957 35.8548C68.7527 34.9141 69.3391 33.8481 69.7282 32.7051C71.1502 36.8796 75.0643 39.7199 79.5525 39.7199C81.1239 39.7199 82.6775 39.3543 84.0958 38.6566C83.3979 40.0756 83.0325 41.6288 83.0325 43.1999C83.0325 47.6879 85.8744 51.6023 90.0489 53.024C85.8736 54.4463 83.0325 58.3602 83.0325 62.8478Z"
      fill="#FA4B55" />
    <path
      d="M66.4059 74.9641C66.1592 74.9967 65.9355 75.1256 65.7837 75.3228C65.6318 75.5199 65.5643 75.7692 65.5959 76.016L67.4634 90.3335H69.3534L67.4559 75.7723C67.4234 75.5261 67.2947 75.3028 67.0979 75.1513C66.9011 74.9998 66.6523 74.9325 66.4059 74.9641ZM37.3716 74.9641C37.1249 74.9319 36.8756 74.9988 36.6783 75.1504C36.481 75.3019 36.352 75.5256 36.3197 75.7723L34.4222 90.3335H36.3122L38.1797 76.016C38.1957 75.8939 38.1876 75.7698 38.1556 75.6508C38.1237 75.5318 38.0686 75.4203 37.9936 75.3226C37.9185 75.225 37.825 75.143 37.7182 75.0815C37.6115 75.02 37.4937 74.9801 37.3716 74.9641ZM38.6882 60.7263L30.2694 65.502C29.6964 65.8275 29.1984 66.27 28.8077 66.8007C28.417 67.3315 28.1425 67.9385 28.002 68.5824L23.3124 90.1335C23.2863 90.2538 23.2841 90.378 23.3059 90.4992C23.3278 90.6204 23.3733 90.7361 23.4398 90.8396C23.5064 90.9432 23.5927 91.0327 23.6938 91.1029C23.795 91.1731 23.909 91.2227 24.0293 91.2489C24.1496 91.2751 24.2738 91.2773 24.395 91.2554C24.5162 91.2336 24.6319 91.1881 24.7354 91.1215C24.839 91.0549 24.9285 90.9686 24.9987 90.8675C25.0689 90.7664 25.1185 90.6524 25.1447 90.5321L29.8343 68.981C29.9186 68.5947 30.0833 68.2304 30.3177 67.912C30.5521 67.5935 30.8509 67.328 31.1948 67.1326L39.6133 62.357C39.7204 62.2963 39.8145 62.2151 39.8902 62.118C39.9659 62.0209 40.0217 61.9099 40.0545 61.7912C40.0873 61.6726 40.0963 61.5486 40.0812 61.4264C40.066 61.3043 40.027 61.1863 39.9662 61.0792C39.9055 60.9721 39.8243 60.878 39.7272 60.8023C39.6301 60.7265 39.519 60.6707 39.4003 60.6379C39.2816 60.6052 39.1577 60.5961 39.0355 60.6113C38.9133 60.6264 38.7953 60.6655 38.6882 60.7263ZM66.5258 50.7856H74.1351C74.3837 50.7856 74.6222 50.6869 74.798 50.5111C74.9738 50.3352 75.0726 50.0968 75.0726 49.8481C75.0726 49.5995 74.9738 49.361 74.798 49.1852C74.6222 49.0094 74.3837 48.9106 74.1351 48.9106H66.5258C66.0079 48.9106 65.5883 49.3303 65.5883 49.8481C65.5883 50.366 66.0079 50.7856 66.5258 50.7856ZM77.5101 52.7323H66.5258C66.0079 52.7323 65.5883 53.1519 65.5883 53.6698C65.5883 54.1876 66.0079 54.6073 66.5258 54.6073H77.5101C77.7587 54.6073 77.9972 54.5085 78.173 54.3327C78.3488 54.1569 78.4476 53.9184 78.4476 53.6698C78.4476 53.4211 78.3488 53.1827 78.173 53.0069C77.9972 52.831 77.7587 52.7323 77.5101 52.7323ZM77.5101 56.5539H66.5258C66.0079 56.5539 65.5883 56.9735 65.5883 57.4914C65.5883 58.0093 66.0079 58.4289 66.5258 58.4289H77.5101C77.7587 58.4289 77.9972 58.3301 78.173 58.1543C78.3488 57.9785 78.4476 57.74 78.4476 57.4914C78.4476 57.2428 78.3488 57.0043 78.173 56.8285C77.9972 56.6527 77.7587 56.5539 77.5101 56.5539Z"
      fill="#FA4B55" />
    <path
      d="M51.8873 11.5087C51.7642 11.5088 51.6422 11.4847 51.5284 11.4375C51.4146 11.3904 51.3113 11.3212 51.2243 11.234L49.2556 9.26525C49.1685 9.17822 49.0994 9.07489 49.0523 8.96116C49.0052 8.84744 48.9809 8.72554 48.9809 8.60243C48.9809 8.47933 49.0052 8.35743 49.0523 8.2437C49.0994 8.12998 49.1685 8.02665 49.2556 7.93962L51.2243 5.97087C51.4001 5.79506 51.6386 5.69629 51.8872 5.69629C52.1359 5.69629 52.3743 5.79506 52.5501 5.97087L54.5189 7.93962C54.6059 8.02665 54.675 8.12998 54.7221 8.2437C54.7693 8.35743 54.7935 8.47933 54.7935 8.60243C54.7935 8.72554 54.7693 8.84744 54.7221 8.96116C54.675 9.07489 54.6059 9.17822 54.5189 9.26525L52.5501 11.234C52.4632 11.3212 52.3599 11.3904 52.2462 11.4375C52.1324 11.4847 52.0105 11.5089 51.8873 11.5087ZM51.2444 8.60243L51.8873 9.24537L52.5303 8.60243L51.8873 7.9595L51.2444 8.60243ZM17.1661 83.5826C17.0429 83.5827 16.9209 83.5585 16.8072 83.5114C16.6934 83.4643 16.59 83.3951 16.5031 83.3079L14.5343 81.3391C14.4473 81.2521 14.3782 81.1488 14.3311 81.035C14.2839 80.9213 14.2597 80.7994 14.2597 80.6763C14.2597 80.5532 14.2839 80.4313 14.3311 80.3176C14.3782 80.2038 14.4473 80.1005 14.5343 80.0135L16.5031 78.0448C16.6789 77.8689 16.9173 77.7702 17.166 77.7702C17.4146 77.7702 17.6531 77.8689 17.8289 78.0448L19.7976 80.0135C19.8847 80.1005 19.9538 80.2038 20.0009 80.3176C20.048 80.4313 20.0723 80.5532 20.0723 80.6763C20.0723 80.7994 20.048 80.9213 20.0009 81.035C19.9538 81.1488 19.8847 81.2521 19.7976 81.3391L17.8289 83.3079C17.742 83.3951 17.6387 83.4643 17.5249 83.5114C17.4112 83.5586 17.2892 83.5827 17.1661 83.5826ZM16.5231 80.6763L17.1661 81.3192L17.809 80.6763L17.1661 80.0334L16.5231 80.6763ZM14.0824 64.7343C13.9593 64.7345 13.8373 64.7103 13.7235 64.6631C13.6097 64.616 13.5064 64.5468 13.4194 64.4596L11.4507 62.4909C11.3636 62.4038 11.2946 62.3005 11.2474 62.1868C11.2003 62.0731 11.1761 61.9512 11.1761 61.8281C11.1761 61.705 11.2003 61.5831 11.2474 61.4693C11.2946 61.3556 11.3636 61.2523 11.4507 61.1652L13.4194 59.1965C13.5953 59.0207 13.8337 58.9219 14.0824 58.9219C14.331 58.9219 14.5694 59.0207 14.7453 59.1965L16.714 61.1652C16.8011 61.2523 16.8701 61.3556 16.9173 61.4693C16.9644 61.5831 16.9887 61.705 16.9887 61.8281C16.9887 61.9512 16.9644 62.0731 16.9173 62.1868C16.8701 62.3005 16.8011 62.4038 16.714 62.4909L14.7453 64.4596C14.6583 64.5469 14.555 64.616 14.4413 64.6632C14.3275 64.7103 14.2056 64.7345 14.0824 64.7343ZM13.4395 61.8281L14.0824 62.471L14.7254 61.8281L14.0824 61.1851L13.4395 61.8281ZM8.41751 54.8994C8.23202 54.8995 8.05066 54.8447 7.89638 54.7417C7.7421 54.6387 7.62185 54.4923 7.55085 54.3209C7.47986 54.1496 7.46131 53.961 7.49757 53.7791C7.53382 53.5972 7.62325 53.4301 7.75451 53.2991L9.62951 51.4241C9.71615 51.3352 9.81957 51.2644 9.93377 51.2158C10.048 51.1672 10.1707 51.1418 10.2948 51.141C10.4189 51.1402 10.542 51.164 10.6568 51.2112C10.7716 51.2583 10.8759 51.3278 10.9637 51.4155C11.0515 51.5033 11.1209 51.6076 11.1681 51.7224C11.2152 51.8372 11.2391 51.9602 11.2383 52.0843C11.2375 52.2085 11.2121 52.3312 11.1635 52.4454C11.115 52.5596 11.0442 52.663 10.9553 52.7497L9.08032 54.6247C8.99341 54.7119 8.8901 54.7811 8.77635 54.8282C8.6626 54.8754 8.54064 54.8995 8.41751 54.8994ZM77.0073 32.9397C76.8218 32.9399 76.6404 32.885 76.4861 32.7821C76.3318 32.6791 76.2116 32.5327 76.1406 32.3613C76.0696 32.1899 76.0511 32.0014 76.0873 31.8195C76.1236 31.6375 76.213 31.4705 76.3443 31.3394L78.2193 29.4644C78.3059 29.3756 78.4093 29.3048 78.5235 29.2562C78.6377 29.2076 78.7604 29.1822 78.8846 29.1814C79.0087 29.1806 79.1317 29.2044 79.2465 29.2515C79.3613 29.2987 79.4657 29.3681 79.5534 29.4559C79.6412 29.5436 79.7107 29.6479 79.7578 29.7628C79.8049 29.8776 79.8288 30.0006 79.828 30.1247C79.8273 30.2488 79.8019 30.3716 79.7533 30.4858C79.7047 30.6 79.6339 30.7034 79.5451 30.7901L77.6701 32.6651C77.5831 32.7522 77.4798 32.8214 77.3661 32.8685C77.2523 32.9157 77.1304 32.9399 77.0073 32.9397Z"
      fill="#FA4B55" />
  </g>
  <defs>
    <linearGradient id="paint0_linear_340_1393" x1="4.30091" y1="48" x2="91.861" y2="48"
      gradientUnits="userSpaceOnUse">
      <stop stop-color="#FA4B55" stop-opacity="0" />
      <stop offset="1" stop-color="#FA4B55" />
    </linearGradient>
    <clipPath id="clip0_340_1393">
      <rect width="96" height="96" fill="white" />
    </clipPath>
  </defs>
</svg>