<svg width="96" height="96" viewBox="0 0 96 96" fill="none" xmlns="http://www.w3.org/2000/svg">
  <path opacity="0.5"
    d="M94.4293 40.0252C89.5571 16.7853 41.1045 35.8979 50.4916 18.1179C54.2354 11.0268 53.3163 2.71156 44.9887 0.603877C11.9489 -7.75844 -22.6515 73.6715 24.1753 63.0738C34.1085 60.8257 39.9858 51.8784 42.9029 57.5141C48.7036 68.7206 33.0341 81.5966 39.2124 91.7461C51.2152 111.465 98.0278 57.1893 94.4293 40.0252Z"
    fill="url(#paint0_linear_340_4419)" />
  <path
    d="M89.3819 23.623C89.3819 16.892 83.9255 11.4355 77.1944 11.4355C70.4634 11.4355 65.0069 16.892 65.0069 23.623C65.0069 24.167 65.0463 24.7015 65.1153 25.2267C59.8473 23.705 54.1773 20.9797 49.3046 16.1774C48.5834 15.4666 47.4163 15.4666 46.6951 16.1774C35.7157 26.998 20.6876 27.2787 15.3342 26.9892C14.2479 26.9305 13.3402 27.8034 13.3556 28.8912C13.5881 45.4075 16.6004 57.4974 20.7598 66.3412C15.3569 67.5907 11.3281 72.4291 11.3281 78.212C11.3281 84.9429 16.7846 90.3995 23.5156 90.3995C28.2365 90.3995 32.3276 87.7134 34.3516 83.7879C40.6499 88.6128 46.268 89.8747 47.6667 90.1269C47.887 90.1668 48.1127 90.1668 48.3329 90.1269C51.7117 89.5175 79.7114 83.0165 82.4433 34.6246C86.5468 32.6632 89.3819 28.4744 89.3819 23.623Z"
    fill="#4B73FF" fill-opacity="0.0627451" />
  <path
    d="M46.6947 11.6776C35.7153 22.4983 20.6872 22.779 15.3339 22.4895C14.2475 22.4308 13.3398 23.3036 13.3552 24.3915C14.1102 78.0127 44.1584 84.9943 47.6664 85.6269C47.8866 85.6668 48.1123 85.6668 48.3326 85.6269C51.8405 84.9943 81.8887 78.0127 82.6437 24.3915C82.6591 23.3036 81.7514 22.4308 80.6651 22.4895C75.3117 22.7788 60.2836 22.4983 49.3044 11.6776C48.5831 10.9668 47.416 10.9668 46.6947 11.6776Z"
    fill="#1D1E21" />
  <path
    d="M47.9999 79.9492C47.0757 79.7272 45.4255 79.2417 43.3495 78.2536C39.791 76.5597 36.5009 74.126 33.5705 71.0199C29.5032 66.7089 26.2259 61.1754 23.8295 54.5729C21.1163 47.098 19.526 38.2272 19.0898 28.1592C26.2728 27.9753 38.0765 26.2516 48.0001 18.0684C57.9239 26.2516 69.7274 27.9753 76.9103 28.1592C76.4742 38.2274 74.8837 47.098 72.1707 54.5729C69.7743 61.1754 66.497 66.7089 62.4297 71.0199C59.4993 74.126 56.2092 76.5597 52.6507 78.2536C50.5743 79.2415 48.9239 79.727 47.9999 79.9492Z"
    fill="#4B73FF" />
  <path
    d="M47.9998 68.5015C59.1014 68.5015 68.1011 59.5018 68.1011 48.4001C68.1011 37.2985 59.1014 28.2988 47.9998 28.2988C36.8981 28.2988 27.8984 37.2985 27.8984 48.4001C27.8984 59.5018 36.8981 68.5015 47.9998 68.5015Z"
    fill="#1D1E21" />
  <path
    d="M47.9996 61.3195C55.1348 61.3195 60.9191 55.5352 60.9191 48.4C60.9191 41.2647 55.1348 35.4805 47.9996 35.4805C40.8643 35.4805 35.0801 41.2647 35.0801 48.4C35.0801 55.5352 40.8643 61.3195 47.9996 61.3195Z"
    fill="#4B73FF" />
  <path
    d="M54.9295 57.0328C54.7058 56.8945 54.4378 56.8462 54.1798 56.898C53.9218 56.9497 53.6931 57.0975 53.54 57.3115C52.4557 58.8284 50.0843 61.8141 49.4341 59.9112C48.457 57.0522 56.366 43.0737 49.4973 40.8267C45.064 39.3764 41.9056 43.5835 40.7292 45.507C40.5856 45.7415 40.5407 46.0234 40.6045 46.2909C40.6684 46.5583 40.8357 46.7896 41.0697 46.9339C41.2935 47.0723 41.5615 47.1205 41.8194 47.0688C42.0774 47.0171 42.3061 46.8694 42.4593 46.6555C43.5436 45.1384 45.9149 42.1529 46.5652 44.0558C47.5422 46.9148 39.6333 60.8933 46.502 63.1403C50.9352 64.5906 54.0937 60.3835 55.27 58.4599C55.4137 58.2254 55.4586 57.9435 55.3947 57.676C55.3309 57.4085 55.1636 57.1772 54.9295 57.0328Z"
    fill="#1D1E21" />
  <path
    d="M47.9998 38.9215C49.5352 38.9215 50.7799 37.6768 50.7799 36.1414C50.7799 34.606 49.5352 33.3613 47.9998 33.3613C46.4644 33.3613 45.2197 34.606 45.2197 36.1414C45.2197 37.6768 46.4644 38.9215 47.9998 38.9215Z"
    fill="#1D1E21" />
  <path
    d="M23.5156 85.8994C30.2466 85.8994 35.7031 80.4429 35.7031 73.7119C35.7031 66.9809 30.2466 61.5244 23.5156 61.5244C16.7847 61.5244 11.3281 66.9809 11.3281 73.7119C11.3281 80.4429 16.7847 85.8994 23.5156 85.8994Z"
    fill="#4B73FF" />
  <path
    d="M20.9029 71.9239C20.4053 72.3023 19.6847 72.096 19.4591 71.5131C19.227 70.9124 19.1306 70.2678 19.1768 69.6255C19.3228 67.567 20.9769 65.8442 23.0243 65.6183C24.261 65.482 25.4974 65.8761 26.4173 66.7002C26.8727 67.1085 27.2371 67.6081 27.4867 68.1666C27.7363 68.725 27.8655 69.3298 27.8659 69.9415C27.8649 70.9388 27.5221 71.9056 26.8948 72.6808L23.8003 76.3564C23.7915 76.3708 23.7836 76.3932 23.8005 76.4275C23.8176 76.4627 23.8358 76.4627 23.853 76.4629L23.8701 76.4631C24.3088 76.4659 24.7041 76.7627 24.7967 77.1917C24.8279 77.3291 24.8277 77.4717 24.7963 77.6091C24.7648 77.7464 24.7029 77.8749 24.615 77.985C24.5271 78.0951 24.4156 78.184 24.2887 78.2452C24.1618 78.3064 24.0228 78.3382 23.8819 78.3383H23.862C23.2734 78.3358 22.7057 78.0786 22.3436 77.6145C21.7729 76.8829 21.7813 75.9098 22.3181 75.2078C22.3269 75.196 22.3363 75.1845 22.3457 75.1733L25.4531 71.4823C25.8334 71.005 26.0199 70.4215 25.9873 69.8037C25.9541 69.1997 25.7005 68.629 25.2744 68.1996C24.7305 67.653 23.9978 67.3973 23.2301 67.4822C22.0686 67.6105 21.1301 68.5892 21.0471 69.7587C21.0212 70.1185 21.0736 70.4796 21.2006 70.8173C21.351 71.2161 21.2424 71.6657 20.9029 71.9239Z"
    fill="#1D1E21" />
  <path
    d="M23.1553 81.8535C23.7766 81.8535 24.2803 81.3498 24.2803 80.7285C24.2803 80.1072 23.7766 79.6035 23.1553 79.6035C22.534 79.6035 22.0303 80.1072 22.0303 80.7285C22.0303 81.3498 22.534 81.8535 23.1553 81.8535Z"
    fill="#1D1E21" />
  <path
    d="M77.1943 31.3105C83.9253 31.3105 89.3818 25.854 89.3818 19.123C89.3818 12.3921 83.9253 6.93555 77.1943 6.93555C70.4634 6.93555 65.0068 12.3921 65.0068 19.123C65.0068 25.854 70.4634 31.3105 77.1943 31.3105Z"
    fill="#4B73FF" />
  <path
    d="M90.3193 19.123C90.3193 11.8859 84.4314 5.99805 77.1943 5.99805C69.9572 5.99805 64.0693 11.8859 64.0693 19.123C64.0693 26.3602 69.9572 32.248 77.1943 32.248C78.6294 32.2482 80.0548 32.0118 81.4131 31.5485C80.0949 50.8902 74.5674 65.5495 64.9693 75.1308C57.36 82.7268 49.6372 84.4392 48.1693 84.7047C48.058 84.7245 47.9441 84.7247 47.8327 84.7053C46.3877 84.4437 41.3406 83.2722 35.5247 78.9985C36.2615 77.3335 36.6416 75.5327 36.6405 73.712C36.6405 66.4749 30.7526 60.587 23.5155 60.587C22.7707 60.587 22.0299 60.6513 21.3017 60.7765C16.8536 51.0052 14.4952 38.7657 14.2927 24.379C14.2902 24.2498 14.3146 24.1214 14.3643 24.002C14.4141 23.8826 14.4881 23.7749 14.5817 23.6857C14.6742 23.5962 14.7842 23.5269 14.9048 23.4821C15.0254 23.4372 15.1539 23.4178 15.2824 23.425C21.2181 23.7472 36.2237 23.3129 47.3522 12.3459C47.709 11.9943 48.2901 11.9945 48.6461 12.3453C51.7777 15.433 55.4919 17.93 59.6852 19.7665C59.9129 19.8662 60.171 19.8713 60.4025 19.7808C60.6341 19.6903 60.8202 19.5116 60.9201 19.2839C61.0198 19.0562 61.0249 18.7981 60.9344 18.5666C60.8439 18.335 60.6652 18.1488 60.4374 18.049C56.4549 16.3047 52.9307 13.9366 49.9622 11.0097C48.8801 9.94417 47.1189 9.94417 46.0363 11.0101C35.4401 21.4527 21.0697 21.8609 15.3834 21.553C14.9984 21.533 14.6134 21.5919 14.2521 21.7262C13.8907 21.8606 13.5607 22.0675 13.2823 22.3342C13.0045 22.6021 12.7845 22.9242 12.6358 23.2804C12.4872 23.6366 12.413 24.0195 12.4179 24.4055C12.6217 38.8985 14.9874 51.2823 19.4509 61.2376C17.9353 61.7317 16.5101 62.497 15.261 63.5095C12.9707 65.3658 11.3556 67.964 10.7126 70.8258C10.6621 71.0669 10.7086 71.3182 10.8419 71.5254C10.9752 71.7325 11.1846 71.8789 11.425 71.9329C11.6653 71.9868 11.9173 71.944 12.1263 71.8138C12.3354 71.6835 12.4848 71.4762 12.5422 71.2366C13.6841 66.1525 18.2991 62.4623 23.5155 62.4623C29.7187 62.4623 34.7655 67.5091 34.7655 73.7123C34.7655 79.9156 29.7187 84.9623 23.5155 84.9623C18.2677 84.9623 13.6466 81.2459 12.5276 76.1253C12.5014 76.005 12.4517 75.891 12.3814 75.7899C12.3111 75.6888 12.2216 75.6026 12.118 75.5361C12.0143 75.4697 11.8986 75.4243 11.7774 75.4026C11.6562 75.3809 11.5319 75.3832 11.4116 75.4096C11.1687 75.4627 10.9569 75.6101 10.8227 75.8194C10.6884 76.0287 10.6429 76.2827 10.6959 76.5256C11.325 79.4047 12.9362 82.0209 15.2323 83.8925C17.5624 85.7915 20.5041 86.8375 23.5155 86.8375C28.1981 86.8375 32.3132 84.3708 34.6367 80.6703C40.6864 85.0501 45.9711 86.2743 47.5016 86.5512C47.8319 86.61 48.17 86.6098 48.5002 86.5507C50.0672 86.2672 58.2898 84.448 66.2936 76.4581C70.8161 71.9437 74.5204 66.2328 77.3036 59.4845C80.6482 51.3742 82.6779 41.695 83.3445 30.7137C87.4899 28.5044 90.3193 24.1389 90.3193 19.123ZM77.1943 30.373C70.9911 30.373 65.9443 25.3263 65.9443 19.123C65.9443 12.9198 70.9911 7.87305 77.1943 7.87305C83.3976 7.87305 88.4443 12.9198 88.4443 19.123C88.4443 25.3263 83.3976 30.373 77.1943 30.373Z"
    fill="#4B73FF" />
  <path
    d="M74.5816 17.335C74.084 17.7134 73.3634 17.5072 73.1378 16.9242C72.9058 16.3235 72.8093 15.679 72.8555 15.0367C73.0015 12.9781 74.6557 11.2554 76.703 11.0294C77.9397 10.8931 79.1761 11.2872 80.096 12.1113C80.5514 12.5196 80.9158 13.0192 81.1654 13.5777C81.415 14.1362 81.5442 14.7409 81.5446 15.3526C81.5436 16.3499 81.2009 17.3167 80.5735 18.092L77.479 21.7675C77.4702 21.782 77.4623 21.8043 77.4792 21.8386C77.4963 21.8739 77.5145 21.8739 77.5317 21.874L77.5488 21.8742C77.9875 21.877 78.3828 22.1739 78.4754 22.6029C78.5066 22.7402 78.5064 22.8829 78.475 23.0202C78.4435 23.1575 78.3816 23.286 78.2937 23.3961C78.2059 23.5062 78.0943 23.5952 77.9674 23.6563C77.8405 23.7175 77.7015 23.7493 77.5606 23.7494H77.5407C76.9522 23.747 76.3844 23.4897 76.0223 23.0257C75.4516 22.294 75.46 21.3209 75.9968 20.6189C76.0057 20.6071 76.015 20.5957 76.0244 20.5844L79.1318 16.8933C79.5121 16.4159 79.6985 15.8324 79.666 15.2146C79.6328 14.6107 79.3792 14.0399 78.9532 13.6105C78.4092 13.064 77.6765 12.8082 76.9088 12.8932C75.7473 13.0214 74.8088 14.0002 74.7258 15.1696C74.6999 15.5294 74.7523 15.8906 74.8793 16.2282C75.0297 16.6274 74.9213 17.0769 74.5816 17.335Z"
    fill="#1D1E21" />
  <path
    d="M76.8345 27.2637C77.4558 27.2637 77.9595 26.76 77.9595 26.1387C77.9595 25.5174 77.4558 25.0137 76.8345 25.0137C76.2132 25.0137 75.7095 25.5174 75.7095 26.1387C75.7095 26.76 76.2132 27.2637 76.8345 27.2637Z"
    fill="#1D1E21" />
  <path
    d="M60.0191 13.9098C59.7704 13.9098 59.532 13.811 59.3561 13.6352C59.1803 13.4594 59.0816 13.2209 59.0816 12.9723C59.0816 12.4036 58.6188 11.941 58.0503 11.941C57.8017 11.941 57.5632 11.8423 57.3874 11.6665C57.2116 11.4906 57.1128 11.2522 57.1128 11.0035C57.1128 10.7549 57.2116 10.5165 57.3874 10.3406C57.5632 10.1648 57.8017 10.066 58.0503 10.066C58.6188 10.066 59.0816 9.60349 59.0816 9.0348C59.0816 8.91168 59.1058 8.78977 59.1529 8.67603C59.2 8.56229 59.2691 8.45894 59.3561 8.37188C59.4432 8.28483 59.5466 8.21577 59.6603 8.16866C59.774 8.12155 59.896 8.0973 60.0191 8.0973C60.1422 8.0973 60.2641 8.12155 60.3778 8.16866C60.4916 8.21577 60.5949 8.28483 60.682 8.37188C60.769 8.45894 60.8381 8.56229 60.8852 8.67603C60.9323 8.78977 60.9566 8.91168 60.9566 9.0348C60.9566 9.60349 61.4193 10.066 61.9878 10.066C62.2365 10.066 62.4749 10.1648 62.6507 10.3406C62.8265 10.5165 62.9253 10.7549 62.9253 11.0035C62.9253 11.2522 62.8265 11.4906 62.6507 11.6665C62.4749 11.8423 62.2365 11.941 61.9878 11.941C61.7144 11.9413 61.4523 12.0501 61.2589 12.2434C61.0656 12.4368 60.9569 12.6989 60.9566 12.9723C60.9566 13.2209 60.8578 13.4594 60.682 13.6352C60.5062 13.811 60.2677 13.9098 60.0191 13.9098ZM11.8931 58.4491C11.6444 58.4491 11.406 58.3503 11.2302 58.1745C11.0543 57.9987 10.9556 57.7603 10.9556 57.5116C10.9556 56.9429 10.4928 56.4804 9.92432 56.4804C9.67568 56.4804 9.43722 56.3816 9.2614 56.2058C9.08559 56.03 8.98682 55.7915 8.98682 55.5429C8.98682 55.2942 9.08559 55.0558 9.2614 54.88C9.43722 54.7041 9.67568 54.6054 9.92432 54.6054C10.4928 54.6054 10.9556 54.1428 10.9556 53.5741C10.9556 53.3255 11.0543 53.087 11.2302 52.9112C11.406 52.7354 11.6444 52.6366 11.8931 52.6366C12.1417 52.6366 12.3802 52.7354 12.556 52.9112C12.7318 53.087 12.8306 53.3255 12.8306 53.5741C12.8306 54.1428 13.2933 54.6054 13.8618 54.6054C14.1105 54.6054 14.3489 54.7041 14.5247 54.88C14.7005 55.0558 14.7993 55.2942 14.7993 55.5429C14.7993 55.7915 14.7005 56.03 14.5247 56.2058C14.3489 56.3816 14.1105 56.4804 13.8618 56.4804C13.5884 56.4807 13.3263 56.5894 13.1329 56.7827C12.9396 56.9761 12.8309 57.2382 12.8306 57.5116C12.8306 57.7603 12.7318 57.9987 12.556 58.1745C12.3802 58.3503 12.1417 58.4491 11.8931 58.4491ZM52.3237 9.0918C52.2006 9.0918 52.0787 9.06755 51.9649 9.02043C51.8512 8.97332 51.7478 8.90426 51.6608 8.81721C51.5737 8.73015 51.5047 8.62681 51.4576 8.51306C51.4104 8.39932 51.3862 8.27741 51.3862 8.1543C51.3862 7.58561 50.9234 7.12305 50.3549 7.12305C50.1063 7.12305 49.8678 7.02427 49.692 6.84846C49.5162 6.67264 49.4174 6.43419 49.4174 6.18555C49.4174 5.93691 49.5162 5.69845 49.692 5.52263C49.8678 5.34682 50.1063 5.24805 50.3549 5.24805C50.9234 5.24805 51.3862 4.78548 51.3862 4.2168C51.3862 3.96816 51.485 3.7297 51.6608 3.55388C51.8366 3.37807 52.0751 3.2793 52.3237 3.2793C52.5723 3.2793 52.8108 3.37807 52.9866 3.55388C53.1624 3.7297 53.2612 3.96816 53.2612 4.2168C53.2612 4.78548 53.7239 5.24805 54.2924 5.24805C54.5411 5.24805 54.7795 5.34682 54.9554 5.52263C55.1312 5.69845 55.2299 5.93691 55.2299 6.18555C55.2299 6.43419 55.1312 6.67264 54.9554 6.84846C54.7795 7.02427 54.5411 7.12305 54.2924 7.12305C54.019 7.12334 53.7569 7.23209 53.5636 7.42542C53.3702 7.61875 53.2615 7.88088 53.2612 8.1543C53.2612 8.27741 53.2369 8.39932 53.1898 8.51306C53.1427 8.62681 53.0737 8.73015 52.9866 8.81721C52.8995 8.90426 52.7962 8.97332 52.6825 9.02043C52.5687 9.06755 52.4468 9.0918 52.3237 9.0918ZM71.7793 85.5629C71.6561 85.5631 71.5342 85.5389 71.4204 85.4918C71.3067 85.4447 71.2034 85.3756 71.1164 85.2884L69.1477 83.3197C68.9719 83.1439 68.8731 82.9054 68.8731 82.6568C68.8731 82.4081 68.9719 82.1697 69.1477 81.9939L71.1164 80.0251C71.2922 79.8494 71.5307 79.7506 71.7793 79.7506C72.0278 79.7506 72.2663 79.8494 72.4421 80.0251L74.4108 81.9939C74.5866 82.1697 74.6854 82.4081 74.6854 82.6568C74.6854 82.9054 74.5866 83.1439 74.4108 83.3197L72.4421 85.2884C72.3551 85.3756 72.2518 85.4447 72.1381 85.4918C72.0243 85.5389 71.9024 85.5631 71.7793 85.5629ZM71.1363 82.6567L71.7793 83.2996L72.4222 82.6567L71.7793 82.0137L71.1363 82.6567ZM75.3341 78.5255C75.2109 78.5257 75.089 78.5015 74.9753 78.4544C74.8615 78.4073 74.7582 78.3382 74.6712 78.251L72.7025 76.2822C72.5267 76.1064 72.4279 75.868 72.4279 75.6193C72.4279 75.3707 72.5267 75.1322 72.7025 74.9564L74.6712 72.9877C74.8471 72.8119 75.0855 72.7132 75.3341 72.7132C75.5827 72.7132 75.8211 72.8119 75.9969 72.9877L77.9656 74.9564C78.1414 75.1322 78.2402 75.3707 78.2402 75.6193C78.2402 75.868 78.1414 76.1064 77.9656 76.2822L75.9969 78.251C75.9099 78.3381 75.8066 78.4072 75.6928 78.4543C75.5791 78.5014 75.4572 78.5256 75.3341 78.5255ZM74.6911 75.6192L75.3341 76.2622L75.977 75.6192L75.3341 74.9763L74.6911 75.6192Z"
    fill="#4B73FF" />
  <defs>
    <linearGradient id="paint0_linear_340_4419" x1="1.37358" y1="47.9999" x2="94.626" y2="47.9999"
      gradientUnits="userSpaceOnUse">
      <stop stop-color="#4B73FF" stop-opacity="0" />
      <stop offset="1" stop-color="#4B73FF" />
    </linearGradient>
  </defs>
</svg>