<svg width="20" height="20" viewBox="0 0 20 20" fill="none" xmlns="http://www.w3.org/2000/svg">
  <g clip-path="url(#clip0_320_19710)">
    <path
      d="M13.849 0H13.9912C14.1054 1.41044 13.567 2.46432 12.9128 3.22751C12.2708 3.98542 11.3917 4.7205 9.9698 4.60897C9.87495 3.21872 10.4142 2.24301 11.0676 1.48158C11.6736 0.771967 12.7845 0.140517 13.849 0ZM18.1532 14.6805V14.7201C17.7536 15.9303 17.1836 16.9675 16.488 17.93C15.8531 18.8038 15.075 19.9798 13.6856 19.9798C12.4851 19.9798 11.6876 19.2078 10.4572 19.1868C9.15568 19.1657 8.43992 19.8323 7.24991 20H6.84417C5.97033 19.8735 5.2651 19.1815 4.75134 18.5579C3.23639 16.7154 2.0657 14.3354 1.8479 11.2897V10.3948C1.94011 8.21499 2.99926 6.44272 4.40707 5.58381C5.15006 5.12712 6.17144 4.73807 7.30875 4.91196C7.79617 4.98748 8.29413 5.15435 8.73061 5.31946C9.14426 5.47842 9.66154 5.76033 10.1516 5.7454C10.4836 5.73574 10.8138 5.56273 11.1484 5.44065C12.1285 5.08673 13.0893 4.68098 14.3557 4.87156C15.8777 5.10166 16.9579 5.77789 17.6254 6.82124C16.3379 7.64063 15.32 8.87542 15.4939 10.9841C15.6485 12.8995 16.7621 14.0201 18.1532 14.6805Z"
      fill="white" />
  </g>
  <defs>
    <clipPath id="clip0_320_19710">
      <rect width="20" height="20" fill="white" />
    </clipPath>
  </defs>
</svg>