<svg width="96" height="96" viewBox="0 0 96 96" fill="none" xmlns="http://www.w3.org/2000/svg">
  <g clip-path="url(#clip0_340_18401)">
    <path opacity="0.5"
      d="M92.5997 12.389C92.9336 2.8726 82.1143 -6.04546 76.4078 5.3656C62.4 33.3755 18.9248 -10.6743 4.78426 15.7778C-1.36199 27.2753 14.547 36.0548 19.5825 45.4304C27.3623 59.9153 11.0323 74.4215 14.2348 88.1534C16.5191 97.9482 29.965 97.6201 37.2859 92.3752C45.7311 86.3247 47.3925 76.4005 49.4878 67.0315C54.7718 43.4039 91.6487 39.4927 92.5997 12.389Z"
      fill="url(#paint0_linear_340_18401)" />
    <path
      d="M84.9151 78.2477L63.8202 40.9704H64.1451C69.4763 40.9704 73.9763 36.6088 73.9388 31.2778C73.9019 26.0175 69.6447 21.7601 64.3842 21.7232C60.7111 21.6975 57.4986 23.826 55.8554 26.8959L50.1214 16.7634C49.1881 15.114 46.8121 15.114 45.8787 16.7634L11.0851 78.2477C10.1656 79.8726 11.3393 81.8857 13.2064 81.8857H21.7439L17.8178 88.8234C17.6534 89.1141 17.8634 89.4741 18.1971 89.4741H43.9765C44.3104 89.4741 44.5204 89.1141 44.3558 88.8234L40.4298 81.8857H82.7935C84.6608 81.8856 85.8348 79.8726 84.9151 78.2477Z"
      fill="#FF9E2D" fill-opacity="0.0627451" />
    <path
      d="M45.8787 12.2633L11.0851 73.7476C10.1656 75.3724 11.3393 77.3856 13.2064 77.3856H82.7939C84.661 77.3856 85.8348 75.3726 84.9153 73.7476L50.1214 12.2633C49.1881 10.6141 46.8121 10.6141 45.8787 12.2633Z"
      fill="#FF9E2D" />
    <path
      d="M18.4088 71.2501L47.1538 20.4543C47.526 19.7965 48.4738 19.7965 48.846 20.4543L77.5913 71.2501C77.958 71.8981 77.4898 72.7011 76.7451 72.7011H19.2549C18.5102 72.7009 18.042 71.8981 18.4088 71.2501Z"
      fill="#1D1E21" />
    <path
      d="M58.7301 47.0675C58.7301 45.7453 57.6582 44.6733 56.3359 44.6733C55.0137 44.6733 53.9417 45.7453 53.9417 47.0675V43.2238C53.9417 41.9015 52.8698 40.8296 51.5475 40.8296C50.2253 40.8296 49.1533 41.9015 49.1533 43.2238V40.341C49.1533 39.0187 48.0814 37.9468 46.7592 37.9468C45.4369 37.9468 44.365 39.0187 44.365 40.341V44.1847C44.365 42.8625 43.293 41.7905 41.9708 41.7905C40.6485 41.7905 39.5766 42.8625 39.5766 44.1847V56.5912L37.239 54.2537C36.304 53.3186 34.788 53.3186 33.8532 54.2537C32.9181 55.1887 32.9181 56.7047 33.8532 57.6395L42.3748 66.1612C44.1085 67.8984 46.5055 68.9733 49.1535 68.9733C54.4427 68.9733 58.7305 64.6856 58.7305 59.3964L58.7301 47.0675Z"
      fill="#FF9E2D" />
    <path
      d="M44.3646 53.6124C44.1159 53.6124 43.8775 53.5136 43.7016 53.3378C43.5258 53.162 43.4271 52.9235 43.4271 52.6749V43.4351C43.4271 43.1864 43.5258 42.948 43.7016 42.7721C43.8775 42.5963 44.1159 42.4976 44.3646 42.4976C44.6132 42.4976 44.8516 42.5963 45.0275 42.7721C45.2033 42.948 45.3021 43.1864 45.3021 43.4351V52.6749C45.3021 52.9235 45.2033 53.162 45.0275 53.3378C44.8516 53.5136 44.6132 53.6124 44.3646 53.6124ZM49.1531 53.6124C48.9045 53.6124 48.666 53.5136 48.4902 53.3378C48.3144 53.162 48.2156 52.9235 48.2156 52.6749V42.4741C48.2156 41.9562 48.6352 41.5366 49.1531 41.5366C49.671 41.5366 50.0906 41.9562 50.0906 42.4741V52.6749C50.0906 52.9235 49.9918 53.162 49.816 53.3378C49.6402 53.5136 49.4018 53.6124 49.1531 53.6124ZM53.9415 53.6124C53.6928 53.6124 53.4544 53.5136 53.2786 53.3378C53.1028 53.162 53.004 52.9235 53.004 52.6749V46.3179C53.004 45.8 53.4236 45.3804 53.9415 45.3804C54.4594 45.3804 54.879 45.8 54.879 46.3179V52.6749C54.879 52.9235 54.7802 53.162 54.6044 53.3378C54.4286 53.5136 54.1901 53.6124 53.9415 53.6124ZM49.3354 60.1475C49.0954 60.1475 48.8554 60.056 48.6724 59.8728L47.7746 58.9749C46.8212 58.0212 45.4682 57.6363 44.1553 57.9449L40.9781 58.6916C40.8227 58.7283 40.6605 58.7246 40.5069 58.6809C40.3533 58.6372 40.2134 58.5549 40.1006 58.4418L38.3826 56.7237C38.2955 56.6367 38.2264 56.5334 38.1793 56.4197C38.1322 56.3059 38.1079 56.184 38.1079 56.0609C38.1079 55.9378 38.1322 55.8159 38.1793 55.7022C38.2264 55.5885 38.2955 55.4851 38.3826 55.3981C38.5584 55.2224 38.7968 55.1236 39.0455 55.1236C39.2941 55.1236 39.5325 55.2224 39.7084 55.3981L41.0572 56.7468L43.7261 56.1196C45.6754 55.6616 47.6842 56.2331 49.1002 57.6491L49.9982 58.547C50.174 58.7228 50.2727 58.9613 50.2727 59.2099C50.2726 59.4586 50.1738 59.697 49.998 59.8728C49.9111 59.9601 49.8079 60.0292 49.6941 60.0764C49.5804 60.1235 49.4585 60.1477 49.3354 60.1475Z"
      fill="#E37E08" />
    <path
      d="M48.9484 34.2891C48.9484 34.0405 48.8497 33.8021 48.6739 33.6262C48.498 33.4504 48.2596 33.3516 48.0109 33.3516H47.9894C47.7407 33.3516 47.5023 33.4504 47.3265 33.6262C47.1507 33.8021 47.0519 34.0405 47.0519 34.2891C47.0519 34.5378 47.1507 34.7762 47.3265 34.9521C47.5023 35.1279 47.7407 35.2266 47.9894 35.2266H48.0109C48.2596 35.2266 48.498 35.1279 48.6739 34.9521C48.8497 34.7762 48.9484 34.5378 48.9484 34.2891ZM48.9484 31.2691C48.9484 31.0204 48.8497 30.782 48.6739 30.6062C48.498 30.4304 48.2596 30.3316 48.0109 30.3316H47.9894C47.7407 30.3316 47.5023 30.4304 47.3265 30.6062C47.1507 30.782 47.0519 31.0204 47.0519 31.2691C47.0519 31.5177 47.1507 31.7562 47.3265 31.932C47.5023 32.1078 47.7407 32.2066 47.9894 32.2066H48.0109C48.2596 32.2066 48.498 32.1078 48.6739 31.932C48.8497 31.7562 48.9484 31.5177 48.9484 31.2691ZM48.9484 28.249C48.9484 28.0004 48.8497 27.7619 48.6739 27.5861C48.498 27.4103 48.2596 27.3115 48.0109 27.3115H47.9894C47.7407 27.3115 47.5023 27.4103 47.3265 27.5861C47.1507 27.7619 47.0519 28.0004 47.0519 28.249C47.0519 28.4977 47.1507 28.7361 47.3265 28.9119C47.5023 29.0878 47.7407 29.1865 47.9894 29.1865H48.0109C48.2596 29.1865 48.498 29.0878 48.6739 28.9119C48.8497 28.7361 48.9484 28.4977 48.9484 28.249Z"
      fill="#E37E08" />
    <path
      d="M64.3842 17.2234C69.6445 17.2603 73.9018 21.5175 73.9388 26.778C73.9761 32.109 69.4763 36.4706 64.1451 36.4706H55.6873C55.5566 36.4706 55.4271 36.4449 55.3063 36.3948C55.1854 36.3448 55.0757 36.2714 54.9832 36.179C54.8907 36.0865 54.8174 35.9767 54.7673 35.8559C54.7173 35.7351 54.6915 35.6056 54.6915 35.4748V27.0171C54.6915 21.6859 59.053 17.1859 64.3842 17.2234Z"
      fill="#1D1E21" />
    <path
      d="M63.1872 23.9624H61.2295C60.9809 23.9624 60.7424 23.8636 60.5666 23.6878C60.3908 23.512 60.292 23.2735 60.292 23.0249C60.292 22.7763 60.3908 22.5378 60.5666 22.362C60.7424 22.1862 60.9809 22.0874 61.2295 22.0874H63.1872C63.4358 22.0874 63.6743 22.1862 63.8501 22.362C64.0259 22.5378 64.1247 22.7763 64.1247 23.0249C64.1247 23.2735 64.0259 23.512 63.8501 23.6878C63.6743 23.8636 63.4358 23.9624 63.1872 23.9624Z"
      fill="#E37E08" />
    <path
      d="M67.401 27.7842H61.2292C60.9806 27.7842 60.7422 27.6854 60.5663 27.5096C60.3905 27.3338 60.2917 27.0953 60.2917 26.8467C60.2917 26.598 60.3905 26.3596 60.5663 26.1838C60.7422 26.008 60.9806 25.9092 61.2292 25.9092H67.401C67.6496 25.9092 67.8881 26.008 68.0639 26.1838C68.2397 26.3596 68.3385 26.598 68.3385 26.8467C68.3385 27.0953 68.2397 27.3338 68.0639 27.5096C67.8881 27.6854 67.6496 27.7842 67.401 27.7842ZM67.401 31.6056H61.2292C60.9806 31.6056 60.7422 31.5068 60.5663 31.331C60.3905 31.1552 60.2917 30.9168 60.2917 30.6681C60.2917 30.4195 60.3905 30.181 60.5663 30.0052C60.7422 29.8294 60.9806 29.7306 61.2292 29.7306H67.401C67.6496 29.7306 67.8881 29.8294 68.0639 30.0052C68.2397 30.181 68.3385 30.4195 68.3385 30.6681C68.3385 30.9168 68.2397 31.1552 68.0639 31.331C67.8881 31.5068 67.6496 31.6056 67.401 31.6056Z"
      fill="#FF9E2D" />
    <path
      d="M17.8178 84.3229L30.7075 61.5454C30.8743 61.2505 31.2994 61.2505 31.4663 61.5454L44.356 84.3229C44.5204 84.6135 44.3104 84.9735 43.9767 84.9735H18.1973C17.8633 84.9735 17.6533 84.6135 17.8178 84.3229Z"
      fill="#1D1E21" />
    <path
      d="M85.7308 73.2859L65.3858 37.3351C69.7137 36.8359 73.3759 33.7596 74.5217 29.5109C74.5538 29.392 74.5621 29.268 74.5463 29.1459C74.5304 29.0238 74.4907 28.9061 74.4293 28.7994C74.3679 28.6927 74.2861 28.5991 74.1886 28.524C74.091 28.4489 73.9796 28.3937 73.8608 28.3617C73.7419 28.3296 73.6179 28.3212 73.4958 28.337C73.3737 28.3528 73.2559 28.3926 73.1492 28.454C73.0425 28.5154 72.9489 28.5972 72.8738 28.6947C72.7987 28.7923 72.7436 28.9037 72.7116 29.0226C71.6942 32.7949 68.0914 35.533 64.1451 35.533H55.6875C55.6721 35.533 55.6572 35.5269 55.6462 35.5159C55.6353 35.505 55.6291 35.4902 55.629 35.4747V27.0171C55.629 24.6696 56.5963 22.363 58.2831 20.6879C59.926 19.0566 62.0668 18.1606 64.3182 18.1606L64.3776 18.1607C68.0614 18.1866 71.3387 20.5461 72.5325 24.0319C72.5724 24.1484 72.6349 24.2559 72.7163 24.3482C72.7978 24.4406 72.8966 24.516 73.0072 24.5701C73.1177 24.6243 73.2379 24.6561 73.3608 24.6638C73.4837 24.6715 73.6069 24.655 73.7233 24.6151C73.8398 24.5752 73.9473 24.5127 74.0396 24.4313C74.132 24.3498 74.2074 24.251 74.2615 24.1404C74.3157 24.0298 74.3475 23.9097 74.3552 23.7868C74.3629 23.6639 74.3464 23.5407 74.3065 23.4242C72.8548 19.186 68.8701 16.3171 64.3907 16.2856C61.611 16.2614 58.9763 17.3571 56.962 19.3572C56.5793 19.7375 56.2256 20.146 55.9039 20.5791L50.9367 11.8011C50.3307 10.729 49.2327 10.0889 48 10.0889C46.7674 10.0889 45.6694 10.729 45.0634 11.8007L10.2688 73.2865C9.67147 74.3436 9.67991 75.6006 10.2919 76.6491C10.9033 77.6971 11.9927 78.3227 13.2058 78.3227H20.1364L17.002 83.8615C16.8842 84.0706 16.823 84.3068 16.8245 84.5468C16.8261 84.7868 16.8903 85.0223 17.0108 85.2299C17.1321 85.437 17.3053 85.6088 17.5134 85.7284C17.7215 85.848 17.9573 85.9111 18.1973 85.9116H43.9767C44.2166 85.9111 44.4523 85.848 44.6604 85.7284C44.8685 85.6089 45.0418 85.4371 45.1632 85.23C45.2837 85.0225 45.3479 84.787 45.3495 84.5469C45.351 84.3069 45.2898 84.0706 45.172 83.8615L32.2823 61.0842C32.0391 60.6541 31.581 60.387 31.087 60.387C30.5929 60.387 30.1348 60.654 29.8917 61.084L21.1975 76.4475H13.2057C12.9434 76.449 12.6855 76.381 12.4582 76.2504C12.2308 76.1197 12.0421 75.9312 11.9113 75.7039C11.7777 75.4779 11.7064 75.2206 11.7046 74.958C11.7028 74.6955 11.7706 74.4372 11.901 74.2094L46.6954 12.7242C46.9645 12.2483 47.4522 11.9641 48 11.9641C48.5479 11.9641 49.0354 12.2483 49.3047 12.7246L54.7958 22.4282C54.1191 23.8589 53.754 25.4299 53.754 27.0171V35.4747C53.754 36.5408 54.6214 37.408 55.6875 37.408H63.2727L84.0988 74.209C84.2293 74.4369 84.2972 74.6953 84.2954 74.9579C84.2936 75.2205 84.2223 75.478 84.0887 75.7041C83.9579 75.9313 83.7692 76.1199 83.5419 76.2505C83.3145 76.3811 83.0566 76.4492 82.7944 76.4477H45.9675C45.7189 76.4477 45.4804 76.5465 45.3046 76.7223C45.1288 76.8981 45.03 77.1366 45.03 77.3852C45.03 77.6339 45.1288 77.8723 45.3046 78.0481C45.4804 78.224 45.7189 78.3227 45.9675 78.3227H82.7944C84.0075 78.3227 85.0967 77.6971 85.7083 76.6491C86.3202 75.6004 86.3286 74.3434 85.7308 73.2859ZM31.0868 62.7788L43.1164 84.0364H19.0573L31.0868 62.7788Z"
      fill="#E37E08" />
    <path
      d="M31.2787 77.8741H30.8949C30.6076 77.8741 30.3312 77.7636 30.123 77.5656C29.9148 77.3675 29.7908 77.097 29.7765 76.81L29.4615 70.4959C29.4539 70.3444 29.4773 70.1929 29.5301 70.0506C29.5829 69.9083 29.664 69.7783 29.7686 69.6683C29.8732 69.5584 29.9991 69.4708 30.1385 69.411C30.278 69.3512 30.4282 69.3203 30.5799 69.3203H31.5937C31.7455 69.3203 31.8956 69.3512 32.0351 69.411C32.1746 69.4708 32.3004 69.5584 32.405 69.6683C32.5096 69.7783 32.5908 69.9083 32.6436 70.0506C32.6964 70.1929 32.7197 70.3444 32.7122 70.4959L32.3972 76.81C32.3829 77.097 32.2588 77.3675 32.0506 77.5656C31.8424 77.7636 31.5661 77.8741 31.2787 77.8741Z"
      fill="#FF9E2D" />
    <path
      d="M31.0869 81.9283C31.829 81.9283 32.4307 81.3267 32.4307 80.5845C32.4307 79.8424 31.829 79.2407 31.0869 79.2407C30.3447 79.2407 29.743 79.8424 29.743 80.5845C29.743 81.3267 30.3447 81.9283 31.0869 81.9283Z"
      fill="#FF9E2D" />
    <path
      d="M27.7386 25.593C27.4899 25.593 27.2515 25.4943 27.0757 25.3184C26.8999 25.1426 26.8011 24.9042 26.8011 24.6555C26.8007 24.3407 26.6755 24.0388 26.4529 23.8162C26.2303 23.5936 25.9285 23.4683 25.6137 23.4679C25.365 23.4679 25.1266 23.3691 24.9507 23.1933C24.7749 23.0175 24.6762 22.779 24.6762 22.5304C24.6762 22.2818 24.7749 22.0433 24.9507 21.8675C25.1266 21.6917 25.365 21.5929 25.6137 21.5929C25.9285 21.5926 26.2303 21.4673 26.4529 21.2447C26.6755 21.0221 26.8007 20.7203 26.8011 20.4055C26.8011 20.1568 26.8999 19.9184 27.0757 19.7425C27.2515 19.5667 27.4899 19.468 27.7386 19.468C27.9872 19.468 28.2257 19.5667 28.4015 19.7425C28.5773 19.9184 28.6761 20.1568 28.6761 20.4055C28.6764 20.7203 28.8017 21.0221 29.0243 21.2447C29.2469 21.4673 29.5487 21.5926 29.8635 21.5929C30.1122 21.5929 30.3506 21.6917 30.5264 21.8675C30.7023 22.0433 30.801 22.2818 30.801 22.5304C30.801 22.779 30.7023 23.0175 30.5264 23.1933C30.3506 23.3691 30.1122 23.4679 29.8635 23.4679C29.5487 23.4683 29.2469 23.5936 29.0243 23.8162C28.8016 24.0388 28.6764 24.3407 28.6761 24.6555C28.6761 24.9042 28.5773 25.1426 28.4015 25.3184C28.2257 25.4943 27.9872 25.593 27.7386 25.593ZM79.4404 48.4427C79.1918 48.4427 78.9533 48.3439 78.7775 48.1681C78.6017 47.9923 78.5029 47.7539 78.5029 47.5052C78.5026 47.1904 78.3773 46.8885 78.1547 46.6659C77.9321 46.4432 77.6303 46.318 77.3155 46.3176C76.7976 46.3176 76.378 45.898 76.378 45.3801C76.378 44.8622 76.7976 44.4426 77.3155 44.4426C77.6303 44.4422 77.9321 44.317 78.1547 44.0944C78.3773 43.8718 78.5026 43.57 78.5029 43.2551C78.5029 42.7373 78.9225 42.3176 79.4404 42.3176C79.9583 42.3176 80.3779 42.7373 80.3779 43.2551C80.3783 43.57 80.5036 43.8718 80.7262 44.0944C80.9488 44.317 81.2507 44.4422 81.5655 44.4426C82.0834 44.4426 82.503 44.8622 82.503 45.3801C82.503 45.898 82.0834 46.3176 81.5655 46.3176C81.2507 46.318 80.9488 46.4432 80.7262 46.6659C80.5036 46.8885 80.3783 47.1904 80.3779 47.5052C80.3779 47.7539 80.2791 47.9923 80.1033 48.1681C79.9275 48.3439 79.689 48.4427 79.4404 48.4427ZM59.0389 12.7256C58.7903 12.7256 58.5518 12.6269 58.376 12.4511C58.2002 12.2752 58.1014 12.0368 58.1014 11.7881C58.1011 11.4733 57.9758 11.1715 57.7532 10.9488C57.5306 10.7262 57.2288 10.6009 56.914 10.6005C56.3961 10.6005 55.9765 10.1809 55.9765 9.66302C55.9765 9.14515 56.3961 8.72552 56.914 8.72552C57.2288 8.72518 57.5306 8.59996 57.7532 8.37735C57.9758 8.15474 58.1011 7.85291 58.1014 7.53809C58.1014 7.02021 58.521 6.60059 59.0389 6.60059C59.5568 6.60059 59.9764 7.02021 59.9764 7.53809C59.9767 7.85291 60.102 8.15474 60.3246 8.37735C60.5472 8.59996 60.849 8.72518 61.1638 8.72552C61.6817 8.72552 62.1013 9.14515 62.1013 9.66302C62.1013 10.1809 61.6817 10.6005 61.1638 10.6005C60.849 10.6009 60.5472 10.7262 60.3246 10.9488C60.102 11.1715 59.9767 11.4733 59.9764 11.7881C59.9764 12.0368 59.8776 12.2752 59.7018 12.4511C59.526 12.6269 59.2875 12.7256 59.0389 12.7256ZM24.3298 34.7145C24.2067 34.7147 24.0847 34.6905 23.9709 34.6434C23.8571 34.5962 23.7538 34.5271 23.6668 34.4398L22.6423 33.4153L21.6178 34.4398C21.5312 34.5287 21.4278 34.5995 21.3136 34.6481C21.1994 34.6967 21.0767 34.7221 20.9525 34.7229C20.8284 34.7237 20.7054 34.6998 20.5906 34.6527C20.4758 34.6056 20.3714 34.5361 20.2837 34.4484C20.1959 34.3606 20.1264 34.2563 20.0793 34.1415C20.0321 34.0267 20.0083 33.9037 20.0091 33.7796C20.0098 33.6554 20.0352 33.5327 20.0838 33.4185C20.1324 33.3043 20.2032 33.2009 20.292 33.1142L21.9795 31.4267C22.1553 31.2509 22.3938 31.1521 22.6424 31.1521C22.8911 31.1521 23.1295 31.2509 23.3053 31.4267L24.9928 33.1142C25.1241 33.2453 25.2135 33.4123 25.2498 33.5942C25.286 33.7761 25.2675 33.9647 25.1965 34.1361C25.1255 34.3074 25.0053 34.4539 24.851 34.5569C24.6967 34.6598 24.5153 34.7147 24.3298 34.7145ZM55.629 86.6282C55.5059 86.6284 55.3839 86.6042 55.2702 86.5571C55.1564 86.5099 55.0531 86.4408 54.9662 86.3535L53.9415 85.329L52.9168 86.3535C52.8298 86.4406 52.7265 86.5097 52.6128 86.5568C52.499 86.6039 52.3771 86.6282 52.254 86.6282C52.1309 86.6282 52.009 86.6039 51.8953 86.5568C51.7816 86.5097 51.6782 86.4406 51.5912 86.3535C51.5041 86.2665 51.4351 86.1632 51.388 86.0494C51.3408 85.9357 51.3166 85.8138 51.3166 85.6907C51.3166 85.5676 51.3408 85.4457 51.388 85.332C51.4351 85.2183 51.5041 85.1149 51.5912 85.0279L53.2787 83.3404C53.3657 83.2533 53.4691 83.1843 53.5828 83.1371C53.6965 83.09 53.8184 83.0658 53.9415 83.0658C54.0646 83.0658 54.1865 83.09 54.3003 83.1371C54.414 83.1843 54.5173 83.2533 54.6043 83.3404L56.2918 85.0279C56.4231 85.1589 56.5125 85.326 56.5488 85.5079C56.585 85.6898 56.5665 85.8783 56.4955 86.0497C56.4246 86.221 56.3043 86.3675 56.1501 86.4705C55.9958 86.5734 55.8145 86.6283 55.629 86.6282Z"
      fill="#FF9E2D" />
  </g>
  <defs>
    <linearGradient id="paint0_linear_340_18401" x1="-0.662048" y1="75.389" x2="80.448"
      y2="-5.72109" gradientUnits="userSpaceOnUse">
      <stop stop-color="#FF9E2D" stop-opacity="0" />
      <stop offset="1" stop-color="#FF9E2D" />
    </linearGradient>
    <clipPath id="clip0_340_18401">
      <rect width="96" height="96" fill="white" />
    </clipPath>
  </defs>
</svg>