<svg width="16" height="16" viewBox="0 0 16 16" fill="none" xmlns="http://www.w3.org/2000/svg">
  <g clip-path="url(#clip0_340_9481)">
    <path
      d="M4.66675 6.44499C4.66675 5.97344 4.85407 5.5212 5.18751 5.18776C5.52095 4.85432 5.97319 4.66699 6.44475 4.66699H12.2221C12.4556 4.66699 12.6868 4.71298 12.9025 4.80233C13.1182 4.89169 13.3142 5.02265 13.4793 5.18776C13.6444 5.35286 13.7754 5.54886 13.8647 5.76458C13.9541 5.9803 14.0001 6.2115 14.0001 6.44499V12.2223C14.0001 12.4558 13.9541 12.687 13.8647 12.9027C13.7754 13.1185 13.6444 13.3145 13.4793 13.4796C13.3142 13.6447 13.1182 13.7756 12.9025 13.865C12.6868 13.9543 12.4556 14.0003 12.2221 14.0003H6.44475C6.21126 14.0003 5.98005 13.9543 5.76434 13.865C5.54862 13.7756 5.35261 13.6447 5.18751 13.4796C5.02241 13.3145 4.89144 13.1185 4.80209 12.9027C4.71274 12.687 4.66675 12.4558 4.66675 12.2223V6.44499Z"
      stroke="#8A8C8D" stroke-width="1.5" stroke-linecap="round" stroke-linejoin="round" />
    <path
      d="M2.67467 11.158C2.47023 11.0415 2.30018 10.873 2.18172 10.6697C2.06325 10.4663 2.00057 10.2353 2 10V3.33333C2 2.6 2.6 2 3.33333 2H10C10.5 2 10.772 2.25667 11 2.66667"
      stroke="#8A8C8D" stroke-width="1.5" stroke-linecap="round" stroke-linejoin="round" />
  </g>
  <defs>
    <clipPath id="clip0_340_9481">
      <rect width="16" height="16" fill="white" />
    </clipPath>
  </defs>
</svg>