<svg width="40" height="40" viewBox="0 0 40 40" fill="none" xmlns="http://www.w3.org/2000/svg">
  <rect x="0.5" y="0.5" width="39" height="39" rx="5.5" fill="#1D1E21" />
  <rect x="0.5" y="0.5" width="39" height="39" rx="5.5" stroke="#222327" />
  <g clip-path="url(#clip0_340_17873)">
    <path
      d="M31.4124 10.1877C31.0207 9.79611 30.5501 9.6001 29.9999 9.6001H10C9.45001 9.6001 8.97931 9.79611 8.58742 10.1877C8.19575 10.5795 8 11.0502 8 11.6002V25.2003C8 25.7504 8.19575 26.2211 8.58742 26.6129C8.97931 27.0045 9.45001 27.2002 10 27.2002H16.8001C16.8001 27.5168 16.7334 27.8421 16.6 28.1752C16.4668 28.5085 16.3334 28.8001 16.2 29.05C16.0669 29.3002 16.0002 29.4833 16.0002 29.5999C16.0002 29.8165 16.0793 30.0044 16.2376 30.1623C16.3959 30.3209 16.5834 30.4003 16.8001 30.4003H23.2001C23.4168 30.4003 23.6043 30.3209 23.7626 30.1623C23.9211 30.0045 24.0002 29.8166 24.0002 29.5999C24.0002 29.4918 23.9334 29.3104 23.8001 29.0563C23.6667 28.8023 23.5334 28.5062 23.4002 28.169C23.2668 27.8314 23.2001 27.5085 23.2001 27.2002H30.0003C30.5502 27.2002 31.0208 27.0045 31.4124 26.6129C31.8042 26.2211 32 25.7505 32 25.2003V11.6002C32.0002 11.0502 31.8042 10.5795 31.4124 10.1877ZM30.4 22.0002C30.4 22.1086 30.3605 22.2022 30.2813 22.2815C30.2021 22.3605 30.1083 22.4 29.9999 22.4H10C9.89173 22.4 9.79795 22.3605 9.71879 22.2815C9.63968 22.2019 9.60005 22.1086 9.60005 22.0002V11.6002C9.60005 11.4918 9.63954 11.3981 9.71879 11.319C9.79799 11.2399 9.89177 11.2002 10 11.2002H30.0002C30.1084 11.2002 30.2024 11.2398 30.2813 11.319C30.3605 11.3982 30.4 11.4919 30.4 11.6002V22.0002Z"
      fill="#8A8C8D" />
  </g>
  <defs>
    <clipPath id="clip0_340_17873">
      <rect width="24" height="24" fill="white" transform="translate(8 8)" />
    </clipPath>
  </defs>
</svg>