<svg width="40" height="40" viewBox="0 0 40 40" fill="none" xmlns="http://www.w3.org/2000/svg">
  <rect x="0.5" y="0.5" width="39" height="39" rx="5.5" fill="#1D1E21" />
  <rect x="0.5" y="0.5" width="39" height="39" rx="5.5" stroke="#222327" />
  <path
    d="M29.0171 8.80109C28.4827 8.26693 27.8412 8 27.0909 8H12.9089C12.1589 8 11.5168 8.26693 10.9827 8.80109C10.4486 9.33537 10.1816 9.97724 10.1816 10.7273V29.273C10.1816 30.0232 10.4486 30.6646 10.9827 31.1991C11.5168 31.7334 12.1589 32 12.9089 32H27.0909C27.8411 32 28.4827 31.7334 29.0171 31.1991C29.5512 30.6646 29.8185 30.0229 29.8185 29.273V10.7274C29.8185 9.97724 29.5506 9.33519 29.0171 8.80109ZM20.767 30.5855C20.5513 30.8013 20.2955 30.9092 19.9999 30.9092C19.7043 30.9092 19.4487 30.8013 19.2327 30.5855C19.0168 30.3694 18.9089 30.1136 18.9089 29.8185C18.9089 29.5231 19.0168 29.2669 19.2327 29.0515C19.4489 28.8354 19.7045 28.7271 19.9999 28.7271C20.2954 28.7271 20.5513 28.8353 20.767 29.0515C20.9828 29.2669 21.0911 29.523 21.0911 29.8185C21.0911 30.1136 20.9828 30.3692 20.767 30.5855ZM27.6364 27.091C27.6364 27.2389 27.582 27.3664 27.4746 27.4747C27.3663 27.583 27.2388 27.6366 27.0909 27.6366H12.9089C12.7612 27.6366 12.6334 27.5826 12.5255 27.4747C12.4175 27.3668 12.3636 27.2389 12.3636 27.091V10.7274C12.3636 10.5796 12.4175 10.4518 12.5255 10.3439C12.6335 10.2359 12.7612 10.182 12.9089 10.182H27.0909C27.2388 10.182 27.3663 10.2357 27.4746 10.3439C27.5825 10.4518 27.6364 10.5796 27.6364 10.7274V27.091Z"
    fill="#8A8C8D" />
</svg>