<svg width="40" height="40" viewBox="0 0 40 40" fill="none" xmlns="http://www.w3.org/2000/svg">
  <rect x="0.5" y="0.5" width="39" height="39" rx="5.5" fill="#1D1E21" />
  <rect x="0.5" y="0.5" width="39" height="39" rx="5.5" stroke="#222327" />
  <path
    d="M31.0178 27.1583L29.3333 23.7894V13.3334C29.3329 12.8621 29.1454 12.4102 28.8121 12.0769C28.4788 11.7436 28.0269 11.5561 27.5556 11.5557H12.4444C11.9731 11.5561 11.5212 11.7436 11.1879 12.0769C10.8546 12.4102 10.6671 12.8621 10.6667 13.3334V23.7903L8.98222 27.1583C8.91449 27.2939 8.88253 27.4445 8.88938 27.5959C8.89624 27.7473 8.94168 27.8944 9.02139 28.0232C9.1011 28.1521 9.21244 28.2585 9.34482 28.3322C9.47721 28.406 9.62624 28.4446 9.77778 28.4446H30.2222C30.3738 28.4446 30.5228 28.406 30.6552 28.3322C30.7876 28.2585 30.8989 28.1521 30.9786 28.0232C31.0583 27.8944 31.1038 27.7473 31.1106 27.5959C31.1175 27.4445 31.0855 27.2939 31.0178 27.1583ZM12.4444 13.3334H27.5556V23.1112H12.4444V13.3334Z"
    fill="#8A8C8D" />
</svg>