<svg width="40" height="40" viewBox="0 0 40 40" fill="none" xmlns="http://www.w3.org/2000/svg">
  <rect x="0.5" y="0.5" width="39" height="39" rx="5.5" fill="#1D1E21" />
  <rect x="0.5" y="0.5" width="39" height="39" rx="5.5" stroke="#222327" />
  <path
    d="M26 8H14C13.1735 8 12.5 8.6735 12.5 9.5V30.5C12.5 31.328 13.1735 32 14 32H26C26.828 32 27.5 31.328 27.5 30.5V9.5C27.5 8.6735 26.828 8 26 8ZM20 30.5C19.172 30.5 18.5 29.828 18.5 29C18.5 28.172 19.172 27.5 20 27.5C20.828 27.5 21.5 28.172 21.5 29C21.5 29.828 20.828 30.5 20 30.5ZM26 26H14V11H26V26Z"
    fill="#8A8C8D" />
</svg>