<svg width="260" height="236" viewBox="0 0 260 236" fill="none" xmlns="http://www.w3.org/2000/svg">
  <g clip-path="url(#clip0_320_18771)">
    <path
      d="M8.70293 168.167C7.58977 171.29 6.82852 174.62 5.9167 177.763C5.18568 180.311 4.07977 182.796 3.60875 185.457C2.47926 191.786 -2.64335 200.04 1.75368 204.762C27.4731 232.603 31.4499 232.171 31.719 232.409C33.0105 233.535 29.974 232.628 88.7376 236C89.7764 236 90.4977 235.539 90.8895 234.832L111.417 198.617C111.419 198.616 111.419 198.615 111.42 198.614C111.42 198.613 111.421 198.611 111.42 198.61C111.573 198.337 111.669 198.036 111.702 197.725C111.734 197.414 111.703 197.1 111.611 196.801C111.518 196.502 111.366 196.225 111.162 195.987C110.959 195.748 110.709 195.552 110.428 195.412L105.422 192.974L74.3789 172.94L61.2514 164.743C64.0539 157.556 70.9433 152.823 77.7311 152.652C91.0377 152.279 100.218 164.955 110.225 171.934C115.689 175.746 122.343 178.523 128.977 177.537C135.429 176.602 142.059 170.87 141.651 163.826C140.903 151.228 121.577 147.138 108.815 127.665C109.513 128.048 101.81 123.858 160.387 155.928C165.865 157.915 171.893 154.181 174.545 149.412C177.289 144.473 177.471 138.451 177.618 133.614L178.325 112.207L198.938 129.173L198.881 129.542C198.821 129.927 199.482 130.654 199.97 130.553L237.584 122.146C238.044 122.04 238.468 121.814 238.811 121.491C239.154 121.168 239.404 120.76 239.536 120.31L259.879 48.2817C260.345 46.5932 259.437 44.8776 257.856 44.2943L201.708 22.786C201.211 22.5704 200.659 22.4893 200.072 22.5169L157.966 25.5276C157.785 24.8122 157.569 24.0625 157.272 23.1615C155.496 17.8688 150.813 12.7335 146.022 9.38166C146.022 9.29636 146.06 9.21526 146.026 9.13117C145.961 8.96685 145.833 8.83489 145.67 8.76393C145.507 8.69297 145.322 8.68873 145.156 8.75213L145.133 8.76235C143.214 7.51412 141.305 6.5476 139.586 6.02981C134.966 4.64162 129.785 5.05129 124.475 7.19455C124.206 7.24981 123.529 6.94046 123.335 7.70153C109.27 14.0196 103.74 27.2119 105.663 42.4094C107.397 55.6552 114.658 67.7446 128.606 69.3449C128.586 70.4219 128.519 75.4082 128.593 76.4931C128.682 77.7791 128.669 78.5997 128.548 78.9367C127.706 78.5012 132.799 82.2309 110.925 63.2196C96.8889 51.0256 96.2492 47.6816 91.0419 46.5433C62.5084 40.2571 36.0005 68.8499 48.8318 98.1773C35.8191 94.6501 23.1982 96.0954 12.531 103.675C12.0061 103.534 11.8175 103.823 11.5635 104.363C6.73117 108.044 3.85363 112.266 3.20424 116.687C2.95572 118.315 3.10386 120.265 3.55252 122.327C3.304 122.563 3.25019 122.94 3.47028 123.212C3.55917 123.326 3.69824 123.347 3.82763 123.385C5.22679 128.632 8.60982 134.432 13.5317 137.861C14.9874 138.866 16.5037 139.781 18.072 140.602C15.5276 146.705 12.6628 157.204 8.70293 168.167ZM2.74591 203.855C-0.0239959 200.883 2.01428 195.36 3.32456 191.44C5.55331 184.761 4.28414 186.828 6.30066 180.937C7.8661 176.386 8.54935 172.617 9.97089 168.616C13.4501 158.993 16.4842 148.369 19.2638 141.237C19.5389 141.393 22.0331 142.575 23.2714 143.064C23.3172 143.122 23.3712 143.173 23.4316 143.216C29.044 148.31 49.1765 166.648 55.8125 170.333C51.2256 176.941 39.5184 204.501 35.8893 214.393C34.3776 218.509 30.9843 229.182 30.8707 230.548C24.1772 226.816 7.96042 209.505 2.74591 203.855ZM41.4744 140.794L41.631 145.611C41.6368 145.785 41.7103 145.95 41.836 146.071C41.9616 146.192 42.1297 146.259 42.3046 146.26H42.3258C42.5042 146.253 42.673 146.177 42.7952 146.048C42.9175 145.919 42.9832 145.747 42.9782 145.569L42.8276 140.921C46.7397 141.217 50.3858 141.155 54.6788 140.441C54.6395 140.885 54.4303 139.914 55.9921 144.873C48.6903 147.264 50.0411 146.723 46.0244 146.521C39.288 146.341 31.9657 144.964 24.7836 142.196C25.1652 141.992 24.9765 141.988 27.3153 137.368C31.6652 139.149 36.5393 140.296 41.4744 140.794ZM110.24 197.963C88.6336 235.731 89.8725 234.841 88.8017 234.662C29.9969 231.358 32.9011 232.062 32.3774 231.229C32.3696 231.217 32.2668 231.005 32.2565 230.989C32.1918 230.802 32.2069 230.636 32.2432 230.443C39.5849 203.384 56.2866 171.798 56.9734 170.899C56.9734 170.899 56.9783 170.899 56.9813 170.899C58.34 171.46 83.7474 183.908 109.823 196.609C109.942 196.669 110.047 196.752 110.133 196.853C110.218 196.954 110.283 197.071 110.321 197.198C110.36 197.324 110.373 197.457 110.359 197.589C110.345 197.72 110.304 197.848 110.24 197.963ZM154.674 53.4074C154.008 55.5266 154.034 55.4773 150.049 59.2791C145.447 55.8209 146.389 56.4054 145.951 56.2907C147.826 53.6476 149.281 50.6334 150.331 47.4395C155.193 49.6561 155.041 49.6699 155.318 49.6699C156.034 49.6699 156.255 48.6956 155.602 48.394L150.726 46.1468C151.875 42.1559 152.339 37.9625 152.05 33.8718C157.293 34.0069 157.444 34.2922 157.842 33.8976C158.428 44.2415 155.744 50.0057 154.674 53.4074ZM258.581 47.9237C236.912 123.635 238.727 120.515 237.285 120.843L200.312 129.104L204.182 104.047C213.05 50.6022 213.031 53.6068 212.565 52.2078L258.555 47.1902C258.58 47.1872 258.604 47.1788 258.63 47.1752C258.663 47.4255 258.646 47.6797 258.581 47.9237ZM201.2 24.0235L257.381 45.5462C257.592 45.6313 257.785 45.7534 257.952 45.9066C209.021 51.0365 212.469 51.2809 211.188 50.598C206.279 48.1231 178.174 34.8899 159.528 26.7554L200.16 23.8493C200.515 23.8228 200.871 23.8826 201.197 24.0235H201.2ZM157.788 32.9365C157.388 32.6025 157.61 32.8404 151.971 32.5274C151.578 29.0434 150.724 25.7498 148.723 21.9793C154.032 19.4889 153.668 19.8907 153.947 19.4564C156.526 23.591 157.401 28.0667 157.788 32.9365ZM153.358 18.5019C152.843 18.5398 154.274 18.0694 148.068 20.805C146.268 17.7454 143.893 15.0579 141.072 12.8885C142.252 11.8297 143.591 10.9595 145.04 10.3091C148.115 12.4127 151.148 15.287 153.358 18.5019ZM143.689 9.41229C142.317 10.127 141.05 11.0234 139.921 12.077C136.354 9.66038 132.158 8.12922 127.612 7.52072C134.286 5.56367 139.242 6.72061 143.689 9.41229ZM106.998 42.24C105.096 27.2606 110.696 14.3758 124.711 8.55391C139.254 9.19724 149.297 19.5081 150.66 33.062C150.615 33.3299 152.541 47.6546 142.655 58.2549C138.327 62.9103 135.806 62.6051 136.477 63.8155C136.52 63.8924 136.578 63.9602 136.648 64.0148C136.717 64.0695 136.797 64.11 136.882 64.134C136.967 64.1581 137.057 64.1652 137.145 64.1549C137.233 64.1447 137.318 64.1174 137.395 64.0744C139.727 62.7765 141.836 61.1187 143.644 59.1632C144.217 58.5493 144.717 57.8549 145.237 57.1809C145.389 57.4656 144.78 56.9749 149.065 60.2126C144.693 64.2204 139.874 67.5025 134.122 68.075C118.405 69.6326 109.012 57.6062 106.998 42.24ZM129.905 75.8605C129.905 73.7017 129.905 72.084 129.951 69.4656C136.25 69.8585 141.862 68.4402 149.393 61.7095C150.318 62.1901 151.328 62.2898 152.175 61.9179C152.955 61.5948 153.469 60.9905 154.024 60.5748C155.991 59.0731 155.943 62.3985 156.463 64.5345C156.826 66.0495 157.834 67.7512 159.565 67.9861C160.094 68.0504 160.586 67.9669 161.021 67.8906C165.04 67.2088 167.711 71.0989 171.748 70.6093C172.655 70.4994 172.435 69.1424 171.584 69.2812C168.4 69.674 165.254 66.0879 161.536 66.4688C160.914 66.518 160.243 66.7193 159.742 66.6598C158.689 66.5162 158.037 65.3058 157.774 64.221C157.39 62.6159 157.396 60.2192 155.99 59.1686C155.079 58.5529 153.924 58.9674 153.209 59.508C152.277 60.2144 151.798 60.9917 150.657 60.7694C150.708 60.7316 150.778 60.7418 150.82 60.6883C150.904 60.5748 150.91 60.4402 150.914 60.3093C156.193 55.2857 155.104 56.0006 156.29 52.8193C158.156 48.0931 159.16 42.762 159.279 37.3449C172.222 43.3843 181.558 49.7882 194.328 55.7783C188.192 56.9166 183.35 62.0801 181.074 67.2124C177.542 75.0971 178.063 79.1577 176.273 133.576C176.131 138.27 175.955 144.113 173.371 148.77C170.995 153.044 165.675 156.416 160.923 154.705L160.704 154.599C155.424 152.566 153.853 145.664 153.074 139.878C149.298 111.779 148.799 103.763 145.21 95.4815C142.058 88.308 136.185 81.8879 128.484 80.3062C130.55 80.5771 129.905 76.7772 129.905 75.8605ZM90.7487 47.848C95.4196 48.8692 96.1494 52.1483 110.037 64.2252C129.066 80.7628 127.497 80.0978 128.376 80.2882C118.641 78.3492 107.432 84.4744 103.017 94.5444C98.9054 103.927 100.157 115.82 106.43 126.46C118.644 147.105 139.595 151.847 140.305 163.905C140.816 172.652 128.454 183.007 111 170.84C100.97 163.845 91.7155 151.04 77.7009 151.314C67.8886 151.56 59.0589 160.354 58.7348 170.241C55.4794 168.659 56.8973 169.501 54.3813 167.769C45.5987 161.419 36.3627 153.132 26.6278 144.299C36.2877 147.552 41.8076 147.493 47.1297 147.946C49.8863 148.18 49.9232 148.283 56.6173 146.076C57.0261 146.267 57.3429 146.092 57.4916 145.765C61.6547 144.349 65.2312 142.815 68.2363 140.875C76.0635 146.97 83.2921 144.767 85.3413 139.543C103.723 149.073 109.98 154.842 110.978 154.842C111.636 154.842 111.903 153.997 111.362 153.624C103.15 147.949 94.5806 142.802 85.7065 138.215C86.4429 134.885 85.4555 130.957 83.3967 127.996C79.4411 122.314 73.6993 119.633 66.1037 115.111C53.9581 104.786 55.1414 106.037 54.5276 105.221C33.3957 77.2439 59.0776 40.8542 90.7487 47.848ZM82.2932 141.596C79.2621 144.153 74.4551 143.275 71.2771 141.372C70.6317 140.976 70.0087 140.546 69.4111 140.082C75.2158 135.877 77.9657 129.613 77.9488 124.183C86.0904 130.865 85.8909 138.547 82.2932 141.596ZM51.2788 117.172C48.4049 116.474 47.3867 119.705 46.0401 121.016C39.2681 127.587 22.359 123.194 23.3264 114.553C17.5889 112.738 18.3489 114.033 19.8636 109.587C19.9214 109.426 20.0394 109.293 20.1932 109.216C20.3469 109.139 20.5246 109.124 20.6895 109.173C22.1607 109.615 23.6052 110.141 25.0158 110.747C25.5062 110.109 26.034 109.499 26.5964 108.922C27.1073 108.375 27.4828 108.992 30.6246 109.914C32.2414 110.389 35.7937 111.553 34.4079 112.519C33.4713 113.175 32.84 113.86 32.5371 114.553C31.3338 117.214 35.6027 120.567 40.5384 117.512C43.0066 115.99 43.4359 113.288 46.7452 111.943C52.1507 109.749 60.6727 114.166 59.7627 120.226C63.8 121.307 64.0721 121.307 64.3447 121.572C64.4868 121.705 64.6471 121.951 64.5685 122.344C64.0074 124.483 64.164 124.821 63.7081 125.065C63.6237 125.11 63.5305 125.137 63.4348 125.144C63.339 125.151 63.2429 125.137 63.153 125.104C59.6327 123.811 58.7711 123.933 58.43 123.495C57.9663 124.233 57.5031 124.869 56.7116 125.987C56.6344 126.099 56.5249 126.185 56.3976 126.233C56.2703 126.282 56.1313 126.291 55.9987 126.259C53.8192 125.735 51.68 125.058 49.5973 124.232C49.4898 124.189 49.3952 124.12 49.3225 124.031C49.2497 123.941 49.2013 123.834 49.1819 123.721C49.0707 123.025 49.659 123.161 52.2759 120.375C52.7046 119.919 53.1224 119.437 53.1387 118.976C53.1563 118.443 52.4234 117.453 51.2776 117.172H51.2788ZM49.5175 99.7313C50.1634 101.005 50.874 102.244 51.6465 103.446C40.6352 99.3793 25.8853 99.1553 18.2697 107.411C15.7374 110.194 14.7132 112.657 15.2791 116.163C15.8451 119.642 17.7848 123.149 21.0451 126.174C33.0353 137.368 57.3024 138.518 66.6315 128.502C69.2352 125.67 70.1506 122.112 69.3809 118.6C71.6955 119.907 74.4569 121.519 76.5654 123.105C76.8677 126.953 75.6076 131.069 72.9979 134.732C69.4414 139.717 63.0574 142.438 57.2691 144.423C57.1034 143.896 56.5974 142.31 55.9056 140.242C59.7754 139.483 63.5097 138.181 66.8807 136.177C67.6449 135.722 66.949 134.57 66.1859 135.03C55.0144 141.677 37.1119 140.633 27.3298 135.832C27.2887 135.813 27.247 135.835 27.2047 135.825C13.831 130.062 6.26498 118.165 12.6326 105.245C23.4232 97.1766 36.5532 95.9548 49.5163 99.7313H49.5175ZM10.1904 132.889C7.67926 129.866 5.93242 126.266 5.06777 122.905C6.4627 121.92 8.07772 121.085 9.93038 120.442C10.9317 123.566 12.7227 126.533 15.1824 129.187C10.2793 132.717 10.3343 132.393 10.1892 132.891L10.1904 132.889ZM10.3917 107.095C8.90851 111.135 8.62131 115.244 9.56154 119.152C7.85202 119.737 6.22655 120.541 4.72614 121.544C3.82159 116.731 4.89787 112.086 10.3905 107.096L10.3917 107.095ZM10.9226 133.701C11.3241 133.634 10.7817 133.848 16.1268 130.163C19.4264 133.399 22.6571 135.274 26.0909 136.809C23.9414 141.351 23.6475 141.33 23.8507 141.85C22.6946 141.396 19.9809 140.135 19.239 139.717C14.585 137.337 12.6519 135.6 10.9214 133.703L10.9226 133.701Z"
      fill="#4B73FF" />
    <path
      d="M65.0756 190.702C65.5986 188.049 63.8348 185.926 61.1495 185.926C58.4643 185.926 55.8631 188.049 55.3401 190.702C54.8201 193.336 56.5808 195.477 59.2655 195.477C61.9501 195.477 64.5556 193.336 65.0756 190.702Z"
      fill="#F8D33A" />
    <path
      d="M78.2418 193.193C75.5565 193.193 72.9553 195.316 72.4317 197.969C71.9123 200.603 73.6724 202.744 76.3577 202.744C79.0429 202.744 81.6478 200.603 82.1672 197.969C82.6902 195.316 80.9258 193.193 78.2418 193.193Z"
      fill="#F8D33A" />
    <path
      d="M94.961 199.911C92.2758 199.911 89.674 202.034 89.1509 204.687C88.6315 207.321 90.3917 209.462 93.0769 209.462C95.7622 209.462 98.3664 207.321 98.8864 204.687C99.41 202.036 97.6457 199.911 94.961 199.911Z"
      fill="#F8D33A" />
    <path
      d="M74.1249 222.991L62.8112 220.408C61.9647 220.197 61.6316 221.513 62.5089 221.71L73.8225 224.293C74.6678 224.513 75.0083 223.188 74.1249 222.991Z"
      fill="#F8D33A" />
    <path
      d="M218.423 82.178C216.191 82.178 213.943 84.9039 213.386 88.2744C212.828 91.6448 214.172 94.3894 216.404 94.3894C218.635 94.3894 220.906 91.646 221.463 88.2744C222.021 84.9027 220.654 82.178 218.423 82.178Z"
      fill="#F8D33A" />
    <path
      d="M213.752 107.457C211.521 107.457 209.273 110.183 208.716 113.554C208.159 116.925 209.502 119.668 211.733 119.668C213.965 119.668 216.236 116.925 216.794 113.554C217.351 110.183 215.982 107.457 213.752 107.457Z"
      fill="#F8D33A" />
    <path
      d="M107.574 83.9506C108.217 83.9506 108.487 83.1445 107.993 82.7571L75.4509 57.1245C74.7556 56.573 73.9139 57.6236 74.6147 58.1727C109.342 85.4548 107.127 83.9506 107.574 83.9506Z"
      fill="#F8D33A" />
    <path
      d="M90.1402 99.4219C90.7998 99.4219 91.0677 98.569 90.5193 98.1983L68.9024 83.6496C68.1611 83.1547 67.4101 84.2623 68.1442 84.7579C91.1312 100.175 89.7441 99.4219 90.1402 99.4219Z"
      fill="#F8D33A" />
    <path
      d="M137.334 70.9715C143.838 73.0625 149.861 76.6264 155.684 80.0737C156.901 80.7945 168.477 87.607 169.913 87.607C170.641 87.607 170.847 86.611 170.181 86.3239C159.059 81.5412 149.408 73.4463 137.75 69.698C136.9 69.4283 136.487 70.6981 137.334 70.9715Z"
      fill="#F8D33A" />
    <path
      d="M149.487 88.8186C148.148 88.3729 146.883 87.9524 145.825 87.1866C145.099 86.6664 144.313 87.7506 145.03 88.2678C147.578 90.1077 152.061 90.4537 160.685 95.0598C161.471 95.4803 162.103 94.2969 161.322 93.8812C155.274 90.6501 149.766 88.9267 149.487 88.8186Z"
      fill="#F8D33A" />
    <path
      d="M51.1218 123.385C52.6763 123.958 54.2608 124.448 55.8683 124.852C58.1327 121.675 58.6806 120.467 58.4466 118.769C57.8347 114.302 51.1865 111.594 47.2539 113.183C44.4277 114.332 43.9283 116.996 41.2473 118.649C34.5 122.836 27.6354 116.7 32.7465 112.119C29.6839 110.911 30.2106 111.292 27.2605 110.168C25.2506 112.323 23.8375 114.53 25.0837 117.189C27.9256 123.256 40.2605 124.758 45.0977 120.058C46.2429 118.944 47.7394 114.926 51.5995 115.871C53.2067 116.264 54.5278 117.705 54.4855 119.016C54.4565 119.944 53.8645 120.649 53.2593 121.289C52.5875 122.006 51.8716 122.707 51.1218 123.385Z"
      fill="#F8D33A" />
    <path
      d="M62.899 123.594L63.1566 122.478L59.4271 121.523C59.3066 121.847 59.1671 122.165 59.0093 122.473C59.7107 122.536 62.2309 123.362 62.899 123.594Z"
      fill="#F8D33A" />
    <path
      d="M20.3164 112.259L23.616 113.244C23.7786 112.771 23.9912 112.316 24.2503 111.887C23.1619 111.433 22.0548 111 20.9084 110.641L20.3164 112.259Z"
      fill="#F8D33A" />
    <path
      d="M128.555 37.9457C126.896 37.6862 125.45 37.4387 124.148 37.3984C124.069 38.037 123.676 42.1439 123.614 43.6204C123.505 46.1877 123.4 45.5756 123.359 45.9979C123.359 45.9913 123.364 45.9877 123.375 45.9877C123.464 45.9877 123.948 46.2748 125.892 46.4724C128.13 46.7458 129.413 46.8851 130.542 45.8267C131.863 44.5893 132.476 42.4274 132.039 40.5677C131.589 38.6653 130.51 38.2286 128.555 37.9457Z"
      fill="#F8D33A" />
    <path
      d="M143.009 24.0847C132.423 3.02631 105.355 15.5327 110.311 43.2467C110.912 46.6105 111.943 49.8633 113.564 52.609C117.172 58.7246 123.718 61.8092 129.902 60.478C142.865 57.6962 150.306 38.6021 143.009 24.0847ZM134.754 37.2398C138.463 41.7017 136.486 49.11 131.526 50.5186C130.877 50.7042 130.215 50.7691 129.297 50.879C129.281 51.1986 129.281 51.5542 129.237 51.78C129.017 52.988 129.189 53.4476 128.895 53.9311C128.242 55.0124 125.14 55.0334 124.754 53.8542C124.655 53.5647 124.693 53.6067 124.951 50.5018C124.786 50.4808 124.619 50.4573 124.454 50.4315C124.443 50.5072 124.432 50.5793 124.422 50.6429C123.979 53.492 124.05 53.6152 123.672 53.8789C123.493 53.9821 123.286 54.0271 123.08 54.0074C122.424 53.8999 121.779 53.7348 121.152 53.5142C121.024 53.4745 120.907 53.4076 120.808 53.3183C120.709 53.229 120.63 53.1194 120.578 52.997C120.464 52.7165 120.512 52.6637 120.562 49.9449C119.856 49.8494 117.132 49.1881 116.66 48.6042C116.444 48.3207 116.434 48.0083 116.426 47.8413C116.41 47.3007 116.403 45.0349 116.668 44.5934C116.952 44.0696 117.984 44.0113 118.547 44.1267C119.669 38.0843 119.832 31.6431 120.675 25.5053L119.81 25.3041C119.568 25.244 118.931 25.0962 118.689 24.4385C118.526 24.018 118.593 23.8258 118.92 21.3257C119.023 20.6013 119.394 20.2216 120.107 20.3141L123.961 20.8956C123.898 20.1042 123.98 19.308 124.203 18.5457C124.238 18.4284 124.305 18.3228 124.395 18.2403C124.486 18.1578 124.598 18.1016 124.719 18.0778C125.505 17.9288 127.39 17.7648 127.863 18.5247C128.219 19.114 127.935 20.8962 127.674 21.5882C127.658 21.6951 127.808 21.7594 128.013 21.763L128.529 21.7738C128.75 20.8686 127.616 18.2015 130.26 18.1655C130.952 18.1547 131.91 18.1433 132.705 18.7662C133.1 19.0665 133.194 19.4269 133.128 19.9135C132.91 21.2879 132.955 21.2536 132.807 21.8255C132.762 22.0021 132.678 22.3301 132.694 22.4382C132.76 22.5325 133.228 22.7848 133.454 22.9061C139.251 25.9913 139.029 35.0587 134.754 37.2386V37.2398Z"
      fill="#F8D33A" />
    <path
      d="M125.102 25.6531C125.099 25.6345 125.095 25.6255 125.087 25.6255C124.26 33.7216 124.747 29.2206 124.397 32.9539C124.282 34.279 124.427 33.7792 125.749 34.0141C127.333 34.3036 128.946 35.0101 130.291 34.4442C131.939 33.7588 133.294 30.8815 132.407 28.7917C131.552 26.7848 127.285 25.7426 125.102 25.6531Z"
      fill="#F8D33A" />
    <path
      d="M133.265 24.3418C132.882 24.0415 131.49 23.6072 131.363 22.6118C131.294 22.091 131.53 21.5126 131.586 21.148L131.8 19.7195C131.489 19.5105 130.971 19.4949 130.284 19.5027C129.819 19.5075 129.818 19.5417 129.84 20.0066C129.729 21.405 130.413 23.0287 128.758 23.1158L127.995 23.1002C126.798 23.0804 126 22.2274 126.419 21.1179C126.63 20.5599 126.666 20.003 126.682 19.3459C126.257 19.2868 125.825 19.2814 125.398 19.3297C125.248 20.0606 125.256 20.8149 125.422 21.5426C125.447 21.6488 125.445 21.7593 125.417 21.8646C125.389 21.9699 125.335 22.0668 125.26 22.1468C125.186 22.2268 125.093 22.2875 124.99 22.3236C124.886 22.3598 124.775 22.3702 124.667 22.3541L120.239 21.6874L119.973 23.6871C119.957 23.7781 119.95 23.8704 119.952 23.9628C119.973 23.9538 120.012 23.9748 120.12 24.0006L121.586 24.3418C121.749 24.3801 121.893 24.478 121.987 24.6163C122.082 24.7545 122.121 24.9231 122.096 25.0885C121.141 31.6822 121.041 38.5878 119.72 45.1575C119.7 45.2601 119.655 45.3565 119.59 45.4389C119.525 45.5213 119.442 45.5875 119.347 45.632C118.827 45.8723 118.588 45.3179 117.831 45.4308C117.781 46.1426 117.752 46.9463 117.776 47.7477C118.695 48.1399 119.656 48.4259 120.641 48.6C120.736 48.6181 120.933 48.6547 120.989 48.6223C121.092 48.5776 121.206 48.5596 121.318 48.5698C121.431 48.58 121.539 48.6182 121.632 48.6807C121.726 48.7433 121.803 48.8283 121.855 48.9279C121.907 49.0274 121.933 49.1384 121.93 49.2506L121.87 52.3375C122.167 52.433 122.467 52.5141 122.767 52.5778L123.098 50.437C123.122 50.2814 123.167 49.9912 123.12 49.8819C123.069 49.7695 123.051 49.6453 123.068 49.5234C123.085 49.4014 123.136 49.2866 123.214 49.1917C123.607 48.7112 123.892 49.0824 125.74 49.232C125.918 49.2467 126.083 49.3308 126.198 49.4659C126.313 49.6011 126.37 49.7762 126.356 49.9528L126.077 53.2908C126.626 53.4629 127.22 53.4304 127.748 53.1995C127.747 53.165 127.749 53.1305 127.753 53.0962C127.806 51.9453 127.921 51.7441 127.942 51.1608C128.026 48.9659 128.994 49.8459 131.16 49.2278C133.139 48.6643 134.809 46.5589 135.225 44.1069C135.649 41.6266 134.77 38.8887 133.097 37.4495C133.001 37.3658 132.93 37.2568 132.894 37.135C132.858 37.0132 132.857 36.8836 132.892 36.7615C132.927 36.6393 132.996 36.5295 133.092 36.4449C133.187 36.3603 133.305 36.3043 133.431 36.2835C134.497 36.1111 135.531 35.1038 136.065 33.7156C136.559 32.4307 136.662 30.8064 136.357 29.1437C135.919 26.7866 135.052 25.754 133.265 24.3418ZM131.471 46.8004C129.814 48.3466 127.838 48.0618 125.756 47.8041C123.849 47.6089 121.584 47.2635 122.107 45.4675C122.315 44.7731 122.038 44.8854 122.772 37.6243C122.827 37.0596 122.927 36.0559 123.993 36.0559C124.295 36.0823 124.739 35.9958 127.797 36.4763C130.751 36.9142 131.813 37.2927 132.68 38.6172C134.124 40.8259 133.705 44.704 131.468 46.8004H131.471ZM129.908 35.9369C128.052 36.2445 126.469 35.3585 125.096 35.2966C122.537 35.1596 122.992 33.6807 123.211 31.1002C123.361 29.3474 123.509 27.5933 123.685 25.8447C123.735 25.3324 123.84 24.2715 125.166 24.3148C127.96 24.4349 132.558 25.7 133.654 28.2733C134.196 29.563 132.963 35.4432 129.905 35.9369H129.908Z"
      fill="#F8D33A" />
    <path
      d="M82.3388 35.2251C83.2838 35.1788 83.0922 33.778 82.2704 33.8898C54.8719 35.2948 38.6497 54.0357 39.9545 72.5213C40.015 73.4073 41.3603 73.3184 41.2963 72.427C40.0368 54.5258 55.803 36.5881 82.3388 35.2251Z"
      fill="#F8D33A" />
    <path
      d="M45.6671 30.5139C39.7797 35.0194 35.6114 41.3817 33.848 48.5538C33.6406 49.4128 34.9442 49.7294 35.1588 48.8698C36.8477 41.9936 40.8435 35.8939 46.4882 31.5753C47.1866 31.0419 46.3884 29.9751 45.6671 30.5139Z"
      fill="#F8D33A" />
    <path
      d="M139.35 187.578C130.131 189.917 121.052 185.41 112.858 181.207C112.078 180.795 111.444 181.988 112.242 182.396C120.625 186.697 129.981 191.347 139.682 188.875C150.705 186.08 154.869 175.252 149.787 168.109C157.808 170.306 166.101 173.799 173.252 170.716C178.889 168.286 183.68 161.779 183.266 150.329C183.235 149.467 181.886 149.481 181.919 150.379C182.079 154.757 181.513 158.405 180.193 161.53C178.632 165.211 175.909 168.113 172.715 169.488C165.828 172.462 157.201 168.737 147.883 166.159C147.183 165.958 146.711 166.843 147.254 167.308C150.448 170.039 151.463 175.263 149.612 179.46C147.906 183.347 144.067 186.381 139.35 187.578Z"
      fill="#F8D33A" />
    <path
      d="M158.059 189.469C156.106 197.07 149.547 199.357 145.625 196.65C144.9 196.144 144.121 197.241 144.857 197.748C149.37 200.871 157.128 198.494 159.365 189.801C159.584 188.95 158.288 188.608 158.059 189.469Z"
      fill="#F8D33A" />
    <path
      d="M162.193 8.28414C161.567 8.48117 161.568 9.36178 162.193 9.56C164.582 10.3139 166.486 12.6415 166.728 15.0948C166.807 15.8576 167.907 15.9147 168.058 15.1626C168.637 12.3268 170.416 9.83812 172.815 8.50759C172.92 8.44885 173.008 8.36293 173.069 8.25886C173.129 8.1548 173.161 8.03643 173.159 7.9162C173.158 7.79597 173.124 7.67833 173.061 7.57564C172.998 7.47295 172.908 7.38901 172.801 7.33265C170.516 6.13127 167.988 4.74428 167.55 2.13909C167.603 1.64296 167.621 1.14381 167.605 0.645175C167.581 -0.123707 166.462 -0.250452 166.275 0.510621C166.147 1.05314 166.118 1.61393 166.188 2.16672C166.035 3.3825 165.653 4.5586 165.059 5.6327C164.209 7.17286 163.739 7.79938 162.193 8.28414ZM167.03 4.48358C168 6.05438 169.545 7.08997 171.156 7.97358C169.54 9.13652 168.243 10.7782 167.435 12.665C166.716 11.1021 165.532 9.79606 164.042 8.92327C165.432 8.06249 166.554 5.90361 167.032 4.48358H167.03Z"
      fill="#F8D33A" />
    <path
      d="M8.08437 87.1247C7.45855 87.3217 7.45916 88.2023 8.08437 88.4005C10.6312 89.2042 12.6676 91.6887 12.9258 94.3065C13.005 95.0742 14.1061 95.1228 14.256 94.3732C14.8692 91.3553 16.7635 88.7063 19.3212 87.285C19.4266 87.2262 19.5142 87.1402 19.5747 87.0361C19.6352 86.9321 19.6664 86.8138 19.665 86.6936C19.6636 86.5735 19.6298 86.4559 19.5669 86.3533C19.5041 86.2506 19.4146 86.1666 19.3079 86.1101C16.8693 84.8264 14.178 83.3469 13.7143 80.5639C13.7713 80.0392 13.7915 79.5111 13.7747 78.9835C13.7499 78.1948 12.6289 78.1185 12.4445 78.8478C12.3093 79.4183 12.279 80.0085 12.355 80.5897C12.1918 81.8874 11.7829 83.1427 11.15 84.2894C10.2418 85.9371 9.74232 86.6063 8.08437 87.1247ZM13.1943 82.9571C14.2319 84.6804 15.8971 85.7869 17.659 86.7522C15.8989 88.0005 14.4937 89.7845 13.6332 91.8365C12.8865 90.1503 11.5653 88.675 9.95516 87.7656C11.4801 86.8519 12.6833 84.5147 13.1943 82.9571Z"
      fill="#F8D33A" />
    <path
      d="M88.1724 17.6104C96.4864 17.8669 99.8422 19.159 100.699 19.159C101.502 19.159 101.624 18.0081 100.843 17.8375C96.6913 16.9303 92.4635 16.4074 88.2141 16.2757C87.335 16.2324 87.2721 17.5822 88.1724 17.6104Z"
      fill="#F8D33A" />
    <path
      d="M101.883 11.8582L99.6233 10.0862C98.9328 9.53536 98.0839 10.5836 98.7865 11.1344L101.047 12.9088C101.733 13.447 102.593 12.4187 101.883 11.8582Z"
      fill="#F8D33A" />
    <path
      d="M107.406 9.93603C105.488 8.41629 104.304 5.95647 104.322 3.51947C104.323 3.43157 104.306 3.34446 104.272 3.26311C104.239 3.18177 104.189 3.10779 104.127 3.04542C104.065 2.98304 103.991 2.93349 103.909 2.8996C103.827 2.8657 103.74 2.84814 103.651 2.8479H103.646C103.468 2.84789 103.298 2.91765 103.171 3.04198C103.045 3.16631 102.974 3.33513 102.972 3.51166C102.969 4.94468 103.29 6.36012 103.911 7.6532C104.533 8.94629 105.44 10.0839 106.564 10.9818C107.265 11.5363 108.099 10.4869 107.406 9.93603Z"
      fill="#F8D33A" />
    <path
      d="M246.274 66.1275C245.452 70.0074 249.254 52.0714 238.232 104.069C238.062 104.94 239.389 105.19 239.553 104.323C250.568 52.3669 246.769 70.2867 247.591 66.4099C247.78 65.5431 246.463 65.2703 246.274 66.1275Z"
      fill="#F8D33A" />
    <path
      d="M237.893 76.2004L235.798 85.078C235.59 85.9394 236.91 86.2464 237.108 85.3838L239.203 76.5062C239.409 75.6514 238.096 75.3342 237.893 76.2004Z"
      fill="#F8D33A" />
  </g>
  <defs>
    <clipPath id="clip0_320_18771">
      <rect width="260" height="236" fill="white" />
    </clipPath>
  </defs>
</svg>