<svg width="24" height="24" viewBox="0 0 24 24" fill="none" xmlns="http://www.w3.org/2000/svg">
  <g clip-path="url(#clip0_320_19532)">
    <path
      d="M10.5851 10.587C10.21 10.9621 9.99942 11.4709 9.99951 12.0013C9.99961 12.5318 10.2104 13.0405 10.5856 13.4155C10.9607 13.7905 11.4695 14.0011 11.9999 14.001C12.5304 14.0009 13.039 13.7901 13.4141 13.415"
      stroke="#8A8C8D" stroke-width="1.5" stroke-linecap="round" stroke-linejoin="round" />
    <path
      d="M18 16C16.5972 16.8777 13.8878 17.9554 12.2332 17.9445C8.63315 17.9445 5.63315 15.9445 3.23315 11.9445C4.50515 9.82452 6.62515 7.94049 8.23315 6.94449M8.23315 6.94449C9 6.5 11.622 5.94294 12.2332 5.94452C15.8332 5.94452 18.8332 7.94452 21.2332 11.9445C20.5672 13.0545 19.7665 14.8948 18 16"
      stroke="#8A8C8D" stroke-width="1.5" stroke-linecap="round" stroke-linejoin="round" />
  </g>
  <defs>
    <clipPath id="clip0_320_19532">
      <rect width="24" height="24" fill="white" />
    </clipPath>
  </defs>
</svg>