<svg width="20" height="20" viewBox="0 0 20 20" fill="none" xmlns="http://www.w3.org/2000/svg">
  <g clip-path="url(#clip0_340_59)">
    <path
      d="M10 2.5C16 2.5 17.5 4 17.5 10C17.5 16 16 17.5 10 17.5C4 17.5 2.5 16 2.5 10C2.5 4 4 2.5 10 2.5Z"
      stroke="#C2C4C4" stroke-width="1.5" stroke-linecap="round" stroke-linejoin="round" />
    <path d="M10 13.3335V13.3435" stroke="#C2C4C4" stroke-width="1.5" stroke-linecap="round"
      stroke-linejoin="round" />
    <path
      d="M10 10.8331C10.3748 10.8343 10.739 10.709 11.0339 10.4777C11.3287 10.2463 11.537 9.9223 11.625 9.55799C11.7131 9.19369 11.6758 8.81034 11.5191 8.46985C11.3625 8.12937 11.0956 7.85162 10.7617 7.68147C10.4301 7.51165 10.0509 7.45899 9.68567 7.53207C9.32043 7.60515 8.99066 7.79966 8.75 8.08397"
      stroke="#C2C4C4" stroke-width="1.5" stroke-linecap="round" stroke-linejoin="round" />
  </g>
  <defs>
    <clipPath id="clip0_340_59">
      <rect width="20" height="20" fill="white" />
    </clipPath>
  </defs>
</svg>