<svg width="175" height="32" viewBox="0 0 175 32" fill="none" xmlns="http://www.w3.org/2000/svg">
  <path d="M0 8.53327L25.5998 0V14.9332L0 23.4665V8.53327Z" fill="#4B73FF" />
  <path d="M6.3999 24.5509V32.0002L31.9997 23.4669V8.53369L29.3324 9.42278V16.9699L6.3999 24.5509Z"
    fill="#4B73FF" />
  <path
    d="M46.2113 25V7.54545H52.3136C53.5295 7.54545 54.5323 7.75568 55.3221 8.17614C56.1119 8.59091 56.6999 9.15057 57.0863 9.85511C57.4727 10.554 57.6658 11.3295 57.6658 12.1818C57.6658 12.9318 57.5323 13.5511 57.2653 14.0398C57.0039 14.5284 56.6573 14.9148 56.2255 15.1989C55.7994 15.483 55.3363 15.6932 54.8363 15.8295V16C55.3704 16.0341 55.9073 16.2216 56.4471 16.5625C56.9869 16.9034 57.4386 17.392 57.8022 18.0284C58.1658 18.6648 58.3477 19.4432 58.3477 20.3636C58.3477 21.2386 58.1488 22.0256 57.7511 22.7244C57.3533 23.4233 56.7255 23.9773 55.8675 24.3864C55.0096 24.7955 53.8931 25 52.5181 25H46.2113ZM48.3249 23.125H52.5181C53.8988 23.125 54.8789 22.858 55.4585 22.3239C56.0437 21.7841 56.3363 21.1307 56.3363 20.3636C56.3363 19.7727 56.1857 19.2273 55.8846 18.7273C55.5835 18.2216 55.1545 17.8182 54.5977 17.517C54.0408 17.2102 53.3817 17.0568 52.6204 17.0568H48.3249V23.125ZM48.3249 15.2159H52.2454C52.8817 15.2159 53.4556 15.0909 53.967 14.8409C54.484 14.5909 54.8931 14.2386 55.1942 13.7841C55.5011 13.3295 55.6545 12.7955 55.6545 12.1818C55.6545 11.4148 55.3874 10.7642 54.8533 10.2301C54.3192 9.69034 53.4727 9.42045 52.3136 9.42045H48.3249V15.2159ZM61.5479 25V11.9091H63.4911V13.8864H63.6275C63.8661 13.2386 64.2979 12.7131 64.9229 12.3097C65.5479 11.9062 66.2525 11.7045 67.0366 11.7045C67.1843 11.7045 67.369 11.7074 67.5906 11.7131C67.8121 11.7187 67.9798 11.7273 68.0934 11.7386V13.7841C68.0252 13.767 67.869 13.7415 67.6246 13.7074C67.386 13.6676 67.1332 13.6477 66.8661 13.6477C66.2298 13.6477 65.6616 13.7812 65.1616 14.0483C64.6673 14.3097 64.2752 14.6733 63.9854 15.1392C63.7013 15.5994 63.5593 16.125 63.5593 16.7159V25H61.5479ZM74.3299 25.3068C73.5004 25.3068 72.7475 25.1506 72.0714 24.8381C71.3952 24.5199 70.8583 24.0625 70.4606 23.4659C70.0629 22.8636 69.864 22.1364 69.864 21.2841C69.864 20.5341 70.0117 19.9261 70.3072 19.4602C70.6026 18.9886 70.9975 18.6193 71.4918 18.3523C71.9862 18.0852 72.5316 17.8864 73.1282 17.7557C73.7305 17.6193 74.3356 17.5114 74.9435 17.4318C75.739 17.3295 76.3839 17.2528 76.8782 17.2017C77.3782 17.1449 77.7418 17.0511 77.9691 16.9205C78.2021 16.7898 78.3185 16.5625 78.3185 16.2386V16.1705C78.3185 15.3295 78.0884 14.6761 77.6282 14.2102C77.1737 13.7443 76.4833 13.5114 75.5572 13.5114C74.5969 13.5114 73.8441 13.7216 73.2987 14.142C72.7532 14.5625 72.3697 15.0114 72.1481 15.4886L70.239 14.8068C70.5799 14.0114 71.0344 13.392 71.6026 12.9489C72.1765 12.5 72.8015 12.1875 73.4776 12.0114C74.1594 11.8295 74.8299 11.7386 75.489 11.7386C75.9094 11.7386 76.3924 11.7898 76.9379 11.892C77.489 11.9886 78.0202 12.1903 78.5316 12.4972C79.0487 12.804 79.4776 13.267 79.8185 13.8864C80.1594 14.5057 80.3299 15.3352 80.3299 16.375V25H78.3185V23.2273H78.2163C78.0799 23.5114 77.8526 23.8153 77.5344 24.1392C77.2163 24.4631 76.793 24.7386 76.2646 24.9659C75.7362 25.1932 75.0913 25.3068 74.3299 25.3068ZM74.6367 23.5C75.4322 23.5 76.1026 23.3438 76.6481 23.0312C77.1992 22.7188 77.614 22.3153 77.8924 21.821C78.1765 21.3267 78.3185 20.8068 78.3185 20.2614V18.4205C78.2333 18.5227 78.0458 18.6165 77.756 18.7017C77.4719 18.7812 77.1424 18.8523 76.7674 18.9148C76.3981 18.9716 76.0373 19.0227 75.685 19.0682C75.3384 19.108 75.0572 19.142 74.8413 19.1705C74.3185 19.2386 73.8299 19.3494 73.3754 19.5028C72.9265 19.6506 72.5629 19.875 72.2844 20.1761C72.0117 20.4716 71.8754 20.875 71.8754 21.3864C71.8754 22.0852 72.1339 22.6136 72.6509 22.9716C73.1737 23.3239 73.8356 23.5 74.6367 23.5ZM86.0124 17.125V25H84.0011V11.9091H85.9442V13.9545H86.1147C86.4215 13.2898 86.8874 12.7557 87.5124 12.3523C88.1374 11.9432 88.9442 11.7386 89.9329 11.7386C90.8192 11.7386 91.5948 11.9205 92.2596 12.2841C92.9244 12.642 93.4414 13.1875 93.8107 13.9205C94.18 14.6477 94.3647 15.5682 94.3647 16.6818V25H92.3533V16.8182C92.3533 15.7898 92.0863 14.9886 91.5522 14.4148C91.0181 13.8352 90.2852 13.5455 89.3533 13.5455C88.7113 13.5455 88.1374 13.6847 87.6317 13.9631C87.1317 14.2415 86.7369 14.6477 86.4471 15.1818C86.1573 15.7159 86.0124 16.3636 86.0124 17.125ZM102.983 25.2727C101.892 25.2727 100.929 24.9972 100.094 24.446C99.2589 23.8892 98.6055 23.1051 98.1339 22.0938C97.6623 21.0767 97.4265 19.875 97.4265 18.4886C97.4265 17.1136 97.6623 15.9205 98.1339 14.9091C98.6055 13.8977 99.2617 13.1165 100.103 12.5653C100.944 12.0142 101.915 11.7386 103.017 11.7386C103.87 11.7386 104.543 11.8807 105.037 12.1648C105.537 12.4432 105.918 12.7614 106.179 13.1193C106.446 13.4716 106.654 13.7614 106.801 13.9886H106.972V7.54545H108.983V25H107.04V22.9886H106.801C106.654 23.2273 106.444 23.5284 106.171 23.892C105.898 24.25 105.509 24.571 105.003 24.8551C104.498 25.1335 103.824 25.2727 102.983 25.2727ZM103.256 23.4659C104.063 23.4659 104.745 23.2557 105.301 22.8352C105.858 22.4091 106.282 21.821 106.571 21.071C106.861 20.3153 107.006 19.4432 107.006 18.4545C107.006 17.4773 106.864 16.6222 106.58 15.8892C106.296 15.1506 105.875 14.5767 105.319 14.1676C104.762 13.7528 104.074 13.5455 103.256 13.5455C102.404 13.5455 101.694 13.7642 101.125 14.2017C100.563 14.6335 100.14 15.2216 99.8555 15.9659C99.5771 16.7045 99.4379 17.5341 99.4379 18.4545C99.4379 19.3864 99.5799 20.233 99.864 20.9943C100.154 21.75 100.58 22.3523 101.142 22.8011C101.711 23.2443 102.415 23.4659 103.256 23.4659ZM118.177 25V7.54545H121.868V21.9574H129.35V25H118.177ZM137.641 25.2557C136.317 25.2557 135.172 24.9744 134.206 24.4119C133.246 23.8437 132.505 23.054 131.982 22.0426C131.459 21.0256 131.198 19.8466 131.198 18.5057C131.198 17.1534 131.459 15.9716 131.982 14.9602C132.505 13.9432 133.246 13.1534 134.206 12.5909C135.172 12.0227 136.317 11.7386 137.641 11.7386C138.965 11.7386 140.107 12.0227 141.067 12.5909C142.033 13.1534 142.777 13.9432 143.3 14.9602C143.823 15.9716 144.084 17.1534 144.084 18.5057C144.084 19.8466 143.823 21.0256 143.3 22.0426C142.777 23.054 142.033 23.8437 141.067 24.4119C140.107 24.9744 138.965 25.2557 137.641 25.2557ZM137.658 22.4432C138.26 22.4432 138.763 22.2727 139.167 21.9318C139.57 21.5852 139.874 21.1136 140.078 20.517C140.289 19.9205 140.394 19.2415 140.394 18.4801C140.394 17.7188 140.289 17.0398 140.078 16.4432C139.874 15.8466 139.57 15.375 139.167 15.0284C138.763 14.6818 138.26 14.5085 137.658 14.5085C137.05 14.5085 136.539 14.6818 136.124 15.0284C135.715 15.375 135.405 15.8466 135.195 16.4432C134.99 17.0398 134.888 17.7188 134.888 18.4801C134.888 19.2415 134.99 19.9205 135.195 20.517C135.405 21.1136 135.715 21.5852 136.124 21.9318C136.539 22.2727 137.05 22.4432 137.658 22.4432ZM152.343 30.1818C151.167 30.1818 150.158 30.0199 149.317 29.696C148.482 29.3778 147.817 28.9432 147.323 28.392C146.828 27.8409 146.507 27.2216 146.36 26.5341L149.718 26.0824C149.82 26.3438 149.982 26.5881 150.203 26.8153C150.425 27.0426 150.718 27.2244 151.081 27.3608C151.451 27.5028 151.9 27.5739 152.428 27.5739C153.218 27.5739 153.868 27.3807 154.38 26.9943C154.897 26.6136 155.155 25.9744 155.155 25.0767V22.6818H155.002C154.843 23.0455 154.604 23.3892 154.286 23.7131C153.968 24.0369 153.559 24.3011 153.059 24.5057C152.559 24.7102 151.962 24.8125 151.269 24.8125C150.286 24.8125 149.391 24.5852 148.584 24.1307C147.783 23.6705 147.144 22.9687 146.667 22.0256C146.195 21.0767 145.959 19.8778 145.959 18.429C145.959 16.946 146.201 15.7074 146.684 14.7131C147.167 13.7187 147.809 12.9744 148.61 12.4801C149.417 11.9858 150.3 11.7386 151.26 11.7386C151.993 11.7386 152.607 11.8636 153.101 12.1136C153.596 12.358 153.993 12.6648 154.294 13.0341C154.601 13.3977 154.837 13.7557 155.002 14.108H155.138V11.9091H158.743V25.1278C158.743 26.2415 158.471 27.1733 157.925 27.9233C157.38 28.6733 156.624 29.2358 155.658 29.6108C154.698 29.9915 153.593 30.1818 152.343 30.1818ZM152.419 22.0852C153.005 22.0852 153.499 21.9403 153.902 21.6506C154.311 21.3551 154.624 20.9347 154.84 20.3892C155.061 19.8381 155.172 19.179 155.172 18.4119C155.172 17.6449 155.064 16.9801 154.848 16.4176C154.632 15.8494 154.32 15.4091 153.911 15.0966C153.502 14.7841 153.005 14.6278 152.419 14.6278C151.823 14.6278 151.32 14.7898 150.911 15.1136C150.502 15.4318 150.192 15.875 149.982 16.4432C149.772 17.0114 149.667 17.6676 149.667 18.4119C149.667 19.1676 149.772 19.821 149.982 20.3722C150.198 20.9176 150.507 21.3409 150.911 21.642C151.32 21.9375 151.823 22.0852 152.419 22.0852ZM167.547 25.2557C166.223 25.2557 165.078 24.9744 164.113 24.4119C163.152 23.8437 162.411 23.054 161.888 22.0426C161.365 21.0256 161.104 19.8466 161.104 18.5057C161.104 17.1534 161.365 15.9716 161.888 14.9602C162.411 13.9432 163.152 13.1534 164.113 12.5909C165.078 12.0227 166.223 11.7386 167.547 11.7386C168.871 11.7386 170.013 12.0227 170.973 12.5909C171.939 13.1534 172.684 13.9432 173.206 14.9602C173.729 15.9716 173.99 17.1534 173.99 18.5057C173.99 19.8466 173.729 21.0256 173.206 22.0426C172.684 23.054 171.939 23.8437 170.973 24.4119C170.013 24.9744 168.871 25.2557 167.547 25.2557ZM167.564 22.4432C168.167 22.4432 168.669 22.2727 169.073 21.9318C169.476 21.5852 169.78 21.1136 169.985 20.517C170.195 19.9205 170.3 19.2415 170.3 18.4801C170.3 17.7188 170.195 17.0398 169.985 16.4432C169.78 15.8466 169.476 15.375 169.073 15.0284C168.669 14.6818 168.167 14.5085 167.564 14.5085C166.956 14.5085 166.445 14.6818 166.03 15.0284C165.621 15.375 165.311 15.8466 165.101 16.4432C164.897 17.0398 164.794 17.7188 164.794 18.4801C164.794 19.2415 164.897 19.9205 165.101 20.517C165.311 21.1136 165.621 21.5852 166.03 21.9318C166.445 22.2727 166.956 22.4432 167.564 22.4432Z"
    fill="white" />
</svg>