<svg width="48" height="48" viewBox="0 0 48 48" fill="none" xmlns="http://www.w3.org/2000/svg">
  <g clip-path="url(#clip0_320_19068)">
    <path opacity="0.5"
      d="M47.0506 14.3984C44.9547 9.06515 38.4982 5.86687 33.0298 7.98337C26.7877 10.3993 28.8573 20.3277 23.1876 22.3354C20.1249 23.4199 15.5974 19.3687 12.503 18.7475C6.80104 17.6028 1.63916 21.6261 0.3681 27.1975C-0.92865 32.8816 1.15119 40.4735 7.39626 42.0162C14.8353 43.8539 18.7103 37.1666 24.9508 35.2464C31.3549 33.2759 38.4755 37.9297 43.7772 32.2674C47.694 28.0843 49.1261 19.6795 47.0506 14.3984Z"
      fill="url(#paint0_linear_320_19068)" />
    <path
      d="M44.7045 16.7431C44.7045 13.0403 41.7027 10.0384 37.9997 10.0384C35.131 10.0384 32.6842 11.8407 31.7269 14.3743H7.48242C6.44686 14.3743 5.60742 15.2138 5.60742 16.2493V37.0065C5.60742 38.0421 6.44686 38.8815 7.48242 38.8815H40.5176C41.5531 38.8815 42.3926 38.0421 42.3926 37.0065V21.8059C43.8081 20.5765 44.7045 18.7651 44.7045 16.7431Z"
      fill="#4B73FF" />
    <path
      d="M40.5176 36.5377H7.48242C6.44686 36.5377 5.60742 35.6983 5.60742 34.6628V13.9056C5.60742 12.87 6.44686 12.0306 7.48242 12.0306H40.5176C41.5531 12.0306 42.3926 12.87 42.3926 13.9056V34.6628C42.3926 35.6983 41.5531 36.5377 40.5176 36.5377Z"
      fill="#1D1E21" />
    <path
      d="M24.5712 20.9729L42.3927 34.6628C42.3927 35.6983 41.5532 36.5378 40.5177 36.5378H7.48242C6.44686 36.5378 5.60742 35.6983 5.60742 34.6628L23.4289 20.9729C23.5927 20.8471 23.7935 20.7789 24 20.7789C24.2066 20.7789 24.4074 20.8471 24.5712 20.9729Z"
      fill="#1D1E21" />
    <path
      d="M23.4289 27.5955L5.60742 13.9056C5.60742 12.87 6.44686 12.0306 7.48242 12.0306H40.5176C41.5531 12.0306 42.3926 12.87 42.3926 13.9056L24.5712 27.5955C24.4074 27.7213 24.2066 27.7895 24 27.7895C23.7935 27.7895 23.5927 27.7213 23.4289 27.5955Z"
      fill="#1D1E21" />
    <path
      d="M34.7762 34.043H31.7637C31.6394 34.043 31.5201 33.9936 31.4322 33.9057C31.3443 33.8178 31.2949 33.6985 31.2949 33.5742V31.4973C31.2949 31.373 31.3443 31.2537 31.4322 31.1658C31.5201 31.0779 31.6394 31.0285 31.7637 31.0285H34.7762C34.9006 31.0285 35.0198 31.0779 35.1077 31.1658C35.1956 31.2537 35.245 31.373 35.245 31.4973V33.5742C35.245 33.6985 35.1956 33.8178 35.1077 33.9057C35.0198 33.9936 34.9006 34.043 34.7762 34.043Z"
      fill="#6583FE" />
    <path
      d="M29.238 32.1322H26.6287C26.5043 32.1322 26.3851 32.0828 26.2972 31.9949C26.2093 31.907 26.1599 31.7877 26.1599 31.6634C26.1599 31.5391 26.2093 31.4199 26.2972 31.3319C26.3851 31.244 26.5043 31.1947 26.6287 31.1947H29.238C29.3623 31.1947 29.4816 31.244 29.5695 31.3319C29.6574 31.4199 29.7068 31.5391 29.7068 31.6634C29.7068 31.7877 29.6574 31.907 29.5695 31.9949C29.4816 32.0828 29.3623 32.1322 29.238 32.1322ZM29.238 34.043H20.0662C19.9418 34.043 19.8226 33.9936 19.7347 33.9057C19.6468 33.8178 19.5974 33.6985 19.5974 33.5742C19.5974 33.4499 19.6468 33.3307 19.7347 33.2428C19.8226 33.1549 19.9418 33.1055 20.0662 33.1055H29.238C29.3623 33.1055 29.4816 33.1549 29.5695 33.2428C29.6574 33.3307 29.7068 33.4499 29.7068 33.5742C29.7068 33.6985 29.6574 33.8178 29.5695 33.9057C29.4816 33.9936 29.3623 34.043 29.238 34.043Z"
      fill="#4B73FF" />
    <path
      d="M44.6099 15.472C45.202 11.8167 42.7187 8.37361 39.0634 7.78158C35.4081 7.18955 31.965 9.67281 31.373 13.3281C30.781 16.9834 33.2642 20.4265 36.9195 21.0185C40.5748 21.6105 44.0179 19.1273 44.6099 15.472Z"
      fill="#6583FE" />
    <path
      d="M37.9997 21.5728C41.9551 21.5728 45.1732 18.3548 45.1732 14.3993C45.1732 10.4438 41.9552 7.22587 37.9997 7.22587C34.0442 7.22587 30.8263 10.4438 30.8263 14.3993C30.8263 16.7003 31.9165 18.7503 33.6062 20.0638L24.2856 27.2237C24.2037 27.2865 24.1033 27.3206 24 27.3206C23.8968 27.3206 23.7964 27.2865 23.7145 27.2237L6.09305 13.6875C6.19814 13.0153 6.78127 12.4993 7.48242 12.4993H28.9855C29.1098 12.4993 29.229 12.4499 29.3169 12.362C29.4048 12.2741 29.4542 12.1549 29.4542 12.0306C29.4542 11.9062 29.4048 11.787 29.3169 11.6991C29.229 11.6112 29.1098 11.5618 28.9855 11.5618H7.48242C6.19008 11.5618 5.13867 12.6132 5.13867 13.9056V34.6627C5.13867 35.9551 6.19008 37.0065 7.48242 37.0065H40.5176C41.8099 37.0065 42.8613 35.9551 42.8613 34.6627V22.2746C42.8613 22.1503 42.8119 22.0311 42.724 21.9432C42.6361 21.8553 42.5169 21.8059 42.3926 21.8059C42.2683 21.8059 42.149 21.8553 42.0611 21.9432C41.9732 22.0311 41.9238 22.1503 41.9238 22.2746V33.7116L29.6513 24.2842L34.4269 20.6157C35.5129 21.2436 36.7453 21.5738 37.9997 21.5728ZM18.3488 24.2842L6.07617 33.7116V14.8567L18.3488 24.2842ZM41.9054 34.8796C41.8005 35.5522 41.2191 36.069 40.5176 36.069H7.48242C6.78089 36.069 6.19945 35.5522 6.09464 34.8796L19.1183 24.8752L23.1434 27.9671C23.3955 28.1608 23.6978 28.2577 24 28.2577C24.3023 28.2577 24.6045 28.1609 24.8567 27.9671L28.8818 24.8751L41.9054 34.8796ZM31.7638 14.3993C31.7638 10.9609 34.5612 8.16337 37.9997 8.16337C41.4383 8.16337 44.2357 10.9608 44.2357 14.3993C44.2357 17.8378 41.4383 20.6353 37.9997 20.6353C34.5612 20.6353 31.7638 17.8378 31.7638 14.3993Z"
      fill="#4B73FF" />
    <path
      d="M35.0733 12.1129L36.0302 14.3993L35.0733 16.6858C34.9109 17.0741 35.3028 17.4632 35.6899 17.2978L41.4667 14.8304C41.8462 14.6683 41.8462 14.1304 41.4667 13.9683L35.6899 11.5009C35.3028 11.3355 34.9109 11.7246 35.0733 12.1129Z"
      fill="#1D1E21" />
    <path
      d="M31.0152 7.65665C30.8367 7.65699 30.6599 7.62205 30.4949 7.55384C30.33 7.48562 30.1801 7.38547 30.054 7.25915C29.5239 6.72909 29.5239 5.86668 30.054 5.33672C30.5838 4.80684 31.4464 4.80665 31.9763 5.33672C32.5064 5.86678 32.5064 6.72918 31.9763 7.25915C31.8502 7.38546 31.7004 7.4856 31.5354 7.55382C31.3705 7.62203 31.1937 7.65698 31.0152 7.65665ZM31.0152 5.87625C30.9598 5.87614 30.9049 5.88699 30.8537 5.90816C30.8025 5.92933 30.756 5.96042 30.7168 5.99962C30.6378 6.07881 30.5935 6.18609 30.5935 6.29794C30.5935 6.40978 30.6378 6.51706 30.7168 6.59625C30.796 6.67525 30.9033 6.71962 31.0151 6.71962C31.127 6.71962 31.2342 6.67525 31.3134 6.59625C31.3924 6.51706 31.4368 6.40978 31.4368 6.29794C31.4368 6.18609 31.3924 6.07881 31.3134 5.99962C31.2743 5.96044 31.2278 5.92937 31.1766 5.9082C31.1254 5.88703 31.0706 5.87617 31.0152 5.87625ZM20.488 43.0608C20.3095 43.0611 20.1327 43.0261 19.9678 42.9579C19.8028 42.8897 19.653 42.7896 19.5268 42.6633C18.9967 42.1332 18.9967 41.2708 19.5268 40.7408C20.0567 40.2109 20.9194 40.2109 21.4492 40.7408C21.9793 41.2709 21.9793 42.1333 21.4492 42.6633C21.3231 42.7896 21.1732 42.8897 21.0083 42.9579C20.8433 43.0262 20.6665 43.0611 20.488 43.0608ZM20.488 41.2804C20.4326 41.2803 20.3777 41.2911 20.3265 41.3123C20.2753 41.3335 20.2288 41.3645 20.1896 41.4037C20.1106 41.4829 20.0663 41.5902 20.0663 41.7021C20.0663 41.8139 20.1106 41.9212 20.1896 42.0004C20.2688 42.0794 20.3761 42.1238 20.488 42.1238C20.5998 42.1238 20.7071 42.0794 20.7863 42.0004C20.8653 41.9212 20.9097 41.8139 20.9097 41.7021C20.9097 41.5902 20.8653 41.4829 20.7863 41.4037C20.7472 41.3646 20.7007 41.3335 20.6495 41.3123C20.5983 41.2911 20.5434 41.2803 20.488 41.2804ZM27.6357 8.86378C27.5741 8.86386 27.5132 8.85178 27.4563 8.82823C27.3994 8.80468 27.3478 8.77011 27.3043 8.72653L26.7451 8.1674L26.1859 8.72653C26.0976 8.81259 25.9789 8.86041 25.8557 8.85962C25.7324 8.85883 25.6144 8.80949 25.5272 8.72231C25.44 8.63512 25.3907 8.5171 25.3899 8.39381C25.3891 8.27052 25.437 8.15189 25.5231 8.06362L26.4137 7.173C26.5016 7.08512 26.6208 7.03575 26.7451 7.03575C26.8694 7.03575 26.9886 7.08512 27.0765 7.173L27.9671 8.06362C28.0326 8.12918 28.0773 8.21269 28.0954 8.30361C28.1134 8.39452 28.1041 8.48876 28.0687 8.5744C28.0332 8.66004 27.9731 8.73324 27.8961 8.78475C27.819 8.83626 27.7284 8.86376 27.6357 8.86378ZM41.2263 41.2802C41.1647 41.2803 41.1037 41.2682 41.0469 41.2446C40.99 41.2211 40.9383 41.1865 40.8949 41.1429L40.3356 40.5838L39.7764 41.1429C39.6881 41.229 39.5695 41.2768 39.4462 41.276C39.3229 41.2752 39.2049 41.2259 39.1177 41.1387C39.0306 41.0515 38.9813 40.9335 38.9805 40.8102C38.9797 40.6869 39.0275 40.5683 39.1136 40.48L40.0042 39.5894C40.0921 39.5015 40.2113 39.4522 40.3356 39.4522C40.4599 39.4522 40.5791 39.5015 40.6671 39.5894L41.5577 40.48C41.6232 40.5456 41.6678 40.6291 41.6859 40.72C41.704 40.8109 41.6947 40.9052 41.6592 40.9908C41.6238 41.0764 41.5637 41.1496 41.4866 41.2012C41.4096 41.2527 41.319 41.2802 41.2263 41.2802ZM16.7705 41.7255C16.7089 41.7256 16.6479 41.7135 16.5911 41.6899C16.5342 41.6664 16.4825 41.6318 16.4391 41.5882L15.8798 41.0291L15.3206 41.5882C15.2323 41.6743 15.1137 41.7221 14.9904 41.7213C14.8671 41.7205 14.7491 41.6712 14.6619 41.584C14.5748 41.4968 14.5254 41.3788 14.5247 41.2555C14.5239 41.1322 14.5717 41.0136 14.6578 40.9253L15.5484 40.0347C15.6363 39.9468 15.7555 39.8975 15.8798 39.8975C16.0041 39.8975 16.1233 39.9468 16.2112 40.0347L17.1019 40.9253C17.1674 40.9909 17.212 41.0744 17.2301 41.1653C17.2482 41.2562 17.2389 41.3505 17.2034 41.4361C17.168 41.5218 17.1079 41.595 17.0308 41.6465C16.9538 41.698 16.8632 41.7255 16.7705 41.7255Z"
      fill="#6583FE" />
  </g>
  <defs>
    <linearGradient id="paint0_linear_320_19068" x1="40.5314" y1="47.123" x2="18.5939" y2="18.0606"
      gradientUnits="userSpaceOnUse">
      <stop stop-color="#4B73FF" stop-opacity="0" />
      <stop offset="1" stop-color="#4B73FF" />
    </linearGradient>
    <clipPath id="clip0_320_19068">
      <rect width="48" height="48" fill="white" />
    </clipPath>
  </defs>
</svg>