<svg width="48" height="48" viewBox="0 0 48 48" fill="none" xmlns="http://www.w3.org/2000/svg">
  <g clip-path="url(#clip0_340_2443)">
    <path opacity="0.5"
      d="M47.2067 40.2682C47.5897 38.7345 47.9538 36.5295 45.2909 34.1052C36.9571 26.518 52.1414 24.9113 41.1111 12.2012C34.3865 4.45237 14.3967 -6.84816 9.49886 5.43863C6.52089 12.9092 0.198768 12.3267 0.540674 18.2777C0.75958 22.0885 6.70464 22.5442 4.1553 29.1202C1.55242 35.8342 15.4076 40.1913 18.7514 33.9678C19.6265 32.3391 21.214 27.5722 23.2652 28.9823C28.2072 32.3797 25.1443 41.3032 28.4738 45.4808C32.1829 50.1345 45.199 48.3087 47.2067 40.2682Z"
      fill="url(#paint0_linear_340_2443)" />
    <path opacity="0.1"
      d="M39.5612 9.07149C37.2171 9.00437 30.3246 8.60124 24.3545 6.20528C24.1271 6.11387 23.8732 6.11387 23.6459 6.20528C17.6758 8.60124 10.7833 9.00437 8.43918 9.07149C8.2083 9.07801 7.98798 9.16964 7.82057 9.32876C7.65315 9.48789 7.55047 9.70328 7.53224 9.93353C7.34746 12.2366 6.99458 18.7913 8.37983 24.171C11.8124 37.5008 21.4594 42.9571 23.5832 44.0146C23.7127 44.0792 23.8554 44.1128 24.0002 44.1128C24.1449 44.1128 24.2877 44.0792 24.4172 44.0146C26.541 42.9571 36.188 37.5008 39.6205 24.171C41.0059 18.7912 40.653 12.2366 40.4681 9.93353C40.4499 9.70328 40.3472 9.48789 40.1798 9.32876C40.0124 9.16964 39.7921 9.07801 39.5612 9.07149Z"
      fill="#4B73FF" />
    <path opacity="0.9"
      d="M39.5612 6.82149C37.2171 6.75437 30.3246 6.35124 24.3545 3.95528C24.1271 3.86387 23.8732 3.86387 23.6459 3.95528C17.6758 6.35124 10.7833 6.75437 8.43918 6.82149C8.2083 6.82801 7.98798 6.91964 7.82057 7.07876C7.65315 7.23789 7.55047 7.45328 7.53224 7.68353C7.34746 9.98659 6.99458 16.5413 8.37983 21.921C11.8124 35.2508 21.4594 40.7071 23.5832 41.7646C23.7127 41.8292 23.8554 41.8628 24.0002 41.8628C24.1449 41.8628 24.2877 41.8292 24.4172 41.7646C26.541 40.7071 36.188 35.2508 39.6205 21.921C41.0059 16.5412 40.653 9.98659 40.4681 7.68353C40.4499 7.45328 40.3472 7.23789 40.1798 7.07876C40.0124 6.91964 39.7921 6.82801 39.5612 6.82149Z"
      fill="#1D1E21" />
    <path
      d="M28.6276 35.341C26.7694 37.0745 25.066 38.1854 24.0001 38.7966C22.9341 38.1854 21.2307 37.0745 19.3726 35.341C20.4751 34.0126 22.1382 33.166 24.0001 33.166C25.8619 33.166 27.5251 34.0126 28.6276 35.341Z"
      fill="#1D1E21" />
    <path
      d="M23.9999 39.2651C23.918 39.2651 23.8375 39.2437 23.7666 39.2029C20.7617 37.478 13.4683 32.2839 10.6493 21.3365C9.58705 17.2113 9.63852 12.1699 9.76377 9.53192C9.76925 9.4166 9.8171 9.30735 9.89815 9.22512C9.97921 9.14289 10.0878 9.09347 10.203 9.08633C13.7275 8.86808 18.9536 8.22392 23.8356 6.39505C23.9416 6.3553 24.0584 6.3553 24.1644 6.39505C29.0464 8.22392 34.2725 8.86799 37.7969 9.08633C37.9121 9.09345 38.0207 9.14286 38.1018 9.22509C38.1829 9.30732 38.2307 9.41658 38.2362 9.53192C38.3615 12.1699 38.413 17.2112 37.3506 21.3365C34.5317 32.2839 27.2383 37.4779 24.2334 39.2029C24.1623 39.2436 24.0818 39.2651 23.9999 39.2651ZM10.6819 9.99449C10.5749 12.668 10.5787 17.3031 11.5571 21.1026C14.2166 31.4304 20.9698 36.4606 23.9999 38.2537C27.03 36.4605 33.7832 31.4304 36.4427 21.1026C37.4211 17.3032 37.4249 12.668 37.3179 9.99449C33.783 9.75036 28.7506 9.08614 23.9999 7.33414C19.2493 9.08605 14.2168 9.75036 10.6819 9.99449Z"
      fill="#4B73FF" />
    <path
      d="M24.0001 42.3309C23.7829 42.3311 23.5687 42.281 23.3741 42.1844C22.2937 41.6464 19.452 40.0687 16.409 37.0457C12.5684 33.2304 9.82032 28.5653 8.24091 23.1801C8.22359 23.121 8.21807 23.0591 8.22467 22.9979C8.23127 22.9367 8.24987 22.8774 8.27939 22.8234C8.30891 22.7694 8.34878 22.7217 8.39672 22.6831C8.44467 22.6445 8.49975 22.6157 8.55882 22.5984C8.61789 22.581 8.67979 22.5755 8.74099 22.5821C8.8022 22.5887 8.8615 22.6073 8.91552 22.6368C8.96954 22.6664 9.01721 22.7062 9.05582 22.7542C9.09443 22.8021 9.12321 22.8572 9.14054 22.9163C10.6748 28.148 13.3427 32.678 17.0697 36.3806C20.0158 39.3074 22.7523 40.8276 23.7921 41.3453C23.8566 41.3778 23.9278 41.3947 24.0001 41.3947C24.0724 41.3947 24.1436 41.3778 24.2081 41.3453C25.2968 40.8032 28.1566 39.2086 31.1937 36.1167C35.0494 32.1912 37.7318 27.376 39.1666 21.8044C40.5184 16.555 40.2003 10.207 40.0008 7.72137C39.9918 7.60628 39.9406 7.49857 39.8569 7.419C39.7733 7.33943 39.6632 7.29362 39.5478 7.2904C38.2994 7.25468 35.7559 7.12371 32.7465 6.64887C32.6857 6.63927 32.6274 6.6178 32.5749 6.58566C32.5224 6.55352 32.4767 6.51136 32.4405 6.46158C32.4043 6.4118 32.3782 6.35537 32.3638 6.29552C32.3494 6.23567 32.347 6.17357 32.3566 6.11276C32.3661 6.05196 32.3876 5.99364 32.4198 5.94113C32.4519 5.88863 32.4941 5.84296 32.5438 5.80675C32.5936 5.77054 32.6501 5.74449 32.7099 5.73009C32.7698 5.71569 32.8319 5.71321 32.8927 5.72281C35.8504 6.18959 38.3486 6.31822 39.5746 6.35328C39.921 6.36285 40.2517 6.50022 40.5029 6.73895C40.7541 6.97767 40.9082 7.30088 40.9354 7.64637C41.1386 10.179 41.4616 16.6514 40.0744 22.0382C38.5981 27.7714 35.8352 32.7291 31.8624 36.7737C28.7259 39.9669 25.757 41.6214 24.6261 42.1844C24.4315 42.281 24.2173 42.3311 24.0001 42.3309ZM8.04226 20.8926C7.93362 20.8924 7.8284 20.8546 7.74458 20.7855C7.66076 20.7163 7.60354 20.6203 7.58269 20.5137C6.59082 15.4367 6.89016 9.8239 7.06491 7.64646C7.09211 7.30097 7.24615 6.97775 7.49738 6.73902C7.74861 6.50029 8.07926 6.36293 8.42569 6.35337C11.0118 6.27931 17.6547 5.855 23.4713 3.52062C23.8105 3.38375 24.1897 3.38375 24.5289 3.52062C26.2348 4.20518 28.1665 4.78222 30.2704 5.2355C30.3313 5.24774 30.3891 5.27196 30.4405 5.30675C30.4919 5.34153 30.536 5.38619 30.57 5.43812C30.604 5.49006 30.6274 5.54824 30.6388 5.60928C30.6501 5.67033 30.6492 5.73302 30.6362 5.79372C30.6231 5.85442 30.5981 5.91192 30.5626 5.96287C30.5271 6.01383 30.4819 6.05723 30.4295 6.09056C30.3771 6.12388 30.3186 6.14646 30.2574 6.157C30.1962 6.16753 30.1336 6.1658 30.073 6.1519C27.9174 5.68747 25.9346 5.09487 24.1798 4.39053C24.0645 4.34408 23.9358 4.34408 23.8205 4.39053C17.8639 6.78106 11.0888 7.21484 8.4525 7.29031C8.33709 7.29355 8.22695 7.33937 8.1433 7.41895C8.05965 7.49854 8.00839 7.60626 7.99941 7.72137C7.82776 9.86018 7.53319 15.3709 8.50285 20.3338C8.51614 20.4018 8.51422 20.4718 8.49722 20.5389C8.48022 20.6061 8.44856 20.6686 8.40452 20.722C8.36048 20.7754 8.30516 20.8184 8.24252 20.8479C8.17988 20.8774 8.11149 20.8927 8.04226 20.8926Z"
      fill="#4B73FF" />
    <path
      d="M24 30.7813C29.7095 30.7813 34.3379 26.1528 34.3379 20.4434C34.3379 14.7339 29.7095 10.1055 24 10.1055C18.2905 10.1055 13.6621 14.7339 13.6621 20.4434C13.6621 26.1528 18.2905 30.7813 24 30.7813Z"
      fill="#4B73FF" />
    <path
      d="M29.0697 22.1133C28.3686 24.243 26.3647 25.781 24.0002 25.781C21.6356 25.781 19.6317 24.243 18.9306 22.1133H16.3188C17.0846 25.6523 20.2319 28.3043 24.0002 28.3043C27.7684 28.3043 30.9157 25.6523 31.6815 22.1133H29.0697Z"
      fill="#1D1E21" />
    <path
      d="M23.9999 28.7731C19.407 28.7731 15.6704 25.0365 15.6704 20.4435C15.6704 18.6069 16.2595 16.8633 17.3741 15.4015C17.4111 15.3516 17.4576 15.3096 17.511 15.2778C17.5643 15.2461 17.6235 15.2253 17.6849 15.2165C17.7464 15.2078 17.809 15.2114 17.8691 15.2271C17.9291 15.2428 17.9855 15.2702 18.0349 15.3079C18.0842 15.3455 18.1256 15.3926 18.1567 15.4464C18.1877 15.5001 18.2077 15.5595 18.2156 15.6211C18.2235 15.6827 18.2191 15.7452 18.2026 15.8051C18.1861 15.8649 18.1579 15.9209 18.1196 15.9698C17.1307 17.267 16.6079 18.814 16.6079 20.4435C16.6079 24.5194 19.9239 27.8356 23.9999 27.8356C28.0759 27.8356 31.3919 24.5194 31.3919 20.4435C31.3919 18.8141 30.8692 17.2671 29.8802 15.9698C29.8426 15.9209 29.815 15.865 29.799 15.8054C29.783 15.7457 29.7789 15.6835 29.7871 15.6223C29.7952 15.5611 29.8153 15.5022 29.8463 15.4488C29.8773 15.3954 29.9185 15.3486 29.9676 15.3112C30.0167 15.2738 30.0727 15.2464 30.1324 15.2307C30.1921 15.215 30.2543 15.2112 30.3154 15.2196C30.3766 15.228 30.4355 15.2484 30.4888 15.2796C30.542 15.3108 30.5886 15.3522 30.6258 15.4015C31.7403 16.8634 32.3294 18.6069 32.3294 20.4435C32.3294 25.0365 28.5928 28.7731 23.9999 28.7731Z"
      fill="#4B73FF" />
    <path
      d="M22.8384 23.9601C22.7033 23.9603 22.5695 23.9337 22.4447 23.8821C22.3199 23.8304 22.2065 23.7545 22.1111 23.6589L19.7427 21.2906C19.3411 20.8889 19.3411 20.2379 19.7427 19.8361C20.1443 19.4346 20.7955 19.4345 21.1972 19.8361L22.8384 21.4772L26.803 17.5126C27.2047 17.111 27.8558 17.1111 28.2574 17.5126C28.659 17.9143 28.659 18.5654 28.2574 18.9671L23.5656 23.6588C23.4702 23.7545 23.3568 23.8303 23.232 23.882C23.1072 23.9337 22.9735 23.9603 22.8384 23.9601ZM24 13.9998L23.2833 14.2079C23.2439 14.2194 23.2023 14.2217 23.1619 14.2146C23.1214 14.2076 23.0831 14.1914 23.0499 14.1672C23.0167 14.1431 22.9894 14.1117 22.9702 14.0754C22.951 14.0391 22.9403 13.9989 22.939 13.9578L22.9155 13.2119L22.4961 12.5946C22.473 12.5606 22.458 12.5218 22.4522 12.4812C22.4465 12.4405 22.4501 12.3991 22.4627 12.36C22.4754 12.321 22.4969 12.2853 22.5255 12.2559C22.554 12.2264 22.589 12.2038 22.6276 12.1899L23.3298 11.937L23.7873 11.3474C23.8125 11.3149 23.8447 11.2887 23.8816 11.2706C23.9185 11.2526 23.959 11.2432 24.0001 11.2432C24.0411 11.2432 24.0816 11.2526 24.1185 11.2706C24.1554 11.2887 24.1876 11.3149 24.2128 11.3474L24.6703 11.937L25.3725 12.1899C25.4111 12.2038 25.4461 12.2264 25.4747 12.2559C25.5032 12.2853 25.5247 12.321 25.5374 12.36C25.5501 12.3991 25.5537 12.4405 25.5479 12.4812C25.5421 12.5218 25.5271 12.5606 25.504 12.5946L25.0846 13.2119L25.0611 13.9578C25.0598 13.9989 25.0491 14.0391 25.0299 14.0753C25.0107 14.1116 24.9834 14.143 24.9502 14.1672C24.917 14.1913 24.8787 14.2075 24.8382 14.2146C24.7978 14.2217 24.7563 14.2194 24.7168 14.2079L24 13.9998ZM20.2135 15.3165L19.4968 15.5247C19.4574 15.5361 19.4159 15.5384 19.3754 15.5314C19.335 15.5243 19.2967 15.5081 19.2634 15.4839C19.2302 15.4598 19.2029 15.4284 19.1837 15.3921C19.1645 15.3558 19.1539 15.3156 19.1526 15.2745L19.129 14.5286L18.7096 13.9113C18.6865 13.8773 18.6715 13.8386 18.6658 13.7979C18.66 13.7572 18.6636 13.7158 18.6763 13.6768C18.689 13.6377 18.7104 13.6021 18.739 13.5726C18.7676 13.5431 18.8025 13.5205 18.8411 13.5066L19.5433 13.2538L20.0008 12.6641C20.026 12.6316 20.0583 12.6054 20.0951 12.5873C20.132 12.5693 20.1725 12.5599 20.2136 12.5599C20.2547 12.5599 20.2952 12.5693 20.332 12.5873C20.3689 12.6054 20.4012 12.6316 20.4264 12.6641L20.8839 13.2538L21.586 13.5066C21.6247 13.5205 21.6596 13.5431 21.6882 13.5726C21.7168 13.6021 21.7382 13.6377 21.7509 13.6768C21.7636 13.7158 21.7672 13.7572 21.7614 13.7979C21.7556 13.8386 21.7406 13.8773 21.7176 13.9113L21.2981 14.5286L21.2746 15.2745C21.2733 15.3156 21.2626 15.3558 21.2434 15.3921C21.2242 15.4283 21.1969 15.4597 21.1637 15.4839C21.1305 15.508 21.0922 15.5242 21.0518 15.5313C21.0113 15.5384 20.9698 15.5361 20.9304 15.5247L20.2135 15.3165ZM27.7865 15.3165L27.0698 15.5247C27.0303 15.5361 26.9888 15.5384 26.9483 15.5314C26.9079 15.5243 26.8696 15.5081 26.8364 15.4839C26.8031 15.4598 26.7759 15.4284 26.7567 15.3921C26.7375 15.3558 26.7268 15.3156 26.7255 15.2745L26.702 14.5286L26.2825 13.9113C26.2595 13.8773 26.2445 13.8386 26.2387 13.7979C26.2329 13.7572 26.2365 13.7158 26.2492 13.6768C26.2619 13.6377 26.2834 13.6021 26.3119 13.5726C26.3405 13.5431 26.3754 13.5205 26.4141 13.5066L27.1163 13.2538L27.5738 12.6641C27.5989 12.6316 27.6312 12.6054 27.6681 12.5873C27.705 12.5693 27.7455 12.5599 27.7865 12.5599C27.8276 12.5599 27.8681 12.5693 27.905 12.5873C27.9419 12.6054 27.9741 12.6316 27.9993 12.6641L28.4568 13.2538L29.159 13.5066C29.1976 13.5205 29.2326 13.5431 29.2611 13.5726C29.2897 13.6021 29.3112 13.6377 29.3239 13.6768C29.3365 13.7158 29.3401 13.7572 29.3344 13.7979C29.3286 13.8386 29.3136 13.8773 29.2905 13.9113L28.8711 14.5286L28.8475 15.2745C28.8462 15.3156 28.8356 15.3558 28.8164 15.3921C28.7971 15.4283 28.7699 15.4597 28.7367 15.4839C28.7034 15.508 28.6651 15.5242 28.6247 15.5313C28.5843 15.5384 28.5427 15.5361 28.5033 15.5247L27.7865 15.3165Z"
      fill="#1D1E21" />
    <path
      d="M17.5692 21.0817C17.8431 21.0817 18.0651 20.8597 18.0651 20.5858C18.0651 20.3119 17.8431 20.0898 17.5692 20.0898C17.2953 20.0898 17.0732 20.3119 17.0732 20.5858C17.0732 20.8597 17.2953 21.0817 17.5692 21.0817Z"
      fill="#4B73FF" />
    <path
      d="M30.431 21.0817C30.7049 21.0817 30.9269 20.8597 30.9269 20.5858C30.9269 20.3119 30.7049 20.0898 30.431 20.0898C30.1571 20.0898 29.9351 20.3119 29.9351 20.5858C29.9351 20.8597 30.1571 21.0817 30.431 21.0817Z"
      fill="#4B73FF" />
    <path
      d="M8.25928 39.3157C8.13496 39.3157 8.01573 39.2663 7.92782 39.1784C7.83991 39.0905 7.79053 38.9713 7.79053 38.847C7.79053 38.5626 7.55925 38.3313 7.2749 38.3313C7.15058 38.3313 7.03135 38.2819 6.94345 38.194C6.85554 38.1061 6.80615 37.9869 6.80615 37.8626C6.80615 37.7383 6.85554 37.619 6.94345 37.5311C7.03135 37.4432 7.15058 37.3938 7.2749 37.3938C7.55925 37.3938 7.79053 37.1626 7.79053 36.8782C7.79053 36.7539 7.83991 36.6347 7.92782 36.5467C8.01573 36.4588 8.13496 36.4095 8.25928 36.4095C8.3836 36.4095 8.50283 36.4588 8.59073 36.5467C8.67864 36.6347 8.72803 36.7539 8.72803 36.8782C8.72803 37.1626 8.95931 37.3938 9.24365 37.3938C9.36797 37.3938 9.4872 37.4432 9.57511 37.5311C9.66302 37.619 9.7124 37.7383 9.7124 37.8626C9.7124 37.9869 9.66302 38.1061 9.57511 38.194C9.4872 38.2819 9.36797 38.3313 9.24365 38.3313C9.10695 38.3315 8.97588 38.3859 8.87922 38.4825C8.78255 38.5792 8.72818 38.7103 8.72803 38.847C8.72803 38.9713 8.67864 39.0905 8.59073 39.1784C8.50283 39.2663 8.3836 39.3157 8.25928 39.3157ZM44.1305 7.50108C44.0061 7.50108 43.8869 7.4517 43.799 7.36379C43.7111 7.27588 43.6617 7.15665 43.6617 7.03233C43.6617 6.74799 43.4303 6.51671 43.1461 6.51671C43.0218 6.51671 42.9025 6.46732 42.8146 6.37941C42.7267 6.2915 42.6773 6.17228 42.6773 6.04796C42.6773 5.92364 42.7267 5.80441 42.8146 5.7165C42.9025 5.62859 43.0218 5.57921 43.1461 5.57921C43.4303 5.57921 43.6617 5.34792 43.6617 5.06358C43.6617 4.93926 43.7111 4.82003 43.799 4.73212C43.8869 4.64422 44.0061 4.59483 44.1305 4.59483C44.2548 4.59483 44.374 4.64422 44.4619 4.73212C44.5498 4.82003 44.5992 4.93926 44.5992 5.06358C44.5992 5.34792 44.8306 5.57921 45.1148 5.57921C45.2392 5.57921 45.3584 5.62859 45.4463 5.7165C45.5342 5.80441 45.5836 5.92364 45.5836 6.04796C45.5836 6.17228 45.5342 6.2915 45.4463 6.37941C45.3584 6.46732 45.2392 6.51671 45.1148 6.51671C44.9781 6.51686 44.8471 6.57123 44.7504 6.66789C44.6537 6.76456 44.5994 6.89563 44.5992 7.03233C44.5992 7.15665 44.5498 7.27588 44.4619 7.36379C44.374 7.4517 44.2548 7.50108 44.1305 7.50108ZM8.25928 33.5005C8.13496 33.5005 8.01573 33.4511 7.92782 33.3632C7.83991 33.2753 7.79053 33.1561 7.79053 33.0317C7.79053 32.7474 7.55925 32.5161 7.2749 32.5161C7.15058 32.5161 7.03135 32.4667 6.94345 32.3788C6.85554 32.2909 6.80615 32.1717 6.80615 32.0474C6.80615 31.923 6.85554 31.8038 6.94345 31.7159C7.03135 31.628 7.15058 31.5786 7.2749 31.5786C7.55925 31.5786 7.79053 31.3473 7.79053 31.063C7.79053 30.9387 7.83991 30.8194 7.92782 30.7315C8.01573 30.6436 8.13496 30.5942 8.25928 30.5942C8.3836 30.5942 8.50283 30.6436 8.59073 30.7315C8.67864 30.8194 8.72803 30.9387 8.72803 31.063C8.72803 31.3473 8.95931 31.5786 9.24365 31.5786C9.36797 31.5786 9.4872 31.628 9.57511 31.7159C9.66302 31.8038 9.7124 31.923 9.7124 32.0474C9.7124 32.1717 9.66302 32.2909 9.57511 32.3788C9.4872 32.4667 9.36797 32.5161 9.24365 32.5161C9.10695 32.5163 8.97588 32.5706 8.87922 32.6673C8.78255 32.764 8.72818 32.895 8.72803 33.0317C8.72803 33.1561 8.67864 33.2753 8.59073 33.3632C8.50283 33.4511 8.3836 33.5005 8.25928 33.5005ZM37.7711 4.39224C37.6784 4.39222 37.5878 4.36472 37.5107 4.31321C37.4337 4.2617 37.3736 4.1885 37.3381 4.10286C37.3027 4.01722 37.2934 3.92298 37.3115 3.83207C37.3295 3.74115 37.3742 3.65764 37.4397 3.59208L38.3772 2.65458C38.4655 2.56852 38.5841 2.5207 38.7074 2.52149C38.8307 2.52228 38.9487 2.57162 39.0359 2.6588C39.1231 2.74599 39.1724 2.86401 39.1732 2.9873C39.1739 3.11059 39.1261 3.22922 39.04 3.31749L38.1025 4.25499C38.0591 4.29857 38.0074 4.33313 37.9505 4.35668C37.8936 4.38023 37.8327 4.39232 37.7711 4.39224ZM13.1932 42.8517C13.1005 42.8517 13.0099 42.8242 12.9328 42.7727C12.8558 42.7212 12.7957 42.648 12.7602 42.5623C12.7247 42.4767 12.7154 42.3825 12.7335 42.2915C12.7516 42.2006 12.7962 42.1171 12.8617 42.0515L13.7992 41.114C13.8878 41.0291 14.006 40.9822 14.1287 40.9834C14.2514 40.9847 14.3687 41.034 14.4554 41.1207C14.5422 41.2075 14.5915 41.3248 14.5927 41.4475C14.594 41.5701 14.5471 41.6884 14.4622 41.7769L13.5247 42.7144C13.4812 42.758 13.4295 42.7926 13.3726 42.8161C13.3158 42.8397 13.2548 42.8518 13.1932 42.8517Z"
      fill="#4B73FF" />
  </g>
  <defs>
    <linearGradient id="paint0_linear_340_2443" x1="11.3629" y1="40.1437" x2="40.2489" y2="11.2577"
      gradientUnits="userSpaceOnUse">
      <stop stop-color="#4B73FF" stop-opacity="0" />
      <stop offset="1" stop-color="#4B73FF" />
    </linearGradient>
    <clipPath id="clip0_340_2443">
      <rect width="48" height="48" fill="white" />
    </clipPath>
  </defs>
</svg>