<svg width="48" height="48" viewBox="0 0 48 48" fill="none" xmlns="http://www.w3.org/2000/svg">
  <path opacity="0.5"
    d="M39.3603 19.2006C39.4604 18.4628 39.5077 17.7187 39.5017 16.9742C39.4369 8.53435 32.5403 1.64738 24.1004 1.59385C15.4928 1.53938 8.49778 8.50069 8.49778 17.0958C8.49778 17.8097 8.54616 18.5123 8.63962 19.2005C9.01866 21.9893 7.71272 24.7451 5.3385 26.2564C1.99997 28.3815 0 31.0883 0 34.0358C0 40.8679 10.7452 46.4064 24 46.4064C37.2548 46.4064 48 40.8679 48 34.0358C48 31.0883 46 28.3815 42.6613 26.2564C40.2871 24.7451 38.9812 21.9893 39.3603 19.2006Z"
    fill="url(#paint0_linear_320_19124)" />
  <path opacity="0.9"
    d="M41.9398 32.8923C41.8783 32.8924 41.8173 32.8803 41.7604 32.8567C41.7035 32.8331 41.6519 32.7986 41.6084 32.7549L40.5772 31.7237C40.5336 31.6802 40.4991 31.6285 40.4755 31.5717C40.452 31.5148 40.4399 31.4538 40.4399 31.3923C40.4399 31.3307 40.452 31.2698 40.4755 31.2129C40.4991 31.1561 40.5336 31.1044 40.5772 31.0609L41.6084 30.0296C41.6519 29.9861 41.7036 29.9516 41.7605 29.928C41.8173 29.9044 41.8783 29.8923 41.9398 29.8923C42.0014 29.8923 42.0623 29.9044 42.1192 29.928C42.1761 29.9516 42.2277 29.9861 42.2712 30.0296L43.3025 31.0609C43.346 31.1044 43.3806 31.1561 43.4041 31.2129C43.4277 31.2698 43.4398 31.3307 43.4398 31.3923C43.4398 31.4538 43.4277 31.5148 43.4041 31.5717C43.3806 31.6285 43.346 31.6802 43.3025 31.7237L42.2712 32.7549C42.2278 32.7985 42.1761 32.8331 42.1192 32.8567C42.0624 32.8803 42.0014 32.8924 41.9398 32.8923ZM41.5716 31.3923L41.9399 31.7606L42.3083 31.3923L41.9399 31.0239L41.5716 31.3923ZM39.9798 7.63744C39.9182 7.63753 39.8573 7.62544 39.8004 7.60187C39.7435 7.5783 39.6918 7.54371 39.6484 7.5001L38.6171 6.46885C38.5736 6.42534 38.5391 6.37367 38.5155 6.31681C38.492 6.25995 38.4798 6.199 38.4798 6.13744C38.4798 6.07589 38.492 6.01494 38.5155 5.95808C38.5391 5.90122 38.5736 5.84955 38.6171 5.80604L39.6484 4.77479C39.6919 4.73125 39.7436 4.69672 39.8004 4.67316C39.8573 4.64959 39.9182 4.63747 39.9798 4.63747C40.0414 4.63747 40.1023 4.64959 40.1592 4.67316C40.216 4.69672 40.2677 4.73125 40.3112 4.77479L41.3425 5.80604C41.386 5.84955 41.4205 5.90122 41.4441 5.95808C41.4677 6.01494 41.4798 6.07589 41.4798 6.13744C41.4798 6.199 41.4677 6.25995 41.4441 6.31681C41.4205 6.37367 41.386 6.42534 41.3425 6.46885L40.3112 7.5001C40.2677 7.5437 40.2161 7.57827 40.1592 7.60184C40.1023 7.62541 40.0414 7.63751 39.9798 7.63744ZM39.6115 6.13744L39.9798 6.50579L40.3481 6.13744L39.9798 5.7691L39.6115 6.13744ZM6.08768 17.1797C6.02612 17.1798 5.96515 17.1677 5.90828 17.1441C5.85141 17.1206 5.79975 17.086 5.75627 17.0424L4.69755 15.9838C4.60967 15.8959 4.5603 15.7767 4.5603 15.6524C4.5603 15.5281 4.60967 15.4088 4.69755 15.3209L5.75627 14.2622C5.79976 14.2186 5.85142 14.184 5.9083 14.1604C5.96518 14.1368 6.02615 14.1247 6.08773 14.1247C6.1493 14.1247 6.21028 14.1368 6.26715 14.1604C6.32403 14.184 6.37569 14.2186 6.41918 14.2622L7.4778 15.3209C7.52132 15.3644 7.55584 15.4161 7.57939 15.473C7.60293 15.5298 7.61505 15.5908 7.61504 15.6523C7.61503 15.7139 7.6029 15.7748 7.57934 15.8317C7.55577 15.8886 7.52124 15.9402 7.47771 15.9837L6.41909 17.0423C6.37563 17.086 6.32397 17.1205 6.2671 17.1441C6.21022 17.1677 6.14925 17.1798 6.08768 17.1797ZM5.69187 15.6523L6.08768 16.048L6.4834 15.6523L6.08768 15.2565L5.69187 15.6523ZM39.9798 28.0214C39.3071 28.0214 38.7599 27.4742 38.7599 26.8015C38.7599 26.1289 39.3071 25.5817 39.9798 25.5817C40.6525 25.5817 41.1997 26.1289 41.1997 26.8015C41.1997 27.4742 40.6525 28.0214 39.9798 28.0214ZM39.9798 26.5192C39.8241 26.5192 39.6974 26.6458 39.6974 26.8015C39.6974 26.9573 39.824 27.0839 39.9798 27.0839C40.1355 27.0839 40.2622 26.9573 40.2622 26.8015C40.2622 26.6458 40.1355 26.5192 39.9798 26.5192ZM8.55143 23.4505C7.87877 23.4505 7.33155 22.9033 7.33155 22.2307C7.33155 21.558 7.87877 21.0107 8.55143 21.0107C9.22408 21.0107 9.7713 21.558 9.7713 22.2307C9.7713 22.9033 9.22408 23.4505 8.55143 23.4505ZM8.55143 21.9482C8.47654 21.9483 8.40475 21.9781 8.35181 22.031C8.29887 22.084 8.2691 22.1558 8.26905 22.2307C8.26905 22.3864 8.39571 22.513 8.55143 22.513C8.70715 22.513 8.8338 22.3864 8.8338 22.2307C8.8338 22.0749 8.70715 21.9482 8.55143 21.9482Z"
    fill="#4B73FF" />
  <path opacity="0.1"
    d="M12.8247 43.6567C12.8247 44.7348 13.6994 45.6095 14.7785 45.6095H34.1022C35.1813 45.6095 36.056 44.7348 36.056 43.6567V6.87479C36.056 5.79666 35.1813 4.92197 34.1022 4.92197H14.7785C13.6994 4.92197 12.8247 5.79666 12.8247 6.87479V43.6567Z"
    fill="#4B73FF" />
  <path opacity="0.9"
    d="M36.0562 4.34344V41.1253C36.0562 42.2034 35.1815 43.0781 34.1025 43.0781H14.7787C13.6996 43.0781 12.825 42.2034 12.825 41.1253V4.34344C12.825 3.26531 13.6996 2.39062 14.7787 2.39062H34.1025C35.1815 2.39062 36.0562 3.26531 36.0562 4.34344Z"
    fill="#2A2B2F" />
  <path
    d="M12.8247 20.4375V41.1253C12.8247 42.2034 13.6994 43.0781 14.7785 43.0781H34.1022C35.1813 43.0781 36.056 42.2034 36.056 41.1253V20.4375H12.8247ZM30.7729 5.01619L31.5653 2.39053H17.3153L18.1078 5.01619C18.166 5.20894 18.2847 5.37783 18.4463 5.49788C18.6079 5.61792 18.8039 5.68275 19.0053 5.68275H29.8752C30.0766 5.68279 30.2726 5.61798 30.4343 5.49793C30.5959 5.37788 30.7147 5.20897 30.7729 5.01619Z"
    fill="#1D1E21" />
  <path
    d="M36.056 26.7188C36.1803 26.7188 36.2996 26.6694 36.3875 26.5815C36.4754 26.4936 36.5248 26.3743 36.5248 26.25V4.34391C36.5248 3.00835 35.4382 1.92178 34.1026 1.92178H31.5655C31.4648 1.92178 31.3668 1.9542 31.286 2.01425C31.2051 2.07429 31.1458 2.15876 31.1167 2.25516L30.3242 4.88072C30.2956 4.97734 30.2363 5.06206 30.1554 5.12217C30.0745 5.18227 29.9763 5.21453 29.8755 5.2141H19.0055C18.9047 5.21456 18.8065 5.18232 18.7256 5.1222C18.6447 5.06209 18.5855 4.97736 18.5568 4.88072L17.9466 2.85928H28.4023C28.6612 2.85928 28.871 2.64947 28.871 2.39053C28.871 2.1316 28.6612 1.92178 28.4023 1.92178H14.7782C13.4428 1.92178 12.3562 3.00835 12.3562 4.34391V41.1251C12.3562 42.4606 13.4428 43.5472 14.7782 43.5472H34.1026C35.4382 43.5472 36.5248 42.4606 36.5248 41.1251V29.4375C36.5248 29.1786 36.315 28.9688 36.056 28.9688C35.7971 28.9688 35.5873 29.1786 35.5873 29.4375V41.1251C35.5873 41.9437 34.9213 42.6097 34.1026 42.6097H14.7782C13.9597 42.6097 13.2937 41.9437 13.2937 41.1251V4.34391C13.2937 3.52528 13.9597 2.85928 14.7782 2.85928H16.9672L17.6592 5.15156C17.8396 5.74969 18.3806 6.1515 19.0054 6.1515H29.8754C30.5 6.1515 31.0411 5.74969 31.2216 5.15156L31.9135 2.85928H34.1025C34.9212 2.85928 35.5872 3.52528 35.5872 4.34391V26.25C35.5872 26.3116 35.5993 26.3725 35.6229 26.4294C35.6464 26.4863 35.681 26.538 35.7245 26.5815C35.768 26.625 35.8197 26.6595 35.8766 26.6831C35.9335 26.7066 35.9944 26.7188 36.056 26.7188Z"
    fill="#4B73FF" />
  <path
    d="M19.8612 4.0366C19.8604 3.9763 19.8715 3.91642 19.894 3.86046C19.9165 3.80449 19.9498 3.75356 19.9922 3.71061C20.0345 3.66766 20.085 3.63355 20.1406 3.61027C20.1962 3.58699 20.2559 3.575 20.3162 3.575C20.3766 3.575 20.4363 3.58699 20.4919 3.61027C20.5475 3.63355 20.598 3.66766 20.6403 3.71061C20.6827 3.75356 20.716 3.80449 20.7385 3.86046C20.761 3.91642 20.7721 3.9763 20.7713 4.0366C20.7695 4.15614 20.7209 4.27021 20.6357 4.35415C20.5506 4.43808 20.4358 4.48513 20.3162 4.48513C20.1967 4.48513 20.0819 4.43808 19.9968 4.35415C19.9116 4.27021 19.8629 4.15614 19.8612 4.0366ZM21.3917 4.0366C21.3908 3.9763 21.402 3.91642 21.4244 3.86046C21.4469 3.80449 21.4803 3.75356 21.5226 3.71061C21.565 3.66766 21.6154 3.63355 21.6711 3.61027C21.7267 3.58699 21.7864 3.575 21.8467 3.575C21.907 3.575 21.9667 3.58699 22.0224 3.61027C22.078 3.63355 22.1285 3.66766 22.1708 3.71061C22.2131 3.75356 22.2465 3.80449 22.269 3.86046C22.2915 3.91642 22.3026 3.9763 22.3017 4.0366C22.3 4.15614 22.2513 4.27021 22.1662 4.35415C22.081 4.43808 21.9663 4.48513 21.8467 4.48513C21.7272 4.48513 21.6124 4.43808 21.5273 4.35415C21.4421 4.27021 21.3934 4.15614 21.3917 4.0366ZM28.2468 4.49166H24.7591C24.6448 4.48929 24.536 4.44224 24.4561 4.36058C24.3761 4.27893 24.3313 4.16918 24.3313 4.05488C24.3313 3.94058 24.3761 3.83083 24.4561 3.74918C24.536 3.66752 24.6448 3.62047 24.7591 3.6181H28.2468C28.3611 3.62047 28.4699 3.66752 28.5498 3.74918C28.6298 3.83083 28.6746 3.94058 28.6746 4.05488C28.6746 4.16918 28.6298 4.27893 28.5498 4.36058C28.4699 4.44224 28.3611 4.48929 28.2468 4.49166ZM19.3217 15.5225H29.5594C29.6737 15.5248 29.7825 15.5719 29.8624 15.6536C29.9424 15.7352 29.9872 15.845 29.9872 15.9593C29.9872 16.0736 29.9424 16.1833 29.8624 16.265C29.7825 16.3466 29.6737 16.3937 29.5594 16.396H19.3217C19.2074 16.3937 19.0986 16.3466 19.0186 16.265C18.9387 16.1833 18.8939 16.0736 18.8939 15.9593C18.8939 15.845 18.9387 15.7352 19.0186 15.6536C19.0986 15.5719 19.2074 15.5248 19.3217 15.5225ZM20.3061 17.2858H28.575C28.6893 17.2882 28.7981 17.3352 28.8781 17.4169C28.958 17.4986 29.0028 17.6083 29.0028 17.7226C29.0028 17.8369 28.958 17.9466 28.8781 18.0283C28.7981 18.11 28.6893 18.157 28.575 18.1594H20.3061C20.1918 18.157 20.083 18.11 20.003 18.0283C19.923 17.9466 19.8782 17.8369 19.8782 17.7226C19.8782 17.6083 19.923 17.4986 20.003 17.4169C20.083 17.3352 20.1918 17.2882 20.3061 17.2858ZM22.1342 8.15644H26.7469C26.8612 8.15881 26.97 8.20587 27.0499 8.28752C27.1299 8.36918 27.1747 8.47892 27.1747 8.59322C27.1747 8.70752 27.1299 8.81727 27.0499 8.89892C26.97 8.98058 26.8612 9.02764 26.7469 9.03H22.1342C22.0199 9.02764 21.9111 8.98058 21.8311 8.89892C21.7512 8.81727 21.7064 8.70752 21.7064 8.59322C21.7064 8.47892 21.7512 8.36918 21.8311 8.28752C21.9111 8.20587 22.0199 8.15881 22.1342 8.15644ZM17.4939 25.4208C17.3976 25.4208 17.3037 25.3912 17.2248 25.336C17.1459 25.2808 17.0859 25.2026 17.0531 25.112C17.0202 25.0215 17.016 24.9231 17.041 24.8301C17.0661 24.7371 17.1192 24.6541 17.1931 24.5923C18.97 23.1073 21.2327 22.2895 23.564 22.2895C25.1524 22.2895 26.7371 22.6763 28.1469 23.4083C28.621 23.6544 29.0747 23.9381 29.5036 24.2566C29.553 24.2933 29.5947 24.3394 29.6263 24.3923C29.6579 24.4451 29.6787 24.5037 29.6877 24.5646C29.6966 24.6255 29.6935 24.6875 29.6785 24.7472C29.6634 24.8069 29.6368 24.8631 29.6001 24.9125C29.5633 24.9619 29.5172 25.0036 29.4644 25.0351C29.4116 25.0667 29.353 25.0876 29.2921 25.0965C29.2312 25.1055 29.1691 25.1024 29.1094 25.0873C29.0497 25.0723 28.9936 25.0457 28.9442 25.0089C28.5556 24.7203 28.1445 24.4633 27.7149 24.2403C26.4321 23.576 25.0088 23.2285 23.5641 23.227C21.4521 23.227 19.403 23.9675 17.7943 25.3118C17.7101 25.3823 17.6038 25.4209 17.4939 25.4208ZM31.6897 27.2471L31.6968 27.2408C31.8714 27.0872 31.9083 26.8279 31.7783 26.6349C31.6436 26.4349 31.5014 26.24 31.3519 26.0507C31.198 25.8563 30.9195 25.7932 30.7123 25.9294C30.6577 25.9651 30.6111 26.0118 30.5756 26.0665C30.54 26.1212 30.5163 26.1827 30.5059 26.2472C30.4955 26.3116 30.4987 26.3775 30.5152 26.4406C30.5317 26.5037 30.5613 26.5627 30.6019 26.6138C30.7427 26.791 30.8767 26.9735 31.0036 27.161C31.1589 27.3904 31.4818 27.4301 31.6897 27.2471Z"
    fill="#4B73FF" />
  <path
    d="M30.309 36.2031C30.2285 36.203 30.1494 36.1822 30.0792 36.1427C30.0091 36.1032 29.9503 36.0463 29.9086 35.9775C29.8668 35.9087 29.8435 35.8303 29.8408 35.7499C29.8381 35.6694 29.8562 35.5896 29.8933 35.5182C31.7046 32.0285 30.3396 27.7156 26.8505 25.9043C25.8348 25.378 24.7078 25.1029 23.564 25.1019C21.2971 25.1019 19.2213 26.1366 17.8686 27.9406C17.8318 27.9899 17.7855 28.0314 17.7325 28.0628C17.6796 28.0942 17.621 28.1148 17.56 28.1235C17.4991 28.1323 17.437 28.1289 17.3774 28.1136C17.3178 28.0983 17.2617 28.0714 17.2125 28.0344C17.1632 27.9975 17.1217 27.9513 17.0904 27.8983C17.059 27.8454 17.0383 27.7867 17.0296 27.7258C17.0209 27.6649 17.0243 27.6028 17.0396 27.5432C17.0548 27.4836 17.0817 27.4275 17.1186 27.3783C18.65 25.3358 20.9992 24.1644 23.564 24.1644C24.8537 24.1644 26.1396 24.4784 27.2826 25.0723C31.2302 27.1218 32.7747 32.0016 30.7253 35.9501C30.6858 36.0264 30.6261 36.0904 30.5526 36.135C30.4792 36.1796 30.3949 36.2032 30.309 36.2031Z"
    fill="#4B73FF" />
  <path
    d="M29.288 38.4909C29.1724 38.4911 29.0609 38.4483 28.975 38.3709C27.3813 36.9396 28.1726 34.7939 28.2071 34.7032C28.2135 34.6864 28.2209 34.67 28.2292 34.6539C29.5641 32.0821 28.5583 28.9035 25.987 27.5684C25.2382 27.1804 24.4073 26.9777 23.5639 26.977C21.5933 26.977 19.8061 28.063 18.8997 29.8113C18.635 30.3217 18.2795 30.8282 17.8432 31.3167C17.7597 31.4068 17.6442 31.4605 17.5215 31.4663C17.3988 31.4721 17.2787 31.4295 17.1871 31.3477C17.0954 31.2659 17.0396 31.1514 17.0315 31.0288C17.0235 30.9062 17.0638 30.7854 17.1439 30.6922C17.5281 30.262 17.8388 29.8204 18.0675 29.3797C19.1356 27.3193 21.2417 26.0394 23.5639 26.0394C24.5577 26.0402 25.5368 26.2792 26.4191 26.7364C29.4396 28.3046 30.6269 32.0319 29.0758 35.0576C29.006 35.259 28.5465 36.7261 29.6013 37.6734C29.672 37.7368 29.7217 37.8201 29.744 37.9123C29.7662 38.0046 29.7599 38.1014 29.726 38.19C29.692 38.2786 29.632 38.3548 29.5538 38.4085C29.4756 38.4623 29.3829 38.491 29.288 38.4909Z"
    fill="#4B73FF" />
  <path
    d="M27.4135 40.1018C27.293 40.1019 27.177 40.0554 27.0899 39.972C25.0074 37.9837 25.8361 35.0597 26.5697 33.7817C27.4214 32.1286 26.7737 30.0896 25.1227 29.2325C24.6411 28.9834 24.1071 28.853 23.5649 28.852C22.3929 28.852 21.3227 29.4428 20.7023 30.4325C20.6696 30.4846 20.6269 30.5298 20.5767 30.5655C20.5266 30.6011 20.4699 30.6266 20.4098 30.6403C20.3498 30.6541 20.2877 30.6559 20.227 30.6456C20.1663 30.6354 20.1082 30.6133 20.0561 30.5805C20.0039 30.5478 19.9587 30.5052 19.9231 30.455C19.8874 30.4048 19.862 30.3481 19.8482 30.2881C19.8345 30.2281 19.8327 30.166 19.8429 30.1053C19.8532 30.0446 19.8753 29.9865 19.908 29.9344C20.701 28.6696 22.0681 27.9144 23.565 27.9144C24.2574 27.9155 24.9395 28.082 25.5544 28.4002C27.6673 29.4972 28.4939 32.1089 27.3974 34.2223C27.3942 34.2285 27.3908 34.2347 27.3873 34.2408C27.3832 34.248 26.9335 35.0417 26.7656 36.0739C26.5515 37.3905 26.8785 38.4739 27.7375 39.294C27.8052 39.3587 27.852 39.4421 27.8718 39.5337C27.8917 39.6252 27.8836 39.7205 27.8488 39.8075C27.8139 39.8944 27.7538 39.9689 27.6763 40.0213C27.5987 40.0738 27.5072 40.1018 27.4135 40.1018ZM17.494 34.0467C17.3969 34.0469 17.3022 34.0169 17.2229 33.9609C17.1437 33.9049 17.0837 33.8257 17.0514 33.7342C17.0191 33.6427 17.016 33.5434 17.0425 33.4501C17.069 33.3567 17.1239 33.2739 17.1995 33.2131C17.77 32.7532 18.2812 32.2568 18.7185 31.738C18.7988 31.6433 18.9133 31.5843 19.0369 31.574C19.1606 31.5636 19.2834 31.6027 19.3783 31.6827C19.4732 31.7626 19.5325 31.877 19.5432 32.0007C19.5539 32.1243 19.5151 32.2471 19.4353 32.3422C18.9593 32.9068 18.405 33.4455 17.7878 33.9429C17.7046 34.0102 17.6009 34.0468 17.494 34.0467ZM25.3457 40.4536C25.2669 40.4537 25.1893 40.4339 25.1202 40.3961C25.051 40.3582 24.9925 40.3035 24.9502 40.237C24.6634 39.7882 24.4331 39.1731 24.2782 38.6861C23.9022 39.0443 23.5123 39.3876 23.1095 39.7153C23.0618 39.7542 23.0068 39.7833 22.9479 39.8009C22.8889 39.8185 22.827 39.8244 22.7658 39.8181C22.7045 39.8118 22.6451 39.7935 22.591 39.7642C22.5368 39.7349 22.489 39.6953 22.4501 39.6475C22.4113 39.5998 22.3822 39.5449 22.3646 39.4859C22.347 39.4269 22.3411 39.365 22.3474 39.3038C22.3537 39.2426 22.372 39.1832 22.4013 39.129C22.4305 39.0749 22.4702 39.027 22.5179 38.9882C23.1004 38.5144 23.6541 38.0063 24.1761 37.4666C24.2346 37.406 24.3083 37.3623 24.3896 37.3401C24.4708 37.3178 24.5565 37.3179 24.6377 37.3402C24.7189 37.3626 24.7926 37.4064 24.851 37.4671C24.9094 37.5278 24.9504 37.6031 24.9697 37.6851C24.9728 37.6984 25.2876 39.0235 25.7404 39.7324C25.7857 39.8032 25.8111 39.8849 25.8139 39.9689C25.8168 40.0529 25.797 40.1361 25.7566 40.2099C25.7163 40.2836 25.6569 40.3451 25.5846 40.388C25.5123 40.4309 25.4298 40.4535 25.3457 40.4536Z"
    fill="#4B73FF" />
  <path
    d="M20.6072 39.2192C20.5082 39.2193 20.4117 39.188 20.3316 39.1299C20.2515 39.0718 20.1918 38.9898 20.1611 38.8957C20.1305 38.8016 20.1304 38.7002 20.1609 38.606C20.1914 38.5119 20.2509 38.4298 20.3309 38.3715C21.7452 37.3414 23.7115 35.5734 25.0465 33.0021C25.4705 32.1848 25.1511 31.1751 24.3344 30.7513C24.0966 30.6281 23.8328 30.5635 23.565 30.563C22.9382 30.563 22.3702 30.9079 22.0828 31.463C20.8047 33.9241 18.6265 35.5165 17.7492 36.0869C17.6976 36.1205 17.6399 36.1436 17.5794 36.1549C17.5189 36.1661 17.4567 36.1654 17.3965 36.1526C17.3363 36.1398 17.2791 36.1153 17.2284 36.0805C17.1776 36.0456 17.1343 36.0011 17.1007 35.9495C17.0672 35.8979 17.0441 35.8402 17.0328 35.7796C17.0215 35.7191 17.0223 35.657 17.0351 35.5968C17.0478 35.5365 17.0724 35.4794 17.1072 35.4287C17.142 35.3779 17.1866 35.3345 17.2382 35.301C18.053 34.771 20.0755 33.2942 21.2505 31.0313C21.6994 30.1643 22.5862 29.6255 23.565 29.6255C23.9804 29.6255 24.3956 29.727 24.766 29.9191C26.0417 30.581 26.5407 32.1577 25.8785 33.4339C24.4594 36.1673 22.3785 38.0398 20.8827 39.1294C20.8027 39.1878 20.7062 39.2193 20.6072 39.2192Z"
    fill="#4B73FF" />
  <path
    d="M17.9629 38.491C17.8588 38.4911 17.7576 38.4566 17.6753 38.3928C17.593 38.329 17.5343 38.2396 17.5084 38.1388C17.4825 38.0379 17.4909 37.9313 17.5323 37.8357C17.5737 37.7402 17.6458 37.6612 17.7371 37.6111C17.7897 37.582 21.4388 35.5379 23.4044 31.7516C23.4324 31.6964 23.4711 31.6472 23.5182 31.607C23.5653 31.5667 23.6199 31.5363 23.6789 31.5173C23.7379 31.4983 23.8 31.4912 23.8618 31.4963C23.9235 31.5015 23.9836 31.5189 24.0386 31.5474C24.0936 31.5759 24.1423 31.6151 24.1821 31.6626C24.2219 31.7101 24.2518 31.765 24.2702 31.8242C24.2886 31.8833 24.2951 31.9456 24.2893 32.0072C24.2835 32.0689 24.2656 32.1288 24.2365 32.1835C22.1313 36.2387 18.3478 38.3455 18.1877 38.4332C18.1189 38.4711 18.0415 38.491 17.9629 38.491Z"
    fill="#4B73FF" />
  <path
    d="M28.9456 13.9391H19.9355C19.861 13.9391 19.7894 13.9095 19.7367 13.8568C19.6839 13.804 19.6543 13.7325 19.6543 13.6579V11.1099C19.6543 11.0353 19.6839 10.9638 19.7367 10.9111C19.7894 10.8583 19.861 10.8287 19.9355 10.8287H28.9456C29.0202 10.8287 29.0917 10.8583 29.1445 10.9111C29.1972 10.9638 29.2268 11.0353 29.2268 11.1099V13.6579C29.2268 13.7325 29.1972 13.804 29.1445 13.8568C29.0917 13.9095 29.0202 13.9391 28.9456 13.9391Z"
    fill="#4B73FF" />
  <path
    d="M32.2491 21.9649C33.0926 21.9649 33.7764 21.281 33.7764 20.4375C33.7764 19.594 33.0926 18.9101 32.2491 18.9101C31.4055 18.9101 30.7217 19.594 30.7217 20.4375C30.7217 21.281 31.4055 21.9649 32.2491 21.9649Z"
    fill="#1D1E21" />
  <path
    d="M32.2491 21.9649C33.0926 21.9649 33.7764 21.281 33.7764 20.4375C33.7764 19.594 33.0926 18.9101 32.2491 18.9101C31.4055 18.9101 30.7217 19.594 30.7217 20.4375C30.7217 21.281 31.4055 21.9649 32.2491 21.9649Z"
    fill="#4B73FF" stroke="#4B73FF" stroke-width="10" stroke-miterlimit="10" stroke-linecap="round"
    stroke-linejoin="round" />
  <defs>
    <linearGradient id="paint0_linear_320_19124" x1="35.1899" y1="61.9218" x2="11.565" y2="3.04697"
      gradientUnits="userSpaceOnUse">
      <stop stop-color="#4B73FF" stop-opacity="0" />
      <stop offset="1" stop-color="#4B73FF" />
    </linearGradient>
  </defs>
</svg>