<svg width="48" height="48" viewBox="0 0 48 48" fill="none" xmlns="http://www.w3.org/2000/svg">
  <g clip-path="url(#clip0_340_2365)">
    <path opacity="0.5"
      d="M5.76818 3.63373C-2.4776 8.5977 -2.80357 36.4357 10.8612 25.0257C17.4338 19.5376 18.3529 27.2312 22.6879 23.273C23.9254 22.143 24.9503 19.6283 26.7063 20.1511C33.6851 22.2288 22.8554 29.6738 20.6767 33.2709C17.1131 39.1541 23.1671 45.5464 29.7014 44.5133C33.5891 43.8987 35.0505 39.7965 40.6717 40.7964C44.5931 41.494 48.9648 38.4392 47.8122 34.7257C46.1164 29.2619 39.7543 25.1527 40.3637 18.9897C40.8539 14.0319 37.6114 6.55517 33.772 5.91955C27.6773 4.91051 20.9092 17.3968 17.4379 7.93705C16.1201 4.34586 12.0113 8.06239 10.6421 6.26361C9.24058 4.42189 8.11521 2.22083 5.76818 3.63373Z"
      fill="url(#paint0_linear_340_2365)" />
    <path
      d="M28.7623 34.6631V41.9531H19.2373V34.6631H22.4098V37.5121C22.4098 38.0299 22.8295 38.4496 23.3473 38.4496H24.6523C25.1701 38.4496 25.5898 38.0299 25.5898 37.5121V34.6631H28.7623Z"
      fill="#1D1E21" />
    <path
      d="M42.7865 11.0557V34.5007C42.7865 35.0182 42.3665 35.4382 41.849 35.4382H6.15088C5.63338 35.4382 5.21338 35.0182 5.21338 34.5007V11.0557C5.21338 10.5382 5.63338 10.1182 6.15088 10.1182H41.849C42.3665 10.1182 42.7865 10.5382 42.7865 11.0557Z"
      fill="#1D1E21" />
    <path
      d="M33.7312 28.3997H14.269C13.7513 28.3997 13.3315 27.98 13.3315 27.4622V24.8447C13.3315 24.3269 13.7513 23.9072 14.269 23.9072H33.7313C34.249 23.9072 34.6688 24.3269 34.6688 24.8447V27.4622C34.6687 27.98 34.2489 28.3997 33.7312 28.3997ZM33.7312 22.0501H14.269C13.7513 22.0501 13.3315 21.6304 13.3315 21.1126V18.4951C13.3315 17.9773 13.7513 17.5576 14.269 17.5576H33.7313C34.249 17.5576 34.6688 17.9773 34.6688 18.4951V21.1126C34.6687 21.6304 34.2489 22.0501 33.7312 22.0501Z"
      fill="#4B73FF" />
    <path
      d="M15.9956 20.4131C16.3322 20.4131 16.605 20.1403 16.605 19.8037C16.605 19.4672 16.3322 19.1943 15.9956 19.1943C15.6591 19.1943 15.3862 19.4672 15.3862 19.8037C15.3862 20.1403 15.6591 20.4131 15.9956 20.4131Z"
      fill="#1D1E21" />
    <path
      d="M18.6636 20.4131C19.0001 20.4131 19.2729 20.1403 19.2729 19.8037C19.2729 19.4672 19.0001 19.1943 18.6636 19.1943C18.327 19.1943 18.0542 19.4672 18.0542 19.8037C18.0542 20.1403 18.327 20.4131 18.6636 20.4131Z"
      fill="#1D1E21" />
    <path
      d="M21.332 20.4131C21.6686 20.4131 21.9414 20.1403 21.9414 19.8037C21.9414 19.4672 21.6686 19.1943 21.332 19.1943C20.9955 19.1943 20.7227 19.4672 20.7227 19.8037C20.7227 20.1403 20.9955 20.4131 21.332 20.4131Z"
      fill="#1D1E21" />
    <path
      d="M24 20.4131C24.3365 20.4131 24.6094 20.1403 24.6094 19.8037C24.6094 19.4672 24.3365 19.1943 24 19.1943C23.6635 19.1943 23.3906 19.4672 23.3906 19.8037C23.3906 20.1403 23.6635 20.4131 24 20.4131Z"
      fill="#1D1E21" />
    <path
      d="M26.668 20.4131C27.0045 20.4131 27.2773 20.1403 27.2773 19.8037C27.2773 19.4672 27.0045 19.1943 26.668 19.1943C26.3314 19.1943 26.0586 19.4672 26.0586 19.8037C26.0586 20.1403 26.3314 20.4131 26.668 20.4131Z"
      fill="#1D1E21" />
    <path
      d="M29.3364 20.4131C29.673 20.4131 29.9458 20.1403 29.9458 19.8037C29.9458 19.4672 29.673 19.1943 29.3364 19.1943C28.9999 19.1943 28.7271 19.4672 28.7271 19.8037C28.7271 20.1403 28.9999 20.4131 29.3364 20.4131Z"
      fill="#1D1E21" />
    <path
      d="M32.0044 20.4131C32.3409 20.4131 32.6138 20.1403 32.6138 19.8037C32.6138 19.4672 32.3409 19.1943 32.0044 19.1943C31.6678 19.1943 31.395 19.4672 31.395 19.8037C31.395 20.1403 31.6678 20.4131 32.0044 20.4131Z"
      fill="#1D1E21" />
    <path
      d="M41.8492 35.4387H6.15088C5.6331 35.4387 5.21338 35.019 5.21338 34.5012V30.9043H42.7868V34.5012C42.7867 35.019 42.367 35.4387 41.8492 35.4387Z"
      fill="#4B73FF" />
    <path
      d="M31.1537 4.62256C29.9566 4.68865 26.6571 4.70918 24.2508 3.18884C24.1759 3.1414 24.089 3.11621 24.0003 3.11621C23.9116 3.11621 23.8247 3.1414 23.7497 3.18884C21.3435 4.70928 18.0439 4.68865 16.8468 4.62256C16.7236 4.6156 16.6025 4.65766 16.5101 4.73957C16.4177 4.82148 16.3615 4.93659 16.3536 5.05981C16.2827 6.16943 16.1785 9.03134 16.7645 11.436C18.3979 18.1388 23.2769 19.1361 23.9281 19.2402C23.9759 19.2479 24.0246 19.2479 24.0724 19.2402C24.7236 19.1362 29.6026 18.1388 31.2361 11.436C31.8221 9.03134 31.7179 6.16934 31.647 5.05981C31.6391 4.9366 31.5828 4.8215 31.4904 4.7396C31.398 4.6577 31.277 4.61563 31.1537 4.62256Z"
      fill="#1D1E21" />
    <path
      d="M24.0002 17.3432C23.0506 17.1193 19.8061 15.9983 18.5861 10.9918C18.2231 9.50234 18.1619 7.74659 18.1762 6.51341C19.8736 6.46972 22.0634 6.18163 24.0001 5.19922C25.9368 6.18163 28.1266 6.46972 29.8241 6.51341C29.8384 7.7465 29.7772 9.50234 29.4142 10.9918C28.1939 15.9989 24.9489 17.1196 24.0002 17.3432Z"
      fill="#4B73FF" />
    <path
      d="M24 5.19922C25.9367 6.18163 28.1265 6.46972 29.8239 6.51341C29.8383 7.7465 29.7771 9.50234 29.4141 10.9918C28.1938 15.9989 24.9488 17.1195 24.0001 17.3432L24 5.19922Z"
      fill="#4B73FF" />
    <path
      d="M25.4117 10.913C25.2874 10.913 25.1682 10.8636 25.0803 10.7757C24.9924 10.6878 24.943 10.5686 24.943 10.4442V8.99C24.943 8.46997 24.5199 8.04688 23.9999 8.04688C23.4798 8.04688 23.0566 8.46997 23.0566 8.99V10.4442C23.0566 10.5686 23.0073 10.6878 22.9193 10.7757C22.8314 10.8636 22.7122 10.913 22.5879 10.913C22.4636 10.913 22.3443 10.8636 22.2564 10.7757C22.1685 10.6878 22.1191 10.5686 22.1191 10.4442V8.99C22.1191 7.95303 22.9628 7.10938 23.9999 7.10938C25.0368 7.10938 25.8805 7.95303 25.8805 8.99V10.4442C25.8805 10.5686 25.8311 10.6878 25.7432 10.7757C25.6553 10.8636 25.5361 10.913 25.4117 10.913Z"
      fill="#1D1E21" />
    <path
      d="M25.4486 14.7886H22.5518C22.034 14.7886 21.6143 14.3689 21.6143 13.8511V11.3721C21.6143 10.8543 22.034 10.4346 22.5518 10.4346H25.4485C25.9663 10.4346 26.386 10.8543 26.386 11.3721V13.8511C26.3861 14.3689 25.9663 14.7886 25.4486 14.7886Z"
      fill="#1D1E21" />
    <path
      d="M24.0003 13.6839C23.8601 13.6839 23.7256 13.6282 23.6265 13.5291C23.5274 13.4299 23.4717 13.2955 23.4717 13.1553V12.6418C23.4717 12.5724 23.4854 12.5037 23.5119 12.4396C23.5385 12.3754 23.5774 12.3172 23.6265 12.2681C23.6756 12.219 23.7339 12.1801 23.798 12.1535C23.8621 12.127 23.9308 12.1133 24.0003 12.1133C24.0697 12.1133 24.1384 12.127 24.2025 12.1535C24.2667 12.1801 24.3249 12.219 24.374 12.2681C24.4231 12.3172 24.462 12.3754 24.4886 12.4396C24.5151 12.5037 24.5288 12.5724 24.5288 12.6418V13.1553C24.5288 13.2955 24.4731 13.4299 24.374 13.5291C24.2749 13.6282 24.1404 13.6839 24.0003 13.6839ZM31.2339 43.1022H16.7666C16.6423 43.1022 16.5231 43.0528 16.4351 42.9649C16.3472 42.877 16.2979 42.7577 16.2979 42.6334V41.6811C16.2979 41.5568 16.3472 41.4375 16.4351 41.3496C16.5231 41.2617 16.6423 41.2123 16.7666 41.2123H31.2339C31.3582 41.2123 31.4775 41.2617 31.5654 41.3496C31.6533 41.4375 31.7027 41.5568 31.7027 41.6811V42.6334C31.7027 42.7577 31.6533 42.877 31.5654 42.9649C31.4775 43.0528 31.3582 43.1022 31.2339 43.1022Z"
      fill="#4B73FF" />
    <path
      d="M41.8494 9.64985H34.2209C34.0966 9.64985 33.9774 9.69923 33.8895 9.78714C33.8016 9.87505 33.7522 9.99427 33.7522 10.1186C33.7522 10.2429 33.8016 10.3621 33.8895 10.4501C33.9774 10.538 34.0966 10.5873 34.2209 10.5873H41.8494C42.1078 10.5873 42.3181 10.7976 42.3181 11.0561V30.435H5.68213V11.0561C5.68213 10.7976 5.89241 10.5873 6.15088 10.5873H16.1124C16.1667 10.9095 16.2323 11.2296 16.3091 11.5471C17.0224 14.4748 18.4117 16.7102 20.4379 18.1911C22.0076 19.3383 23.4494 19.6384 23.8539 19.7031C23.9508 19.7187 24.0495 19.7187 24.1464 19.7032C24.5509 19.6385 25.9928 19.3383 27.5624 18.1912C29.5887 16.7102 30.9779 14.4749 31.6913 11.5472C32.2917 9.08341 32.1874 6.16881 32.1148 5.03013C32.082 4.51919 31.6401 4.126 31.1279 4.15469C29.8918 4.22284 26.7708 4.22688 24.5011 2.79269C24.3511 2.69844 24.1774 2.64844 24.0002 2.64844C23.823 2.64844 23.6494 2.69844 23.4993 2.79269C21.2296 4.22688 18.1093 4.22294 16.8725 4.15469C16.3627 4.12731 15.9183 4.51919 15.8857 5.03013C15.8311 5.88428 15.7588 7.73744 15.9794 9.65003H6.15088C5.37547 9.65003 4.74463 10.2809 4.74463 11.0563V34.5009C4.74463 35.2763 5.37547 35.9072 6.15088 35.9072H18.7689V40.744H16.7665C16.2495 40.744 15.829 41.1646 15.829 41.6815V42.6338C15.829 43.1507 16.2495 43.5713 16.7665 43.5713H31.2338C31.7507 43.5713 32.1713 43.1507 32.1713 42.6338V41.6815C32.1713 41.1646 31.7507 40.744 31.2338 40.744H29.2314V38.0345C29.2314 37.9102 29.182 37.791 29.0941 37.7031C29.0062 37.6152 28.8869 37.5658 28.7626 37.5658C28.6383 37.5658 28.5191 37.6152 28.4312 37.7031C28.3433 37.791 28.2939 37.9102 28.2939 38.0345V40.744H19.7064V35.9072H21.9414V37.5123C21.9414 38.2878 22.5722 38.9186 23.3476 38.9186H24.6526C25.428 38.9186 26.0589 38.2878 26.0589 37.5123V35.9072H41.8494C42.6248 35.9072 43.2556 35.2763 43.2556 34.5009V11.0561C43.2556 10.2807 42.6248 9.64985 41.8494 9.64985ZM16.8208 5.0905C18.147 5.16381 21.5019 5.16353 24.0002 3.58497C26.4982 5.16325 29.8524 5.16353 31.179 5.0905C31.249 6.18691 31.35 8.98722 30.7804 11.325C29.2109 17.7653 24.5272 18.6927 24.0019 18.7773C23.473 18.6927 18.7892 17.7653 17.2198 11.325C16.65 8.98675 16.7513 6.1855 16.8208 5.0905ZM31.2344 42.6336H16.7665V41.6813H31.2338L31.2344 42.6336ZM25.1214 37.5122C25.1214 37.7706 24.9111 37.9809 24.6526 37.9809H23.3476C23.0892 37.9809 22.8789 37.7706 22.8789 37.5122V35.907H25.1214V37.5122ZM41.8494 34.9695H6.15088C5.89241 34.9695 5.68213 34.7592 5.68213 34.5007V31.3725H42.318V34.5007C42.3179 34.625 42.2685 34.7441 42.1806 34.832C42.0928 34.9199 41.9736 34.9693 41.8494 34.9695Z"
      fill="#4B73FF" />
    <path
      d="M14.8889 16.9872C14.8889 16.1283 14.1901 15.4297 13.3314 15.4297C12.4726 15.4297 11.7739 16.1284 11.7739 16.9872C11.7739 17.4107 11.9444 17.7948 12.2197 18.0759C11.9445 18.3569 11.7739 18.741 11.7739 19.1646C11.7739 19.2889 11.8233 19.4081 11.9112 19.4961C11.9991 19.584 12.1184 19.6333 12.2427 19.6333C12.367 19.6333 12.4862 19.584 12.5741 19.4961C12.662 19.4081 12.7114 19.2889 12.7114 19.1646C12.7114 18.8228 12.9896 18.5446 13.3314 18.5446C13.6732 18.5446 13.9514 18.8228 13.9514 19.1646C13.9514 19.2889 14.0007 19.4081 14.0887 19.4961C14.1766 19.584 14.2958 19.6333 14.4201 19.6333C14.5444 19.6333 14.6637 19.584 14.7516 19.4961C14.8395 19.4081 14.8889 19.2889 14.8889 19.1646C14.8889 18.741 14.7184 18.3569 14.4431 18.0759C14.7184 17.7948 14.8889 17.4107 14.8889 16.9872ZM13.3314 16.3671C13.6732 16.3671 13.9514 16.6452 13.9514 16.9871C13.9514 17.3289 13.6732 17.607 13.3314 17.607C12.9896 17.607 12.7114 17.3289 12.7114 16.9871C12.7114 16.6452 12.9895 16.3671 13.3314 16.3671Z"
      fill="#4B73FF" />
    <path
      d="M15.9956 26.7627C16.3322 26.7627 16.605 26.4899 16.605 26.1533C16.605 25.8168 16.3322 25.5439 15.9956 25.5439C15.6591 25.5439 15.3862 25.8168 15.3862 26.1533C15.3862 26.4899 15.6591 26.7627 15.9956 26.7627Z"
      fill="#1D1E21" />
    <path
      d="M18.6636 26.7627C19.0001 26.7627 19.2729 26.4899 19.2729 26.1533C19.2729 25.8168 19.0001 25.5439 18.6636 25.5439C18.327 25.5439 18.0542 25.8168 18.0542 26.1533C18.0542 26.4899 18.327 26.7627 18.6636 26.7627Z"
      fill="#1D1E21" />
    <path
      d="M21.332 26.7627C21.6686 26.7627 21.9414 26.4899 21.9414 26.1533C21.9414 25.8168 21.6686 25.5439 21.332 25.5439C20.9955 25.5439 20.7227 25.8168 20.7227 26.1533C20.7227 26.4899 20.9955 26.7627 21.332 26.7627Z"
      fill="#1D1E21" />
    <path
      d="M24 26.7627C24.3365 26.7627 24.6094 26.4899 24.6094 26.1533C24.6094 25.8168 24.3365 25.5439 24 25.5439C23.6635 25.5439 23.3906 25.8168 23.3906 26.1533C23.3906 26.4899 23.6635 26.7627 24 26.7627Z"
      fill="#1D1E21" />
    <path
      d="M26.668 26.7627C27.0045 26.7627 27.2773 26.4899 27.2773 26.1533C27.2773 25.8168 27.0045 25.5439 26.668 25.5439C26.3314 25.5439 26.0586 25.8168 26.0586 26.1533C26.0586 26.4899 26.3314 26.7627 26.668 26.7627Z"
      fill="#1D1E21" />
    <path
      d="M29.3364 26.7627C29.673 26.7627 29.9458 26.4899 29.9458 26.1533C29.9458 25.8168 29.673 25.5439 29.3364 25.5439C28.9999 25.5439 28.7271 25.8168 28.7271 26.1533C28.7271 26.4899 28.9999 26.7627 29.3364 26.7627Z"
      fill="#1D1E21" />
    <path
      d="M32.0044 26.7627C32.3409 26.7627 32.6138 26.4899 32.6138 26.1533C32.6138 25.8168 32.3409 25.5439 32.0044 25.5439C31.6678 25.5439 31.395 25.8168 31.395 26.1533C31.395 26.4899 31.6678 26.7627 32.0044 26.7627Z"
      fill="#1D1E21" />
    <path
      d="M36.3663 7.50898C36.323 7.50899 36.2799 7.503 36.2382 7.49117C35.0091 7.14176 34.917 5.37823 34.9137 5.30342C34.9091 5.19986 34.9389 5.0977 34.9986 5.01292C35.0582 4.92814 35.1443 4.86552 35.2433 4.83485L36.2277 4.52998C36.318 4.50204 36.4147 4.50204 36.5051 4.52998L37.4895 4.83485C37.5885 4.86553 37.6745 4.92815 37.7342 5.01293C37.7938 5.09771 37.8237 5.19986 37.8191 5.30342C37.8158 5.37832 37.7236 7.14176 36.4946 7.49117C36.4526 7.50298 36.4095 7.50898 36.3663 7.50898ZM35.8968 5.61382C35.9622 5.94363 36.1024 6.36185 36.3661 6.53088C36.6313 6.36045 36.7702 5.9367 36.8349 5.61354L36.3663 5.46842L35.8968 5.61382ZM13.3313 40.7599C13.288 40.76 13.2448 40.754 13.2031 40.7421C11.9742 40.3927 11.8819 38.6293 11.8786 38.5544C11.874 38.4508 11.9039 38.3487 11.9635 38.2639C12.0232 38.1791 12.1092 38.1165 12.2083 38.0858L13.1926 37.7809C13.283 37.753 13.3797 37.753 13.47 37.7809L14.4544 38.0858C14.5534 38.1165 14.6395 38.1791 14.6991 38.2639C14.7588 38.3487 14.7886 38.4508 14.784 38.5544C14.7808 38.6293 14.6886 40.3927 13.4595 40.7421C13.4175 40.754 13.3744 40.7599 13.3313 40.7599ZM12.8619 38.8648C12.9271 39.1946 13.0674 39.6128 13.3312 39.7818C13.5962 39.6114 13.7352 39.1877 13.7999 38.8645L13.3313 38.7194L12.8619 38.8648ZM13.3676 4.70107C13.306 4.70116 13.245 4.68908 13.1882 4.66552C13.1313 4.64197 13.0796 4.60741 13.0362 4.56382L12.5238 4.05157L12.0115 4.56382C11.9232 4.64988 11.8046 4.6977 11.6813 4.69691C11.558 4.69612 11.44 4.64679 11.3528 4.5596C11.2656 4.47242 11.2163 4.35439 11.2155 4.23111C11.2148 4.10782 11.2626 3.98919 11.3487 3.90092L12.1924 3.05717C12.2803 2.96929 12.3995 2.91992 12.5238 2.91992C12.6481 2.91992 12.7673 2.96929 12.8552 3.05717L13.699 3.90092C13.7645 3.96647 13.8091 4.04999 13.8272 4.1409C13.8453 4.23182 13.836 4.32605 13.8006 4.41169C13.7651 4.49733 13.705 4.57053 13.6279 4.62204C13.5509 4.67355 13.4603 4.70105 13.3676 4.70107ZM37.4861 42.1036C37.4245 42.1037 37.3636 42.0916 37.3067 42.068C37.2498 42.0445 37.1981 42.0099 37.1547 41.9663L36.6423 41.4541L36.13 41.9663C36.0417 42.0524 35.9231 42.1002 35.7998 42.0994C35.6765 42.0986 35.5585 42.0493 35.4713 41.9621C35.3841 41.8749 35.3348 41.7569 35.334 41.6336C35.3333 41.5103 35.3811 41.3917 35.4672 41.3034L36.3109 40.4597C36.3988 40.3718 36.518 40.3224 36.6423 40.3224C36.7666 40.3224 36.8858 40.3718 36.9737 40.4597L37.8175 41.3034C37.883 41.369 37.9276 41.4525 37.9457 41.5434C37.9638 41.6343 37.9545 41.7285 37.9191 41.8142C37.8836 41.8998 37.8235 41.973 37.7464 42.0245C37.6694 42.076 37.5788 42.1035 37.4861 42.1036ZM10.302 42.5254C10.2404 42.5255 10.1794 42.5134 10.1226 42.4899C10.0657 42.4663 10.014 42.4318 9.97055 42.3882L9.4582 41.8759L8.94586 42.3882C8.85757 42.4743 8.73894 42.5221 8.61565 42.5213C8.49236 42.5205 8.37435 42.4712 8.28717 42.384C8.2 42.2968 8.15068 42.1788 8.14991 42.0555C8.14914 41.9322 8.19697 41.8136 8.28304 41.7253L9.12679 40.8815C9.2147 40.7937 9.33391 40.7443 9.4582 40.7443C9.5825 40.7443 9.7017 40.7937 9.78961 40.8815L10.6334 41.7253C10.6989 41.7908 10.7435 41.8744 10.7616 41.9653C10.7797 42.0562 10.7704 42.1504 10.7349 42.2361C10.6995 42.3217 10.6394 42.3949 10.5623 42.4464C10.4853 42.4979 10.3946 42.5254 10.302 42.5254Z"
      fill="#4B73FF" />
  </g>
  <defs>
    <linearGradient id="paint0_linear_340_2365" x1="11.5811" y1="35.7919" x2="38.1664" y2="9.20661"
      gradientUnits="userSpaceOnUse">
      <stop stop-color="#4B73FF" stop-opacity="0" />
      <stop offset="1" stop-color="#4B73FF" />
    </linearGradient>
    <clipPath id="clip0_340_2365">
      <rect width="48" height="48" fill="white" />
    </clipPath>
  </defs>
</svg>