<svg width="48" height="48" viewBox="0 0 48 48" fill="none" xmlns="http://www.w3.org/2000/svg">
  <g clip-path="url(#clip0_340_2408)">
    <path opacity="0.5"
      d="M0.459033 30.6879C2.09478 46.8945 27.8731 46.3574 39.9093 43.4627C47.6409 41.6033 48.1214 37.8872 47.9818 29.9626C47.8918 24.8545 48.3045 11.3321 44.9814 7.07608C39.8769 0.538607 35.3037 4.63876 28.9824 6.77279C20.8741 9.51001 17.7147 4.62292 10.0003 4.76842C-1.30984 4.98198 -0.385186 22.3233 0.459033 30.6879Z"
      fill="url(#paint0_linear_340_2408)" />
    <path
      d="M42.7004 40.4264H5.2998C4.52318 40.4264 3.89355 39.7968 3.89355 39.0201V9.55762C3.89355 8.78099 4.52318 8.15137 5.2998 8.15137H42.7004C43.4771 8.15137 44.1067 8.78099 44.1067 9.55762V39.0201C44.1067 39.7968 43.4771 40.4264 42.7004 40.4264Z"
      fill="#1D1E21" />
    <path opacity="0.8"
      d="M44.1067 14.6495V9.55762C44.1067 8.78099 43.4771 8.15137 42.7004 8.15137H5.2998C4.52318 8.15137 3.89355 8.78099 3.89355 9.55762V14.6495H44.1067Z"
      fill="#4B73FF" />
    <path
      d="M42.7006 40.895H5.2998C4.26593 40.895 3.4248 40.0538 3.4248 39.02V9.55762C3.4248 8.52374 4.26593 7.68262 5.2998 7.68262H42.7005C43.7344 7.68262 44.5755 8.52374 44.5755 9.55762V39.0201C44.5756 40.0539 43.7345 40.895 42.7006 40.895ZM5.2998 8.62012C4.78287 8.62012 4.3623 9.04068 4.3623 9.55762V39.0201C4.3623 39.537 4.78287 39.9576 5.2998 39.9576H42.7005C43.2175 39.9576 43.638 39.537 43.638 39.0201V9.55762C43.638 9.04068 43.2175 8.62012 42.7005 8.62012H5.2998Z"
      fill="#4B73FF" />
    <path
      d="M8.02734 12.6328C8.59176 12.6328 9.04931 12.1753 9.04931 11.6108C9.04931 11.0464 8.59176 10.5889 8.02734 10.5889C7.46292 10.5889 7.00537 11.0464 7.00537 11.6108C7.00537 12.1753 7.46292 12.6328 8.02734 12.6328Z"
      fill="#1D1E21" />
    <path
      d="M11.29 12.6328C11.8545 12.6328 12.312 12.1753 12.312 11.6108C12.312 11.0464 11.8545 10.5889 11.29 10.5889C10.7256 10.5889 10.2681 11.0464 10.2681 11.6108C10.2681 12.1753 10.7256 12.6328 11.29 12.6328Z"
      fill="#1D1E21" />
    <path
      d="M14.5522 12.6328C15.1167 12.6328 15.5742 12.1753 15.5742 11.6108C15.5742 11.0464 15.1167 10.5889 14.5522 10.5889C13.9878 10.5889 13.5303 11.0464 13.5303 11.6108C13.5303 12.1753 13.9878 12.6328 14.5522 12.6328Z"
      fill="#1D1E21" />
    <path
      d="M40.526 12.7584H27.7612V10.4619H40.526C40.6504 10.4619 40.7696 10.5113 40.8575 10.5992C40.9454 10.6871 40.9948 10.8063 40.9948 10.9307V12.2897C40.9948 12.414 40.9454 12.5332 40.8575 12.6211C40.7696 12.709 40.6504 12.7584 40.526 12.7584Z"
      fill="#1D1E21" />
    <path
      d="M27.8239 10.4918C27.3284 9.99623 26.522 9.99623 26.0265 10.4918C25.5309 10.9874 25.5309 11.7937 26.0265 12.2893C26.4049 12.6677 26.9642 12.7561 27.4283 12.5566L27.8359 12.9643C27.9244 13.0492 28.0427 13.0961 28.1654 13.0948C28.2881 13.0936 28.4054 13.0443 28.4921 12.9575C28.5789 12.8708 28.6282 12.7535 28.6294 12.6308C28.6307 12.5081 28.5838 12.3899 28.4988 12.3014L28.0912 11.8937C28.2908 11.4296 28.2024 10.8703 27.8239 10.4918ZM26.6894 11.1547C26.8194 11.0247 27.031 11.0247 27.161 11.1547C27.291 11.2847 27.291 11.4963 27.161 11.6264C27.031 11.7564 26.8194 11.7564 26.6894 11.6264C26.5593 11.4963 26.5593 11.2847 26.6894 11.1547Z"
      fill="#1D1E21" />
    <path
      d="M24 24.3935C25.7423 24.3935 27.1548 22.9811 27.1548 21.2388C27.1548 19.4964 25.7423 18.084 24 18.084C22.2577 18.084 20.8452 19.4964 20.8452 21.2388C20.8452 22.9811 22.2577 24.3935 24 24.3935Z"
      fill="#4B73FF" />
    <path
      d="M25.5577 21.3453C25.5577 20.4865 24.8583 19.7881 23.9996 19.7881C23.1408 19.7881 22.4424 20.4865 22.4424 21.3453C22.4424 21.769 22.613 22.1534 22.8877 22.4346C22.6022 22.725 22.4422 23.1159 22.4424 23.5231V23.9825C22.7302 24.1456 23.0452 24.2656 23.3799 24.3321V23.5231C23.3799 23.1809 23.6583 22.9034 23.9996 22.9034C24.3418 22.9034 24.6202 23.1809 24.6202 23.5231V24.3321C24.9549 24.2656 25.2699 24.1456 25.5577 23.9825V23.5231C25.5577 23.0993 25.3871 22.715 25.1114 22.4346C25.3871 22.1534 25.5577 21.769 25.5577 21.3453ZM23.9996 21.9659C23.6583 21.9659 23.3799 21.6875 23.3799 21.3453C23.3799 21.004 23.6583 20.7256 23.9996 20.7256C24.3418 20.7256 24.6202 21.004 24.6202 21.3453C24.6202 21.6875 24.3418 21.9659 23.9996 21.9659Z"
      fill="#1D1E21" />
    <path
      d="M35.1176 29.5619H12.8823C12.3645 29.5619 11.9448 29.1421 11.9448 28.6244V27.2051C11.9448 26.6873 12.3645 26.2676 12.8823 26.2676H35.1175C35.6353 26.2676 36.055 26.6873 36.055 27.2051V28.6244C36.0551 29.1421 35.6353 29.5619 35.1176 29.5619Z"
      fill="#1D1E21" />
    <path
      d="M35.1175 26.2676H32.3286V29.5619H35.1175C35.6353 29.5619 36.055 29.1421 36.055 28.6244V27.2051C36.055 26.6873 35.6352 26.2676 35.1175 26.2676Z"
      fill="#6583FE" />
    <path
      d="M16.7356 35.4295H13.6792C13.5549 35.4295 13.4357 35.3801 13.3477 35.2922C13.2598 35.2043 13.2104 35.0851 13.2104 34.9607V31.9043C13.2104 31.78 13.2598 31.6607 13.3477 31.5728C13.4357 31.4849 13.5549 31.4355 13.6792 31.4355H16.7356C16.86 31.4355 16.9792 31.4849 17.0671 31.5728C17.155 31.6607 17.2044 31.78 17.2044 31.9043V34.9607C17.2044 35.0851 17.155 35.2043 17.0671 35.2922C16.9792 35.3801 16.86 35.4295 16.7356 35.4295ZM22.5974 35.4295H19.5409C19.4166 35.4295 19.2974 35.3801 19.2095 35.2922C19.1216 35.2043 19.0722 35.0851 19.0722 34.9607V31.9043C19.0722 31.78 19.1216 31.6607 19.2095 31.5728C19.2974 31.4849 19.4166 31.4355 19.5409 31.4355H22.5974C22.7217 31.4355 22.8409 31.4849 22.9288 31.5728C23.0167 31.6607 23.0661 31.78 23.0661 31.9043V34.9607C23.0661 35.0851 23.0167 35.2043 22.9288 35.2922C22.8409 35.3801 22.7217 35.4295 22.5974 35.4295ZM28.459 35.4295H25.4025C25.2782 35.4295 25.159 35.3801 25.0711 35.2922C24.9832 35.2043 24.9338 35.0851 24.9338 34.9607V31.9043C24.9338 31.78 24.9832 31.6607 25.0711 31.5728C25.159 31.4849 25.2782 31.4355 25.4025 31.4355H28.459C28.5833 31.4355 28.7025 31.4849 28.7904 31.5728C28.8783 31.6607 28.9277 31.78 28.9277 31.9043V34.9607C28.9277 35.0851 28.8783 35.2043 28.7904 35.2922C28.7025 35.3801 28.5833 35.4295 28.459 35.4295ZM34.3207 35.4295H31.2643C31.1399 35.4295 31.0207 35.3801 30.9328 35.2922C30.8449 35.2043 30.7955 35.0851 30.7955 34.9607V31.9043C30.7955 31.78 30.8449 31.6607 30.9328 31.5728C31.0207 31.4849 31.1399 31.4355 31.2643 31.4355H34.3207C34.445 31.4355 34.5642 31.4849 34.6522 31.5728C34.7401 31.6607 34.7894 31.78 34.7894 31.9043V34.9607C34.7894 35.0851 34.7401 35.2043 34.6522 35.2922C34.5642 35.3801 34.445 35.4295 34.3207 35.4295Z"
      fill="#4B73FF" />
    <path
      d="M41.6171 17.334H39.6782C39.5539 17.334 39.4347 17.2846 39.3468 17.1967C39.2589 17.1088 39.2095 16.9896 39.2095 16.8652C39.2095 16.7409 39.2589 16.6217 39.3468 16.5338C39.4347 16.4459 39.5539 16.3965 39.6782 16.3965H41.6171C41.7414 16.3965 41.8606 16.4459 41.9485 16.5338C42.0364 16.6217 42.0858 16.7409 42.0858 16.8652C42.0858 16.9896 42.0364 17.1088 41.9485 17.1967C41.8606 17.2846 41.7414 17.334 41.6171 17.334ZM41.6171 19.4902H39.6782C39.5539 19.4902 39.4347 19.4408 39.3468 19.3529C39.2589 19.265 39.2095 19.1458 39.2095 19.0215C39.2095 18.8972 39.2589 18.7779 39.3468 18.69C39.4347 18.6021 39.5539 18.5527 39.6782 18.5527H41.6171C41.7414 18.5527 41.8606 18.6021 41.9485 18.69C42.0364 18.7779 42.0858 18.8972 42.0858 19.0215C42.0858 19.1458 42.0364 19.265 41.9485 19.3529C41.8606 19.4408 41.7414 19.4902 41.6171 19.4902ZM41.6171 21.6465H39.6782C39.5539 21.6465 39.4347 21.5971 39.3468 21.5092C39.2589 21.4213 39.2095 21.3021 39.2095 21.1777C39.2095 21.0534 39.2589 20.9342 39.3468 20.8463C39.4347 20.7584 39.5539 20.709 39.6782 20.709H41.6171C41.7414 20.709 41.8606 20.7584 41.9485 20.8463C42.0364 20.9342 42.0858 21.0534 42.0858 21.1777C42.0858 21.3021 42.0364 21.4213 41.9485 21.5092C41.8606 21.5971 41.7414 21.6465 41.6171 21.6465Z"
      fill="#4B73FF" />
    <path
      d="M35.1176 30.0306H12.8823C12.1069 30.0306 11.4761 29.3998 11.4761 28.6244V27.2051C11.4761 26.4297 12.1069 25.7988 12.8823 25.7988H35.1176C35.893 25.7988 36.5238 26.4297 36.5238 27.2051V28.6244C36.5238 29.3998 35.893 30.0306 35.1176 30.0306ZM12.8823 26.7363C12.6239 26.7363 12.4136 26.9466 12.4136 27.2051V28.6244C12.4136 28.8828 12.6239 29.0931 12.8823 29.0931H35.1176C35.376 29.0931 35.5863 28.8828 35.5863 28.6244V27.2051C35.5863 26.9466 35.376 26.7363 35.1176 26.7363H12.8823Z"
      fill="#4B73FF" />
  </g>
  <defs>
    <linearGradient id="paint0_linear_340_2408" x1="9.04916" y1="42.8228" x2="41.6893" y2="3.92383"
      gradientUnits="userSpaceOnUse">
      <stop stop-color="#4B73FF" stop-opacity="0" />
      <stop offset="1" stop-color="#4B73FF" />
    </linearGradient>
    <clipPath id="clip0_340_2408">
      <rect width="48" height="48" fill="white" />
    </clipPath>
  </defs>
</svg>