<svg width="48" height="48" viewBox="0 0 48 48" fill="none" xmlns="http://www.w3.org/2000/svg">
  <g clip-path="url(#clip0_320_19093)">
    <path opacity="0.5"
      d="M42.3561 4.12153C27.304 -5.05378 3.87081 3.31416 1.14418 9.92925C-2.50344 18.7787 3.63587 20.2913 4.77634 27.5424C5.69143 33.3607 -0.0219734 38.9326 3.2394 44.0689C6.79084 49.6623 18.5642 48.2577 23.0392 45.6108C31.2307 40.7656 27.0994 35.1097 30.9783 28.0515C34.6728 21.329 41.8762 24.0554 46.0684 18.6774C50.0528 13.5661 47.4101 7.20225 42.3561 4.12153Z"
      fill="url(#paint0_linear_320_19093)" />
    <path opacity="0.8"
      d="M32.8343 44.6568H15.1658C13.6125 44.6568 12.3533 43.3976 12.3533 41.8443V6.15572C12.3533 4.60237 13.6125 3.34322 15.1658 3.34322H32.8343C34.3875 3.34322 35.6468 4.60237 35.6468 6.15572V41.8443C35.6468 43.3976 34.3876 44.6568 32.8343 44.6568Z"
      fill="#2A2B2F" />
    <path d="M12.3535 7.36594H35.6466V40.6341H12.3535V7.36594Z" fill="#1D1E21" />
    <path d="M12.3535 29.8069H35.6466V40.6341H12.3535V29.8069Z" fill="#1D1E21" />
    <path
      d="M32.8343 45.1255H15.1658C13.3565 45.1255 11.8845 43.6536 11.8845 41.8443V6.15572C11.8845 4.34644 13.3565 2.87447 15.1658 2.87447H32.8344C34.6436 2.87447 36.1156 4.34644 36.1156 6.15572V41.8443C36.1155 43.6536 34.6436 45.1255 32.8343 45.1255ZM15.1658 3.81197C13.8734 3.81197 12.822 4.86337 12.822 6.15572V41.8443C12.822 43.1366 13.8734 44.188 15.1658 44.188H32.8344C34.1267 44.188 35.1781 43.1366 35.1781 41.8443V6.15572C35.1781 4.86337 34.1267 3.81197 32.8344 3.81197H15.1658Z"
      fill="#4B73FF" />
    <path
      d="M25.6391 5.90916H22.3611C22.2368 5.90916 22.1175 5.85977 22.0296 5.77186C21.9417 5.68395 21.8923 5.56473 21.8923 5.44041C21.8923 5.31609 21.9417 5.19686 22.0296 5.10895C22.1175 5.02104 22.2368 4.97166 22.3611 4.97166H25.6391C25.7635 4.97166 25.8827 5.02104 25.9706 5.10895C26.0585 5.19686 26.1079 5.31609 26.1079 5.44041C26.1079 5.56473 26.0585 5.68395 25.9706 5.77186C25.8827 5.85977 25.7635 5.90916 25.6391 5.90916ZM28.2953 5.44031C28.2953 5.56468 28.2459 5.68396 28.1579 5.7719C28.07 5.85984 27.9507 5.90925 27.8263 5.90925C27.702 5.90925 27.5827 5.85984 27.4947 5.7719C27.4068 5.68396 27.3574 5.56468 27.3574 5.44031C27.3574 5.31594 27.4068 5.19667 27.4947 5.10872C27.5827 5.02078 27.702 4.97137 27.8263 4.97137C27.9507 4.97137 28.07 5.02078 28.1579 5.10872C28.2459 5.19667 28.2953 5.31594 28.2953 5.44031Z"
      fill="#4B73FF" />
    <path
      d="M24.0002 38.3003C25.1505 38.3003 26.0831 37.3677 26.0831 36.2173C26.0831 35.0669 25.1505 34.1344 24.0002 34.1344C22.8498 34.1344 21.9172 35.0669 21.9172 36.2173C21.9172 37.3677 22.8498 38.3003 24.0002 38.3003Z"
      fill="#4B73FF" />
    <path
      d="M24.8289 35.7486H24.4689V35.3886C24.4689 35.2642 24.4195 35.145 24.3316 35.0571C24.2437 34.9692 24.1245 34.9198 24.0001 34.9198C23.8758 34.9198 23.7566 34.9692 23.6687 35.0571C23.5808 35.145 23.5314 35.2642 23.5314 35.3886V35.7486H23.1714C23.0471 35.7486 22.9278 35.7979 22.8399 35.8859C22.752 35.9738 22.7026 36.093 22.7026 36.2173C22.7026 36.3416 22.752 36.4609 22.8399 36.5488C22.9278 36.6367 23.0471 36.6861 23.1714 36.6861H23.5314V37.0461C23.5314 37.1704 23.5808 37.2896 23.6687 37.3775C23.7566 37.4654 23.8758 37.5148 24.0001 37.5148C24.1245 37.5148 24.2437 37.4654 24.3316 37.3775C24.4195 37.2896 24.4689 37.1704 24.4689 37.0461V36.6861H24.8289C24.9532 36.6861 25.0724 36.6367 25.1603 36.5488C25.2482 36.4609 25.2976 36.3416 25.2976 36.2173C25.2976 36.093 25.2482 35.9738 25.1603 35.8859C25.0724 35.7979 24.9532 35.7486 24.8289 35.7486Z"
      fill="#1D1E21" />
    <path
      d="M32.0109 24.4302H15.9893C15.4715 24.4302 15.0518 24.0105 15.0518 23.4927V18.6278C15.0518 18.1101 15.4715 17.6903 15.9893 17.6903H32.0109C32.5286 17.6903 32.9484 18.1101 32.9484 18.6278V23.4927C32.9484 24.0105 32.5287 24.4302 32.0109 24.4302ZM32.0109 32.522H15.9893C15.4715 32.522 15.0518 32.1022 15.0518 31.5845V26.7196C15.0518 26.2018 15.4715 25.7821 15.9893 25.7821H32.0109C32.5286 25.7821 32.9484 26.2018 32.9484 26.7196V31.5845C32.9484 32.1022 32.5287 32.522 32.0109 32.522Z"
      fill="#4B73FF" />
    <path
      d="M18.1593 18.9278H16.783C16.6586 18.9278 16.5394 18.9772 16.4515 19.0651C16.3636 19.153 16.3142 19.2723 16.3142 19.3966C16.3142 19.5209 16.3636 19.6401 16.4515 19.728C16.5394 19.816 16.6586 19.8653 16.783 19.8653H18.1593C18.2836 19.8653 18.4029 19.816 18.4908 19.728C18.5787 19.6401 18.6281 19.5209 18.6281 19.3966C18.6281 19.2723 18.5787 19.153 18.4908 19.0651C18.4029 18.9772 18.2836 18.9278 18.1593 18.9278ZM18.1593 27.0315H16.783C16.6586 27.0315 16.5394 27.0809 16.4515 27.1688C16.3636 27.2567 16.3142 27.3759 16.3142 27.5002C16.3142 27.6246 16.3636 27.7438 16.4515 27.8317C16.5394 27.9196 16.6586 27.969 16.783 27.969H18.1593C18.2836 27.969 18.4029 27.9196 18.4908 27.8317C18.5787 27.7438 18.6281 27.6246 18.6281 27.5002C18.6281 27.3759 18.5787 27.2567 18.4908 27.1688C18.4029 27.0809 18.2836 27.0315 18.1593 27.0315Z"
      fill="#1D1E21" />
    <path
      d="M32.9484 13.3484V15.4006C32.9484 15.919 32.5284 16.3381 32.0109 16.3381H15.989C15.4715 16.3381 15.0515 15.919 15.0515 15.4006V13.3484C15.0515 12.8309 15.4715 12.4109 15.989 12.4109H32.0109C32.5284 12.4109 32.9484 12.8309 32.9484 13.3484Z"
      fill="#1D1E21" />
    <path
      d="M32.0109 16.8068H15.989C15.2136 16.8068 14.5828 16.176 14.5828 15.4006V13.3484C14.5828 12.573 15.2136 11.9422 15.989 11.9422H32.0109C32.7864 11.9422 33.4171 12.573 33.4171 13.3484V15.4006C33.4171 16.176 32.7864 16.8068 32.0109 16.8068ZM15.989 12.8797C15.7305 12.8797 15.5203 13.0899 15.5203 13.3484V15.4006C15.5203 15.6591 15.7305 15.8693 15.989 15.8693H32.0109C32.2694 15.8693 32.4796 15.6591 32.4796 15.4006V13.3484C32.4796 13.0899 32.2694 12.8797 32.0109 12.8797H15.989Z"
      fill="#4B73FF" />
    <path
      d="M32.8194 13.8689C33.8554 12.8329 33.8554 11.1532 32.8194 10.1172C31.7834 9.08121 30.1037 9.08121 29.0677 10.1172C28.0317 11.1532 28.0317 12.8329 29.0677 13.8689C30.1037 14.9049 31.7834 14.9049 32.8194 13.8689Z"
      fill="#4B73FF" />
    <path
      d="M30.4776 10.5808C30.3797 10.5808 30.2842 10.6114 30.2046 10.6683C30.125 10.7253 30.0652 10.8057 30.0336 10.8984C30.002 10.9911 30.0003 11.0913 30.0285 11.185C30.0568 11.2788 30.1138 11.3613 30.1914 11.421L30.9317 11.991L30.1914 12.561C30.0929 12.6369 30.0285 12.7487 30.0125 12.872C29.9965 12.9953 30.03 13.1199 30.1059 13.2185C30.1818 13.3169 30.2936 13.3812 30.4169 13.3972C30.5401 13.4132 30.6647 13.3796 30.7632 13.3039L31.9859 12.3624C32.0428 12.3187 32.0889 12.2624 32.1206 12.198C32.1522 12.1336 32.1687 12.0628 32.1687 11.991C32.1687 11.9192 32.1522 11.8484 32.1206 11.784C32.0889 11.7196 32.0428 11.6633 31.9859 11.6196L30.7632 10.6781C30.6814 10.615 30.5809 10.5808 30.4776 10.5808Z"
      fill="#1D1E21" />
    <path
      d="M17.5182 37.8316H16.7043C16.58 37.8316 16.4608 37.881 16.3729 37.9689C16.285 38.0568 16.2356 38.176 16.2356 38.3003C16.2356 38.4247 16.285 38.5439 16.3729 38.6318C16.4608 38.7197 16.58 38.7691 16.7043 38.7691H17.5182C17.6425 38.7691 17.7617 38.7197 17.8496 38.6318C17.9376 38.5439 17.9869 38.4247 17.9869 38.3003C17.9869 38.176 17.9376 38.0568 17.8496 37.9689C17.7617 37.881 17.6425 37.8316 17.5182 37.8316ZM20.526 37.8316H19.7121C19.5878 37.8316 19.4686 37.881 19.3807 37.9689C19.2928 38.0568 19.2434 38.176 19.2434 38.3003C19.2434 38.4247 19.2928 38.5439 19.3807 38.6318C19.4686 38.7197 19.5878 38.7691 19.7121 38.7691H20.526C20.6503 38.7691 20.7695 38.7197 20.8574 38.6318C20.9453 38.5439 20.9947 38.4247 20.9947 38.3003C20.9947 38.176 20.9453 38.0568 20.8574 37.9689C20.7695 37.881 20.6503 37.8316 20.526 37.8316ZM28.2878 37.8316H27.474C27.3497 37.8316 27.2304 37.881 27.1425 37.9689C27.0546 38.0568 27.0052 38.176 27.0052 38.3003C27.0052 38.4247 27.0546 38.5439 27.1425 38.6318C27.2304 38.7197 27.3497 38.7691 27.474 38.7691H28.2878C28.4121 38.7691 28.5314 38.7197 28.6193 38.6318C28.7072 38.5439 28.7566 38.4247 28.7566 38.3003C28.7566 38.176 28.7072 38.0568 28.6193 37.9689C28.5314 37.881 28.4121 37.8316 28.2878 37.8316ZM31.2956 37.8316H30.4818C30.3574 37.8316 30.2382 37.881 30.1503 37.9689C30.0624 38.0568 30.013 38.176 30.013 38.3003C30.013 38.4247 30.0624 38.5439 30.1503 38.6318C30.2382 38.7197 30.3574 38.7691 30.4818 38.7691H31.2956C31.4199 38.7691 31.5391 38.7197 31.6271 38.6318C31.715 38.5439 31.7643 38.4247 31.7643 38.3003C31.7643 38.176 31.715 38.0568 31.6271 37.9689C31.5391 37.881 31.4199 37.8316 31.2956 37.8316Z"
      fill="#4B73FF" />
    <path
      d="M40.9947 27.7091C40.256 27.7091 39.655 27.1081 39.655 26.3692C39.655 25.6305 40.256 25.0294 40.9947 25.0294C41.7336 25.0294 42.3346 25.6304 42.3346 26.3692C42.3346 27.1081 41.7336 27.7091 40.9947 27.7091ZM40.9947 25.967C40.7729 25.967 40.5925 26.1474 40.5925 26.3693C40.5925 26.5912 40.7729 26.7717 40.9947 26.7717C41.2166 26.7717 41.3971 26.5912 41.3971 26.3693C41.3971 26.1474 41.2166 25.967 40.9947 25.967ZM6.42865 37.5572C5.6899 37.5572 5.08887 36.9562 5.08887 36.2173C5.08887 35.4786 5.6899 34.8774 6.42865 34.8774C7.16749 34.8774 7.76852 35.4785 7.76852 36.2173C7.76852 36.9562 7.16749 37.5572 6.42865 37.5572ZM6.42865 35.815C6.32198 35.8152 6.21971 35.8576 6.1443 35.933C6.06888 36.0085 6.02647 36.1107 6.02637 36.2174C6.02637 36.4392 6.20684 36.6198 6.42865 36.6198C6.65046 36.6198 6.83102 36.4393 6.83102 36.2174C6.83102 35.9955 6.65055 35.815 6.42865 35.815ZM39.6349 31.7698C39.5106 31.7698 39.3913 31.7204 39.3034 31.6325C39.2155 31.5446 39.1661 31.4254 39.1661 31.3011C39.1661 30.9908 38.9139 30.7386 38.6036 30.7386C38.5421 30.7386 38.4811 30.7264 38.4243 30.7029C38.3674 30.6793 38.3157 30.6448 38.2722 30.6013C38.2287 30.5577 38.1941 30.5061 38.1706 30.4492C38.147 30.3923 38.1349 30.3314 38.1349 30.2698C38.1349 30.2083 38.147 30.1473 38.1706 30.0904C38.1941 30.0336 38.2287 29.9819 38.2722 29.9384C38.3157 29.8948 38.3674 29.8603 38.4243 29.8367C38.4811 29.8132 38.5421 29.8011 38.6036 29.8011C38.9139 29.8011 39.1661 29.5488 39.1661 29.2386C39.1661 29.1142 39.2155 28.995 39.3034 28.9071C39.3913 28.8192 39.5106 28.7698 39.6349 28.7698C39.7592 28.7698 39.8784 28.8192 39.9664 28.9071C40.0543 28.995 40.1036 29.1142 40.1036 29.2386C40.1036 29.5488 40.3559 29.8011 40.6661 29.8011C40.7277 29.8011 40.7887 29.8132 40.8455 29.8367C40.9024 29.8603 40.9541 29.8948 40.9976 29.9384C41.0411 29.9819 41.0757 30.0336 41.0992 30.0904C41.1228 30.1473 41.1349 30.2083 41.1349 30.2698C41.1349 30.3314 41.1228 30.3923 41.0992 30.4492C41.0757 30.5061 41.0411 30.5577 40.9976 30.6013C40.9541 30.6448 40.9024 30.6793 40.8455 30.7029C40.7887 30.7264 40.7277 30.7386 40.6661 30.7386C40.3559 30.7386 40.1036 30.9908 40.1036 31.3011C40.1036 31.4254 40.0543 31.5446 39.9664 31.6325C39.8784 31.7204 39.7592 31.7698 39.6349 31.7698ZM7.87868 31.4811C7.75436 31.4811 7.63513 31.4317 7.54722 31.3438C7.45932 31.2559 7.40993 31.1366 7.40993 31.0123C7.40993 30.7021 7.15765 30.4498 6.84743 30.4498C6.72311 30.4498 6.60388 30.4004 6.51597 30.3125C6.42807 30.2246 6.37868 30.1054 6.37868 29.9811C6.37868 29.8567 6.42807 29.7375 6.51597 29.6496C6.60388 29.5617 6.72311 29.5123 6.84743 29.5123C7.15765 29.5123 7.40993 29.26 7.40993 28.9498C7.40993 28.8255 7.45932 28.7063 7.54722 28.6184C7.63513 28.5304 7.75436 28.4811 7.87868 28.4811C8.003 28.4811 8.12223 28.5304 8.21014 28.6184C8.29804 28.7063 8.34743 28.8255 8.34743 28.9498C8.34743 29.26 8.59971 29.5123 8.90993 29.5123C9.03425 29.5123 9.15348 29.5617 9.24139 29.6496C9.32929 29.7375 9.37868 29.8567 9.37868 29.9811C9.37868 30.1054 9.32929 30.2246 9.24139 30.3125C9.15348 30.4004 9.03425 30.4498 8.90993 30.4498C8.59971 30.4498 8.34743 30.7021 8.34743 31.0123C8.34743 31.1366 8.29804 31.2559 8.21014 31.3438C8.12223 31.4317 8.003 31.4811 7.87868 31.4811ZM40.1424 12.4235C40.018 12.4235 39.8988 12.3741 39.8109 12.2862C39.723 12.1983 39.6736 12.079 39.6736 11.9547C39.6736 11.6445 39.4213 11.3922 39.1111 11.3922C38.9868 11.3922 38.8676 11.3428 38.7797 11.2549C38.6918 11.167 38.6424 11.0478 38.6424 10.9235C38.6424 10.7991 38.6918 10.6799 38.7797 10.592C38.8676 10.5041 38.9868 10.4547 39.1111 10.4547C39.4213 10.4547 39.6736 10.2024 39.6736 9.89222C39.6736 9.7679 39.723 9.64867 39.8109 9.56076C39.8988 9.47285 40.018 9.42347 40.1424 9.42347C40.2667 9.42347 40.3859 9.47285 40.4738 9.56076C40.5617 9.64867 40.6111 9.7679 40.6111 9.89222C40.6111 10.2024 40.8634 10.4547 41.1736 10.4547C41.2979 10.4547 41.4172 10.5041 41.5051 10.592C41.593 10.6799 41.6424 10.7991 41.6424 10.9235C41.6424 11.0478 41.593 11.167 41.5051 11.2549C41.4172 11.3428 41.2979 11.3922 41.1736 11.3922C40.8634 11.3922 40.6111 11.6445 40.6111 11.9547C40.6111 12.079 40.5617 12.1983 40.4738 12.2862C40.3859 12.3741 40.2667 12.4235 40.1424 12.4235Z"
      fill="#4B73FF" />
  </g>
  <defs>
    <linearGradient id="paint0_linear_320_19093" x1="0.442744" y1="42.108" x2="36.5594"
      y2="-0.934126" gradientUnits="userSpaceOnUse">
      <stop stop-color="#4B73FF" stop-opacity="0" />
      <stop offset="1" stop-color="#4B73FF" />
    </linearGradient>
    <clipPath id="clip0_320_19093">
      <rect width="48" height="48" fill="white" />
    </clipPath>
  </defs>
</svg>