<svg width="96" height="96" viewBox="0 0 96 96" fill="none" xmlns="http://www.w3.org/2000/svg">
  <g clip-path="url(#clip0_320_19396)">
    <path opacity="0.5"
      d="M92.5995 12.3889C92.9334 2.87248 82.1141 -6.04559 76.4075 5.36548C62.3998 33.3754 18.9245 -10.6744 4.78402 15.7777C-1.36223 27.2752 14.5468 36.0547 19.5823 45.4303C27.362 59.9152 11.0321 74.4213 14.2346 88.1533C16.5189 97.9481 29.9647 97.62 37.2856 92.375C45.7308 86.3246 47.3923 76.4004 49.4876 67.0314C54.7715 43.4038 91.6485 39.4925 92.5995 12.3889Z"
      fill="url(#paint0_linear_320_19396)" />
    <path
      d="M83.4902 48.5855C81.6129 47.9023 79.5371 48.8701 78.8539 50.7476L80.84 45.2906C81.5233 43.4133 80.5554 41.3375 78.678 40.6541C77.4767 40.2168 76.1959 40.4583 75.249 41.1789V17.9851C75.2489 17.4964 75.0579 17.027 74.7166 16.677C74.3754 16.3271 73.911 16.1243 73.4224 16.1118C60.5713 15.7845 51.3889 12.0933 48.7652 10.9134C48.5245 10.8051 48.2636 10.7491 47.9997 10.7491C47.7358 10.7491 47.4749 10.8051 47.2342 10.9134C44.6105 12.0933 35.4281 15.7845 22.5769 16.1118C21.5608 16.1377 20.7502 16.9689 20.7502 17.9851V41.1783C19.8034 40.4581 18.5229 40.217 17.322 40.6541C15.4447 41.3373 14.4767 43.4131 15.1601 45.2906L17.1463 50.7476C16.463 48.8703 14.3872 47.9023 12.51 48.5855C10.6327 49.2688 9.66467 51.3446 10.3481 53.2218L18.2087 74.8185C19.9545 79.6147 23.9735 82.9231 28.6057 83.9782V87.7455C28.6057 91.1981 31.4047 93.9971 34.8574 93.9971C38.31 93.9971 41.109 91.1981 41.109 87.7455V80.9553C43.0329 79.3404 44.481 77.2618 45.3484 74.9553C45.7251 75.4661 46.0852 75.9889 46.428 76.523C47.1594 77.6662 48.8398 77.6662 49.5714 76.523C49.9144 75.9887 50.2746 75.4656 50.6514 74.9546C51.5188 77.261 52.9667 79.3396 54.8904 80.9548V87.7455C54.8904 91.1981 57.6894 93.9971 61.142 93.9971C64.5949 93.9971 67.3937 91.1981 67.3937 87.7455V83.9784C72.0262 82.9235 76.0457 79.6151 77.7915 74.8185L85.652 53.2218C86.3353 51.3446 85.3674 49.2688 83.4902 48.5855Z"
      fill="#17DE8A" fill-opacity="0.0627451" />
    <path
      d="M34.8571 89.4971C31.4045 89.4971 28.6055 86.6981 28.6055 83.2455V75.0296H41.1087V83.2455C41.1087 86.6981 38.3097 89.4971 34.8571 89.4971ZM61.142 89.4971C57.6893 89.4971 54.8903 86.6981 54.8903 83.2455V75.0296H67.3936V83.2455C67.3936 86.6981 64.5946 89.4971 61.142 89.4971Z"
      fill="#1D1E21" />
    <path
      d="M68.3284 79.2367C65.4519 80.0966 62.2841 80.0719 59.246 78.9662C51.7369 76.233 47.8652 67.9299 50.5982 60.4209L56.969 42.917C57.6523 41.0398 59.7281 40.0717 61.6053 40.755C63.4826 41.4382 64.4507 43.514 63.7672 45.3913L65.7534 39.9343C66.4367 38.057 68.5125 37.089 70.3897 37.7722C72.267 38.4555 73.235 40.5313 72.5516 42.4085L74.0413 38.3158C74.7245 36.4385 76.8003 35.4705 78.6776 36.1537C80.5548 36.837 81.5229 38.9128 80.8395 40.79L78.8533 46.247C79.5365 44.3698 81.6123 43.4017 83.4896 44.085C85.3668 44.7682 86.3347 46.844 85.6515 48.7213L81.4725 60.203L68.3284 79.2367Z"
      fill="#1D1E21" />
    <path
      d="M79.3567 55.4856C78.907 55.3157 78.4277 55.2379 77.9474 55.2568C77.467 55.2757 76.9954 55.3908 76.5604 55.5954C76.1293 55.7957 75.7421 56.0792 75.421 56.4297C75.0999 56.7801 74.8512 57.1906 74.6893 57.6375L72.5914 63.4014L67.7645 64.4062C66.5545 64.6584 65.4289 65.2153 64.4944 66.0242C63.5599 66.8332 62.8473 67.8673 62.4244 69.0287L61.4044 72.195C60.0238 76.4805 64.023 80.556 68.3334 79.2551C72.5516 77.9822 76.1383 74.8056 77.7611 70.3466L81.455 60.1974C82.1394 58.3181 81.2297 56.1872 79.3567 55.4856ZM14.5138 60.1687L10.3475 48.7219C9.66429 46.8446 10.6322 44.7688 12.5094 44.0856C14.3867 43.4023 16.4625 44.3702 17.1457 46.2476L15.1595 40.7906C14.4763 38.9134 15.4442 36.8376 17.3214 36.1543C19.1987 35.4711 21.2745 36.4389 21.9577 38.3164L23.4474 42.4091C22.7642 40.5319 23.732 38.4561 25.6093 37.7728C27.4865 37.0896 29.5624 38.0574 30.2456 39.9349L32.2318 45.3919C31.5485 43.5146 32.5164 41.4388 34.3937 40.7556C36.2709 40.0723 38.3467 41.0402 39.03 42.9176L45.4009 60.4215C48.134 67.9307 44.2622 76.2337 36.753 78.9667C33.7025 80.0769 30.5212 80.0974 27.6354 79.2266L14.5138 60.1687Z"
      fill="#1D1E21" />
    <path
      d="M16.6125 55.4569C17.0622 55.287 17.5415 55.2092 18.0219 55.2281C18.5022 55.247 18.9739 55.3621 19.4089 55.5667C19.8399 55.767 20.2272 56.0506 20.5483 56.401C20.8694 56.7515 21.118 57.1619 21.28 57.6088L23.3779 63.3727L28.2047 64.3775C29.4147 64.6297 30.5403 65.1866 31.4749 65.9955C32.4094 66.8045 33.1219 67.8386 33.5449 69L34.5649 72.1663C35.9455 76.4518 31.9463 80.5273 27.6358 79.2264C23.4176 77.9535 19.831 74.7769 18.2081 70.3179L14.514 60.1687C13.8298 58.2892 14.7398 56.1585 16.6125 55.4569ZM75.249 24.4275V43.1212L74.3111 44.0587H21.6874L20.7503 43.1212V24.4275L21.6878 23.49H74.3115L75.249 24.4275Z"
      fill="#1D1E21" />
    <path
      d="M75.2487 24.4278V13.4851C75.2487 12.9964 75.0576 12.527 74.7164 12.177C74.3752 11.8271 73.9107 11.6243 73.4221 11.6118C60.5711 11.2845 51.3886 7.59333 48.7649 6.4134C48.5243 6.30513 48.2634 6.24915 47.9995 6.24915C47.7356 6.24915 47.4747 6.30513 47.234 6.4134C44.6103 7.59333 35.4279 11.2845 22.5766 11.6118C21.5606 11.6377 20.75 12.4689 20.75 13.4851V24.4278H75.2487Z"
      fill="#17DE8A" />
    <path
      d="M45.8643 71.1795C46.0559 71.457 46.2449 71.7373 46.4277 72.0231C47.1591 73.1663 48.8395 73.1663 49.5711 72.0231C49.754 71.7386 49.9418 71.4574 50.1346 71.1795H45.8643Z"
      fill="#17DE8A" />
    <path
      d="M20.75 43.1216C20.75 49.4731 24.3673 55.2575 30.0605 58.0732C35.5342 60.7805 42.1904 65.1735 46.4277 71.795C47.1592 72.9382 48.8396 72.9382 49.5712 71.795C53.8083 65.1735 60.4646 60.7805 65.9384 58.0732C71.6317 55.2573 75.2489 49.473 75.2489 43.1216H20.75Z"
      fill="#17DE8A" />
    <path
      d="M69.6242 24.4275V43.35C69.6242 47.5762 67.2561 51.3731 63.4442 53.2594C59.0474 55.4325 53.3717 58.9144 48.6861 64.0106C48.5982 64.1066 48.4912 64.1833 48.372 64.2357C48.2528 64.288 48.124 64.315 47.9938 64.3148C47.8636 64.3146 47.7349 64.2873 47.6158 64.2346C47.4968 64.1819 47.39 64.105 47.3024 64.0087C44.0867 60.51 39.3749 56.6325 32.5536 53.2594C28.7436 51.3731 26.3755 47.5762 26.3755 43.35V24.4275L27.3096 23.49H68.6864L69.6242 24.4275Z"
      fill="#1D1E21" />
    <path
      d="M47.9994 59.3662C44.1813 55.7165 39.5611 52.541 34.2166 49.8978C31.6929 48.6495 30.125 46.1402 30.125 43.3494V20.4626C38.0283 19.5356 44.2533 17.6201 47.9994 16.2202C51.7451 17.6199 57.9701 19.5354 65.8737 20.4624V43.3494C65.8737 46.1402 64.3059 48.6495 61.7819 49.8978C57.9333 51.8012 52.7051 54.8882 47.9994 59.3662Z"
      fill="#17DE8A" />
    <path
      d="M69.6238 24.4278V17.9197C69.6238 17.4341 69.2525 17.0272 68.7684 16.9861C59.2723 16.1806 52.0083 13.7831 48.3421 12.3348C48.1218 12.2474 47.8765 12.2474 47.6563 12.3348C43.9893 13.7835 36.7265 16.1812 27.2304 16.9863C26.9968 17.0066 26.7794 17.1138 26.621 17.2866C26.4626 17.4595 26.3748 17.6854 26.375 17.9199V24.4278H69.6238Z"
      fill="#17DE8A" />
    <path
      d="M68.8477 16.052C59.3806 15.2492 52.1527 12.8321 48.6866 11.4628C48.2451 11.2875 47.7534 11.2875 47.312 11.4628C43.8457 12.8323 36.617 15.2494 27.1512 16.052C26.1903 16.1336 25.4375 16.9539 25.4375 17.9197V43.3494C25.4375 47.9359 28.0051 52.055 32.1386 54.0994C37.9565 56.9769 42.8264 60.5244 46.613 64.6432C46.7892 64.8347 47.0032 64.9877 47.2415 65.0924C47.4797 65.1972 47.7371 65.2514 47.9973 65.2519C48.5199 65.2519 49.0226 65.0308 49.3766 64.6457C54.0882 59.519 59.8533 56.0809 63.86 54.0994C67.9934 52.055 70.5611 47.9359 70.5611 43.3494V17.9197C70.5612 16.9539 69.8084 16.1336 68.8477 16.052ZM47.9979 13.2069C51.5592 14.6139 58.9833 17.0974 68.6862 17.9199V23.4905H27.3103L27.3097 17.9207C37.0141 17.0977 44.4389 14.6139 47.9979 13.2069ZM63.0288 52.4188C58.8794 54.4708 52.9031 58.0378 47.996 63.3767L47.9932 63.3742C44.0501 59.0848 38.9952 55.3987 32.9697 52.4186C29.4802 50.6925 27.3123 47.2174 27.3123 43.3492L27.3103 25.3652H68.6861V43.3492C68.6862 47.2175 66.5186 50.6927 63.0288 52.4188Z"
      fill="#1D1E21" />
    <path
      d="M83.8102 43.2039C82.9053 42.8741 81.9188 42.841 80.9938 43.1094L81.7218 41.1111C82.5795 38.7519 81.3585 36.1329 78.9992 35.2727C78.0958 34.9427 77.1111 34.9078 76.1867 35.1729V27.0611C76.1867 26.5432 75.767 26.1236 75.2492 26.1236C74.7313 26.1236 74.3117 26.5432 74.3117 27.0611V43.3494C74.3117 49.3723 70.944 54.7796 65.523 57.4609C60.3528 60.0182 53.2517 64.5326 48.7817 71.5177C48.536 71.9016 48.153 71.943 47.9996 71.943C47.8464 71.943 47.4633 71.9016 47.2177 71.5177C45.5368 68.8911 43.3558 66.4125 40.7351 64.1514C40.6419 64.071 40.5337 64.0097 40.4168 63.9711C40.3 63.9324 40.1766 63.9172 40.0538 63.9262C39.931 63.9353 39.8112 63.9684 39.7013 64.0237C39.5913 64.0791 39.4933 64.1555 39.4128 64.2487C39.3324 64.342 39.2711 64.4501 39.2325 64.567C39.1938 64.6839 39.1786 64.8072 39.1877 64.93C39.1967 65.0528 39.2298 65.1726 39.2852 65.2826C39.3405 65.3926 39.4169 65.4906 39.5102 65.571C41.337 67.1473 42.9347 68.8311 44.2824 70.5956C42.8246 74.0749 39.9913 76.7902 36.4333 78.0849C33.0373 79.3215 29.3623 79.1612 26.0865 77.6336C22.8107 76.1062 20.3257 73.3944 19.0893 69.9977L15.3954 59.8481C14.8773 58.4246 15.5713 56.8485 16.9419 56.3349C17.6227 56.0796 18.3577 56.1084 19.0134 56.4167C19.333 56.5646 19.6201 56.7745 19.8581 57.0342C20.0961 57.2939 20.2802 57.5981 20.3998 57.9294L22.4975 63.6934C22.5522 63.8434 22.6442 63.9771 22.765 64.0816C22.8857 64.1862 23.0312 64.2582 23.1875 64.2907L28.0138 65.2952C30.1668 65.7444 31.902 67.2427 32.6585 69.3047L33.6729 72.4538C33.8546 73.0174 33.9302 73.5913 33.8981 74.16C33.8904 74.2834 33.9071 74.407 33.9474 74.5239C33.9877 74.6408 34.0506 74.7485 34.1327 74.841C34.2148 74.9334 34.3143 75.0087 34.4256 75.0625C34.5368 75.1163 34.6577 75.1476 34.7811 75.1545C34.9045 75.1615 35.0281 75.144 35.1447 75.103C35.2613 75.062 35.3686 74.9983 35.4606 74.9157C35.5525 74.8331 35.6271 74.7331 35.6803 74.6214C35.7334 74.5098 35.7639 74.3888 35.7701 74.2654C35.8151 73.4659 35.7101 72.663 35.4575 71.8789L34.4375 68.7124C34.434 68.7012 34.4302 68.6901 34.4261 68.6792C33.4492 65.9949 31.1953 64.0436 28.3961 63.4594L24.0806 62.5612L16.0404 40.4702C15.5357 39.0819 16.2543 37.5407 17.6415 37.035C17.9937 36.9063 18.3691 36.8532 18.7431 36.8792C19.1172 36.9052 19.4817 37.0096 19.8127 37.1857V43.3496C19.8127 50.0908 23.5803 56.1422 29.645 59.1416C31.6093 60.1132 33.483 61.1865 35.214 62.3316C35.3166 62.3995 35.4317 62.4466 35.5525 62.4701C35.6734 62.4936 35.7977 62.4931 35.9184 62.4685C36.039 62.4439 36.1537 62.3958 36.2557 62.3269C36.3578 62.258 36.4453 62.1697 36.5132 62.067C36.5811 61.9643 36.6281 61.8493 36.6516 61.7284C36.6751 61.6076 36.6745 61.4833 36.65 61.3626C36.6254 61.242 36.5773 61.1273 36.5084 61.0253C36.4396 60.9232 36.3513 60.8357 36.2486 60.7678C34.4525 59.5796 32.5104 58.467 30.4764 57.4611C25.0554 54.7798 21.6877 49.3727 21.6877 43.3496V13.4854C21.6865 13.2407 21.7815 13.0053 21.9523 12.8302C22.1232 12.655 22.356 12.554 22.6007 12.549C35.6585 12.2166 45.051 8.42325 47.619 7.26844C47.7387 7.21456 47.8685 7.18672 47.9998 7.18675C48.1311 7.18679 48.2609 7.21469 48.3806 7.26862C50.948 8.42306 60.3401 12.2164 73.3985 12.549C73.6432 12.5539 73.8761 12.6549 74.047 12.8301C74.2178 13.0053 74.3129 13.2407 74.3117 13.4854V21.5227C74.3117 22.0406 74.7313 22.4602 75.2492 22.4602C75.767 22.4602 76.1867 22.0406 76.1867 21.5227V13.4854C76.1867 11.9486 74.9831 10.7139 73.4463 10.6747C60.738 10.3509 51.6365 6.67687 49.1499 5.55862C48.7883 5.39609 48.3963 5.31204 47.9999 5.31201C47.6034 5.31198 47.2115 5.39597 46.8498 5.55844C44.3628 6.67687 35.2608 10.3511 22.553 10.6747C21.0165 10.7139 19.8129 11.9486 19.8129 13.4854V35.1729C18.8883 34.908 17.9036 34.9431 17.0002 35.2731C14.6417 36.1329 13.4207 38.7519 14.2785 41.1114L15.0063 43.1096C14.0808 42.8411 13.0938 42.8743 12.1884 43.2045C10.3957 43.8592 9.19141 45.5794 9.19141 47.4844C9.19141 48.0124 9.28403 48.5361 9.46741 49.0425L17.3272 70.6387C18.735 74.5061 21.5643 77.5937 25.2937 79.3327C26.0598 79.6903 26.8537 79.985 27.6675 80.214V83.2462C27.6675 87.2102 30.893 90.435 34.8581 90.435C38.822 90.435 42.0468 87.2102 42.0468 83.2462V76.8791C43.4792 75.6044 44.6609 74.0734 45.5312 72.3649C45.5666 72.4194 45.6032 72.4738 45.6382 72.5286C46.155 73.3361 47.0377 73.818 47.9996 73.818C48.9617 73.818 49.8444 73.3361 50.3612 72.5286C50.3964 72.4734 50.4333 72.4196 50.469 72.3649C51.3392 74.0735 52.5209 75.6045 53.9533 76.8793V83.2464C53.9533 87.2104 57.1781 90.4352 61.142 90.4352C65.106 90.4352 68.3308 87.2104 68.3308 83.2464V80.2035C72.9528 78.9082 76.9095 75.4837 78.6731 70.6389L86.5337 49.0412C86.7154 48.5423 86.8086 48.0155 86.8091 47.4846C86.8087 45.5794 85.6044 43.8594 83.8102 43.2039ZM14.1123 56.3237L11.2295 48.4027C11.1221 48.1085 11.0668 47.7978 11.0662 47.4846C11.0662 46.3637 11.7757 45.3516 12.8302 44.9662C14.2166 44.4624 15.755 45.1777 16.2637 46.5621C16.2645 46.5641 16.2647 46.5662 16.2652 46.5682L19.139 54.4659C18.2066 54.1944 17.2151 54.2301 16.2836 54.579C15.3622 54.9242 14.6203 55.5484 14.1123 56.3237ZM40.1718 83.2462C40.1718 86.1763 37.7882 88.56 34.8581 88.56C31.9271 88.56 29.5425 86.1763 29.5425 83.2462V80.6151C30.288 80.7272 31.0409 80.7837 31.7949 80.7842C33.5722 80.7842 35.3544 80.4726 37.0742 79.8465C38.1614 79.45 39.2005 78.9323 40.1718 78.3032V83.2462ZM66.4556 83.2462C66.4556 86.1763 64.0719 88.56 61.1418 88.56C58.2118 88.56 55.8281 86.1763 55.8281 83.2462V78.3032C56.7994 78.9323 57.8385 79.45 58.9258 79.8465C60.6094 80.4614 62.3877 80.7763 64.1801 80.7769C64.9418 80.7765 65.7024 80.7194 66.4556 80.6059V83.2462ZM80.5747 59.8768L76.911 69.9977C74.3585 77.0092 66.578 80.6368 59.5668 78.0849C56.009 76.7902 53.1755 74.0751 51.7179 70.596C55.9522 65.0563 61.8971 61.3461 66.3542 59.1416C72.419 56.142 76.1865 50.0908 76.1865 43.3496V37.1861C76.5174 37.0098 76.8818 36.9052 77.2559 36.8791C77.6299 36.853 78.0053 36.906 78.3575 37.0346C79.7456 37.5407 80.4643 39.0819 79.9597 40.4698L71.8893 62.5899L67.5733 63.4882C64.7747 64.0723 62.5207 66.0234 61.5438 68.7079C61.5399 68.7189 61.536 68.73 61.5324 68.7411L60.5126 71.9074C60.2638 72.6797 60.1578 73.4713 60.1982 74.2599C60.2027 74.3841 60.232 74.5061 60.2841 74.6188C60.3363 74.7316 60.4103 74.8328 60.5019 74.9167C60.5935 75.0006 60.7009 75.0654 60.8178 75.1075C60.9347 75.1495 61.0588 75.1679 61.1828 75.1615C61.3069 75.1552 61.4285 75.1243 61.5405 75.0706C61.6525 75.0168 61.7527 74.9414 61.8353 74.8486C61.9179 74.7558 61.9812 74.6475 62.0216 74.5301C62.062 74.4126 62.0786 74.2883 62.0705 74.1643C62.042 73.6035 62.1182 73.0376 62.297 72.4824L63.3114 69.3332C64.0678 67.2714 65.8031 65.7731 67.9558 65.3239L72.7826 64.3192C72.9389 64.2866 73.0844 64.2146 73.2051 64.1101C73.3258 64.0056 73.4179 63.8719 73.4726 63.7219L75.5707 57.9574C75.6906 57.6258 75.875 57.3213 76.1134 57.0614C76.3518 56.8016 76.6393 56.5916 76.9593 56.4437C77.6126 56.1367 78.3478 56.1082 79.0282 56.3632C80.3992 56.8772 81.093 58.4531 80.5747 59.8768ZM84.771 48.4012L81.8701 56.3715C81.362 55.5874 80.615 54.9559 79.686 54.6077C78.7569 54.2597 77.7671 54.2235 76.8375 54.4927L79.7342 46.5696C79.7351 46.5671 79.7351 46.5647 79.736 46.5622C80.2445 45.1783 81.7831 44.4624 83.168 44.9657C84.224 45.3516 84.9335 46.3637 84.9335 47.4846C84.9337 47.7941 84.879 48.1033 84.771 48.4012Z"
      fill="#17DE8A" />
    <path
      d="M44.5322 42.125L39.1953 36.7882C38.4632 36.056 37.2759 36.056 36.5437 36.7882L34.5174 38.8145C33.7852 39.5467 33.7852 40.734 34.5174 41.4662L43.2063 50.1551C43.9385 50.8873 45.1258 50.8873 45.858 50.1551L61.4818 34.5313C62.214 33.7991 62.214 32.6118 61.4818 31.8797L59.4555 29.8533C58.7233 29.1212 57.536 29.1212 56.8038 29.8533L44.5322 42.125Z"
      fill="#1D1E21" />
    <path
      d="M51.0196 17.9379C50.771 17.9379 50.5325 18.0367 50.3567 18.2125C50.1809 18.3883 50.0821 18.6268 50.0821 18.8754V18.897C50.0821 19.1456 50.1809 19.3841 50.3567 19.5599C50.5325 19.7357 50.771 19.8345 51.0196 19.8345C51.2683 19.8345 51.5067 19.7357 51.6825 19.5599C51.8583 19.3841 51.9571 19.1456 51.9571 18.897V18.8754C51.9571 18.6268 51.8583 18.3883 51.6825 18.2125C51.5067 18.0367 51.2683 17.9379 51.0196 17.9379ZM47.9996 17.9379C47.7509 17.9379 47.5125 18.0367 47.3366 18.2125C47.1608 18.3883 47.0621 18.6268 47.0621 18.8754V18.897C47.0621 19.1456 47.1608 19.3841 47.3366 19.5599C47.5125 19.7357 47.7509 19.8345 47.9996 19.8345C48.2482 19.8345 48.4867 19.7357 48.6625 19.5599C48.8383 19.3841 48.9371 19.1456 48.9371 18.897V18.8754C48.9371 18.6268 48.8383 18.3883 48.6625 18.2125C48.4867 18.0367 48.2482 17.9379 47.9996 17.9379ZM44.9795 17.9379C44.7309 17.9379 44.4924 18.0367 44.3166 18.2125C44.1408 18.3883 44.042 18.6268 44.042 18.8754V18.897C44.042 19.1456 44.1408 19.3841 44.3166 19.5599C44.4924 19.7357 44.7309 19.8345 44.9795 19.8345C45.2281 19.8345 45.4666 19.7357 45.6424 19.5599C45.8182 19.3841 45.917 19.1456 45.917 18.897V18.8754C45.917 18.6268 45.8182 18.3883 45.6424 18.2125C45.4666 18.0367 45.2281 17.9379 44.9795 17.9379Z"
      fill="#1D1E21" />
    <path
      d="M76.7714 86.3165C76.5228 86.3165 76.2843 86.2178 76.1085 86.0419C75.9327 85.8661 75.8339 85.6277 75.8339 85.379C75.8336 85.0642 75.7084 84.7623 75.4858 84.5397C75.2632 84.3171 74.9613 84.1918 74.6465 84.1914C74.1286 84.1914 73.709 83.7718 73.709 83.2539C73.709 82.736 74.1286 82.3164 74.6465 82.3164C74.9613 82.3161 75.2632 82.1908 75.4858 81.9682C75.7084 81.7456 75.8336 81.4438 75.8339 81.129C75.8339 80.6111 76.2536 80.1915 76.7714 80.1915C77.2893 80.1915 77.7089 80.6111 77.7089 81.129C77.7093 81.4438 77.8346 81.7456 78.0572 81.9682C78.2799 82.1908 78.5817 82.3161 78.8966 82.3164C79.4144 82.3164 79.8341 82.736 79.8341 83.2539C79.8341 83.7718 79.4144 84.1914 78.8966 84.1914C78.5817 84.1918 78.2799 84.317 78.0572 84.5397C77.8346 84.7623 77.7093 85.0642 77.7089 85.379C77.7089 85.6277 77.6102 85.8661 77.4343 86.0419C77.2585 86.2178 77.0201 86.3165 76.7714 86.3165ZM15.0209 10.3558C14.7723 10.3558 14.5338 10.257 14.358 10.0812C14.1822 9.90537 14.0834 9.66692 14.0834 9.41828C14.083 9.10344 13.9578 8.80161 13.7351 8.579C13.5125 8.3564 13.2107 8.23118 12.8958 8.23084C12.3779 8.23084 11.9583 7.81121 11.9583 7.29334C11.9583 6.77546 12.3779 6.35584 12.8958 6.35584C13.2107 6.35544 13.5125 6.23019 13.7352 6.00755C13.9578 5.78492 14.083 5.48307 14.0834 5.16821C14.0834 4.65034 14.5031 4.23071 15.0209 4.23071C15.5388 4.23071 15.9584 4.65034 15.9584 5.16821C15.9588 5.48305 16.084 5.7849 16.3066 6.00754C16.5292 6.23018 16.831 6.35544 17.1459 6.35584C17.6638 6.35584 18.0834 6.77546 18.0834 7.29334C18.0834 7.81121 17.6638 8.23084 17.1459 8.23084C16.8311 8.23119 16.5292 8.3564 16.3066 8.57901C16.084 8.80163 15.9588 9.10345 15.9584 9.41828C15.9584 9.66692 15.8597 9.90537 15.6839 10.0812C15.508 10.257 15.2696 10.3558 15.0209 10.3558ZM14.2871 27.9759C14.1639 27.9761 14.042 27.9519 13.9282 27.9048C13.8145 27.8576 13.7112 27.7884 13.6243 27.7012L12.5996 26.6767L11.5749 27.7012C11.4879 27.7883 11.3845 27.8574 11.2708 27.9045C11.1571 27.9516 11.0352 27.9759 10.9121 27.9759C10.789 27.9759 10.6671 27.9516 10.5533 27.9045C10.4396 27.8574 10.3363 27.7883 10.2493 27.7012C10.1622 27.6142 10.0931 27.5109 10.046 27.3971C9.99886 27.2834 9.97461 27.1615 9.97461 27.0384C9.97461 26.9153 9.99886 26.7934 10.046 26.6797C10.0931 26.5659 10.1622 26.4626 10.2493 26.3756L11.9368 24.6881C12.0238 24.601 12.1271 24.5319 12.2408 24.4848C12.3546 24.4377 12.4765 24.4134 12.5996 24.4134C12.7227 24.4134 12.8446 24.4377 12.9583 24.4848C13.072 24.5319 13.1754 24.601 13.2624 24.6881L14.9499 26.3756C15.0369 26.4626 15.106 26.5659 15.1531 26.6797C15.2003 26.7934 15.2245 26.9153 15.2245 27.0384C15.2245 27.1615 15.2003 27.2834 15.1531 27.3971C15.106 27.5109 15.0369 27.6142 14.9499 27.7012C14.863 27.7885 14.7597 27.8576 14.6459 27.9048C14.5322 27.9519 14.4102 27.9761 14.2871 27.9759ZM84.7858 21.2055C84.6626 21.2056 84.5407 21.1815 84.4269 21.1343C84.3132 21.0872 84.2099 21.018 84.1229 20.9308L83.0983 19.9063L82.0736 20.9308C81.9865 21.0178 81.8832 21.0869 81.7695 21.134C81.6558 21.1812 81.5339 21.2054 81.4108 21.2054C81.2876 21.2054 81.1657 21.1812 81.052 21.134C80.9383 21.0869 80.835 21.0178 80.7479 20.9308C80.6609 20.8438 80.5918 20.7404 80.5447 20.6267C80.4976 20.513 80.4733 20.3911 80.4733 20.268C80.4733 20.1449 80.4976 20.023 80.5447 19.9092C80.5918 19.7955 80.6609 19.6922 80.7479 19.6051L82.4354 17.9176C82.5225 17.8306 82.6258 17.7615 82.7395 17.7144C82.8532 17.6673 82.9751 17.643 83.0983 17.643C83.2214 17.643 83.3433 17.6673 83.457 17.7144C83.5707 17.7615 83.674 17.8306 83.7611 17.9176L85.4486 19.6051C85.5798 19.7362 85.6692 19.9032 85.7055 20.0851C85.7418 20.267 85.7232 20.4556 85.6523 20.6269C85.5813 20.7983 85.4611 20.9447 85.3068 21.0477C85.1526 21.1507 84.9712 21.2056 84.7858 21.2055ZM12.5996 71.5899C12.4764 71.5901 12.3545 71.5659 12.2407 71.5188C12.127 71.4716 12.0237 71.4024 11.9368 71.3152L10.9121 70.2907L9.88738 71.3152C9.80035 71.4023 9.69702 71.4714 9.5833 71.5185C9.46957 71.5656 9.34767 71.5899 9.22457 71.5899C9.10146 71.5899 8.97956 71.5656 8.86583 71.5185C8.75211 71.4714 8.64878 71.4023 8.56175 71.3152C8.47468 71.2282 8.40561 71.1249 8.35849 71.0111C8.31136 70.8974 8.28711 70.7755 8.28711 70.6524C8.28711 70.5293 8.31136 70.4074 8.35849 70.2937C8.40561 70.1799 8.47468 70.0766 8.56175 69.9896L10.2493 68.3021C10.3363 68.215 10.4396 68.146 10.5533 68.0988C10.6671 68.0517 10.789 68.0274 10.9121 68.0274C11.0352 68.0274 11.1571 68.0517 11.2708 68.0988C11.3845 68.146 11.4879 68.215 11.5749 68.3021L13.2624 69.9896C13.3494 70.0766 13.4185 70.1799 13.4656 70.2937C13.5128 70.4074 13.537 70.5293 13.537 70.6524C13.537 70.7755 13.5128 70.8974 13.4656 71.0111C13.4185 71.1249 13.3494 71.2282 13.2624 71.3152C13.1755 71.4025 13.0722 71.4716 12.9584 71.5188C12.8447 71.5659 12.7227 71.5901 12.5996 71.5899Z"
      fill="#17DE8A" />
  </g>
  <defs>
    <linearGradient id="paint0_linear_320_19396" x1="-0.662292" y1="75.3888" x2="80.4478"
      y2="-5.72121" gradientUnits="userSpaceOnUse">
      <stop stop-color="#17DE8A" stop-opacity="0" />
      <stop offset="1" stop-color="#17DE8A" />
    </linearGradient>
    <clipPath id="clip0_320_19396">
      <rect width="96" height="96" fill="white" />
    </clipPath>
  </defs>
</svg>