<svg width="80" height="80" viewBox="0 0 80 80" fill="none" xmlns="http://www.w3.org/2000/svg">
  <rect width="80" height="80" rx="40" fill="#2A2B2F" />
  <path fill-rule="evenodd" clip-rule="evenodd"
    d="M32.5 30C32.5 28.0109 33.2902 26.1032 34.6967 24.6967C36.1032 23.2902 38.0109 22.5 40 22.5C41.9891 22.5 43.8968 23.2902 45.3033 24.6967C46.7098 26.1032 47.5 28.0109 47.5 30C47.5 31.9891 46.7098 33.8968 45.3033 35.3033C43.8968 36.7098 41.9891 37.5 40 37.5C38.0109 37.5 36.1032 36.7098 34.6967 35.3033C33.2902 33.8968 32.5 31.9891 32.5 30ZM26.2517 53.5083C26.3079 49.8991 27.7811 46.4568 30.3533 43.9243C32.9255 41.3918 36.3904 39.9724 40 39.9724C43.6096 39.9724 47.0745 41.3918 49.6467 43.9243C52.2189 46.4568 53.6921 49.8991 53.7483 53.5083C53.7527 53.7513 53.6861 53.9903 53.5567 54.196C53.4274 54.4017 53.2409 54.5653 53.02 54.6667C48.9353 56.5395 44.4936 57.5061 40 57.5C35.3567 57.5 30.945 56.4867 26.98 54.6667C26.7591 54.5653 26.5726 54.4017 26.4433 54.196C26.3139 53.9903 26.2473 53.7513 26.2517 53.5083Z"
    fill="#8A8C8D" />
</svg>