<svg width="21" height="20" viewBox="0 0 21 20" fill="none" xmlns="http://www.w3.org/2000/svg">
  <g clip-path="url(#clip0_340_1100)">
    <path
      d="M10.5 2.5C12.4466 4.22215 14.9871 5.11881 17.5834 5C17.9614 6.28585 18.077 7.63456 17.9235 8.96598C17.7699 10.2974 17.3503 11.5844 16.6895 12.7504C16.0288 13.9165 15.1404 14.9378 14.0771 15.7537C13.0138 16.5696 11.7973 17.1635 10.5 17.5C9.2027 17.1635 7.98626 16.5696 6.92298 15.7537C5.8597 14.9378 4.97128 13.9165 4.31052 12.7504C3.64976 11.5844 3.23014 10.2974 3.07659 8.96598C2.92304 7.63456 3.0387 6.28585 3.41669 5C6.01296 5.11881 8.5535 4.22215 10.5 2.5Z"
      stroke="#17DE8A" stroke-width="1.5" stroke-linecap="round" stroke-linejoin="round" />
    <path
      d="M9.66699 9.16683C9.66699 9.38784 9.75479 9.5998 9.91107 9.75608C10.0674 9.91237 10.2793 10.0002 10.5003 10.0002C10.7213 10.0002 10.9333 9.91237 11.0896 9.75608C11.2459 9.5998 11.3337 9.38784 11.3337 9.16683C11.3337 8.94582 11.2459 8.73385 11.0896 8.57757C10.9333 8.42129 10.7213 8.3335 10.5003 8.3335C10.2793 8.3335 10.0674 8.42129 9.91107 8.57757C9.75479 8.73385 9.66699 8.94582 9.66699 9.16683Z"
      stroke="#17DE8A" stroke-width="1.5" stroke-linecap="round" stroke-linejoin="round" />
    <path d="M10.5 10V12.0833" stroke="#17DE8A" stroke-width="1.5" stroke-linecap="round"
      stroke-linejoin="round" />
  </g>
  <defs>
    <clipPath id="clip0_340_1100">
      <rect width="20" height="20" fill="white" transform="translate(0.5)" />
    </clipPath>
  </defs>
</svg>