<svg width="96" height="96" viewBox="0 0 96 96" fill="none" xmlns="http://www.w3.org/2000/svg">
<g clip-path="url(#clip0_340_12218)">
<path opacity="0.5" d="M92.5997 12.389C92.9336 2.8726 82.1143 -6.04546 76.4078 5.3656C62.4 33.3755 18.9248 -10.6743 4.78426 15.7778C-1.36199 27.2753 14.547 36.0548 19.5825 45.4304C27.3623 59.9153 11.0323 74.4215 14.2348 88.1534C16.5191 97.9482 29.965 97.6201 37.2859 92.3752C45.7311 86.3247 47.3925 76.4005 49.4878 67.0315C54.7718 43.4039 91.6487 39.4927 92.5997 12.389Z" fill="url(#paint0_linear_340_12218)"/>
<path d="M83.4902 48.5854C81.6129 47.9021 79.5371 48.87 78.8539 50.7475L80.84 45.2905C81.5233 43.4132 80.5554 41.3374 78.678 40.654C77.4767 40.2167 76.1959 40.4582 75.249 41.1788V17.985C75.2489 17.4962 75.0579 17.0268 74.7166 16.6769C74.3754 16.3269 73.911 16.1241 73.4224 16.1117C60.5713 15.7843 51.3889 12.0932 48.7652 10.9133C48.5245 10.805 48.2636 10.749 47.9997 10.749C47.7358 10.749 47.4749 10.805 47.2342 10.9133C44.6105 12.0932 35.4281 15.7843 22.5769 16.1117C21.5608 16.1376 20.7502 16.9688 20.7502 17.985V41.1782C19.8034 40.458 18.5229 40.2169 17.322 40.654C15.4447 41.3372 14.4767 43.413 15.1601 45.2905L17.1463 50.7475C16.463 48.8702 14.3872 47.9021 12.51 48.5854C10.6327 49.2686 9.66467 51.3445 10.3481 53.2217L18.2087 74.8183C19.9545 79.6146 23.9735 82.923 28.6057 83.9781V87.7453C28.6057 91.198 31.4047 93.997 34.8574 93.997C38.31 93.997 41.109 91.198 41.109 87.7453V80.9552C43.0329 79.3403 44.481 77.2616 45.3484 74.9552C45.7251 75.466 46.0852 75.9888 46.428 76.5229C47.1594 77.6661 48.8398 77.6661 49.5714 76.5229C49.9144 75.9886 50.2746 75.4655 50.6514 74.9545C51.5188 77.2609 52.9667 79.3395 54.8904 80.9547V87.7453C54.8904 91.198 57.6894 93.997 61.142 93.997C64.5949 93.997 67.3937 91.198 67.3937 87.7453V83.9783C72.0262 82.9234 76.0457 79.615 77.7915 74.8183L85.652 53.2217C86.3353 51.3445 85.3674 49.2686 83.4902 48.5854Z" fill="#17DE8A" fill-opacity="0.0627451"/>
<path d="M34.8571 89.4968C31.4045 89.4968 28.6055 86.6978 28.6055 83.2452V75.0293H41.1087V83.2452C41.1087 86.6978 38.3097 89.4968 34.8571 89.4968ZM61.142 89.4968C57.6893 89.4968 54.8903 86.6978 54.8903 83.2452V75.0293H67.3936V83.2452C67.3936 86.6978 64.5946 89.4968 61.142 89.4968Z" fill="#1D1E21"/>
<path d="M68.3286 79.2367C65.4522 80.0965 62.2843 80.0718 59.2463 78.9661C51.7371 76.2329 47.8654 67.9299 50.5984 60.4209L56.9693 42.917C57.6525 41.0397 59.7283 40.0717 61.6056 40.7549C63.4828 41.4382 64.4509 43.514 63.7675 45.3912L65.7537 39.9342C66.4369 38.057 68.5127 37.0889 70.39 37.7722C72.2672 38.4554 73.2353 40.5312 72.5518 42.4085L74.0415 38.3157C74.7248 36.4385 76.8006 35.4704 78.6778 36.1537C80.5551 36.8369 81.5232 38.9127 80.8397 40.79L78.8535 46.247C79.5368 44.3697 81.6126 43.4017 83.4898 44.0849C85.3671 44.7682 86.335 46.844 85.6517 48.7212L81.4727 60.203L68.3286 79.2367Z" fill="#1D1E21"/>
<path d="M79.3572 55.4859C78.9075 55.3161 78.4282 55.2383 77.9479 55.2572C77.4675 55.276 76.9958 55.3912 76.5608 55.5958C76.1298 55.7961 75.7426 56.0796 75.4215 56.4301C75.1004 56.7805 74.8517 57.191 74.6898 57.6379L72.5918 63.4018L67.765 64.4066C66.555 64.6588 65.4294 65.2157 64.4949 66.0246C63.5603 66.8335 62.8478 67.8677 62.4248 69.029L61.4048 72.1954C60.0243 76.4809 64.0235 80.5564 68.3339 79.2555C72.5521 77.9825 76.1388 74.8059 77.7616 70.347L81.4555 60.1978C82.1399 58.3185 81.2302 56.1875 79.3572 55.4859ZM14.5143 60.1691L10.348 48.7222C9.66478 46.845 10.6327 44.7692 12.5099 44.0859C14.3872 43.4027 16.463 44.3705 17.1462 46.248L15.16 40.791C14.4768 38.9137 15.4447 36.8379 17.3219 36.1547C19.1992 35.4714 21.275 36.4393 21.9582 38.3167L23.4479 42.4095C22.7647 40.5322 23.7325 38.4564 25.6098 37.7732C27.487 37.0899 29.5628 38.0578 30.2461 39.9352L32.2323 45.3922C31.549 43.515 32.5169 41.4392 34.3942 40.7559C36.2714 40.0727 38.3472 41.0405 39.0305 42.918L45.4013 60.4219C48.1345 67.931 44.2627 76.2341 36.7535 78.9671C33.703 80.0773 30.5217 80.0977 27.6359 79.227L14.5143 60.1691Z" fill="#1D1E21"/>
<path d="M16.613 55.4571C17.0627 55.2873 17.542 55.2095 18.0223 55.2284C18.5027 55.2472 18.9744 55.3624 19.4094 55.567C19.8404 55.7673 20.2276 56.0508 20.5487 56.4013C20.8699 56.7517 21.1185 57.1622 21.2804 57.609L23.3784 63.373L28.2052 64.3778C29.4152 64.6299 30.5408 65.1869 31.4753 65.9958C32.4099 66.8047 33.1224 67.8389 33.5454 69.0002L34.5654 72.1665C35.9459 76.452 31.9468 80.5275 27.6363 79.2267C23.4181 77.9537 19.8314 74.7771 18.2086 70.3182L14.5145 60.169C13.8303 58.2895 14.7403 56.1587 16.613 55.4571ZM75.2495 24.4277V43.1215L74.3116 44.059H21.6879L20.7508 43.1215V24.4277L21.6883 23.4902H74.312L75.2495 24.4277Z" fill="#1D1E21"/>
<path d="M75.249 24.4277V13.485C75.2489 12.9962 75.0579 12.5268 74.7167 12.1769C74.3754 11.8269 73.911 11.6241 73.4224 11.6117C60.5713 11.2843 51.3889 7.59321 48.7652 6.41327C48.5245 6.30501 48.2636 6.24902 47.9997 6.24902C47.7358 6.24902 47.4749 6.30501 47.2342 6.41327C44.6106 7.59321 35.4281 11.2843 22.5769 11.6117C21.5608 11.6376 20.7502 12.4688 20.7502 13.485V24.4277H75.249Z" fill="#17DE8A"/>
<path d="M45.8645 71.1797C46.0561 71.4572 46.2451 71.7375 46.4279 72.0232C47.1594 73.1664 48.8398 73.1664 49.5714 72.0232C49.7542 71.7388 49.9421 71.4575 50.1348 71.1797H45.8645Z" fill="#17DE8A"/>
<path d="M20.7502 43.1221C20.7502 49.4736 24.3675 55.258 30.0607 58.0737C35.5344 60.781 42.1907 65.174 46.428 71.7955C47.1594 72.9387 48.8398 72.9387 49.5714 71.7955C53.8086 65.174 60.4648 60.781 65.9387 58.0737C71.6319 55.2578 75.2492 49.4734 75.2492 43.1221H20.7502Z" fill="#17DE8A"/>
<path d="M69.6245 24.4277V43.3502C69.6245 47.5765 67.2564 51.3734 63.4445 53.2596C59.0476 55.4327 53.372 58.9146 48.6864 64.0109C48.5984 64.1069 48.4915 64.1835 48.3723 64.2359C48.2531 64.2883 48.1243 64.3152 47.9941 64.3151C47.8639 64.3149 47.7351 64.2876 47.6161 64.2349C47.497 64.1822 47.3903 64.1052 47.3026 64.009C44.087 60.5102 39.3751 56.6327 32.5539 53.2596C28.7439 51.3734 26.3757 47.5765 26.3757 43.3502V24.4277L27.3099 23.4902H68.6866L69.6245 24.4277Z" fill="#1D1E21"/>
<path d="M47.9996 59.3667C44.1816 55.717 39.5614 52.5415 34.2169 49.8983C31.6931 48.65 30.1252 46.1406 30.1252 43.3499V20.4631C38.0286 19.5361 44.2536 17.6206 47.9996 16.2207C51.7453 17.6204 57.9703 19.5359 65.874 20.4629V43.3499C65.874 46.1406 64.3061 48.65 61.7822 49.8983C57.9336 51.8016 52.7053 54.8886 47.9996 59.3667Z" fill="#17DE8A"/>
<path d="M69.624 24.4281V17.9199C69.624 17.4343 69.2527 17.0274 68.7686 16.9864C59.2725 16.1809 52.0086 13.7833 48.3424 12.3351C48.1221 12.2477 47.8768 12.2477 47.6565 12.3351C43.9896 13.7837 36.7267 16.1814 27.2306 16.9866C26.9971 17.0068 26.7796 17.114 26.6212 17.2869C26.4628 17.4597 26.3751 17.6857 26.3752 17.9201V24.4281H69.624Z" fill="#17DE8A"/>
<path d="M68.8479 16.0518C59.3809 15.2489 52.1529 12.8319 48.6868 11.4625C48.2454 11.2872 47.7537 11.2872 47.3122 11.4625C43.8459 12.832 36.6172 15.2491 27.1515 16.0518C26.1906 16.1334 25.4377 16.9537 25.4377 17.9195V43.3492C25.4377 47.9356 28.0054 52.0548 32.1388 54.0991C37.9567 56.9767 42.8267 60.5242 46.6132 64.643C46.7895 64.8345 47.0035 64.9874 47.2417 65.0922C47.4799 65.1969 47.7373 65.2512 47.9976 65.2516C48.5201 65.2516 49.0228 65.0305 49.3768 64.6454C54.0885 59.5188 59.8536 56.0806 63.8602 54.0991C67.9937 52.0548 70.5613 47.9356 70.5613 43.3492V17.9195C70.5615 16.9537 69.8087 16.1334 68.8479 16.0518ZM47.9981 13.2067C51.5595 14.6137 58.9836 17.0971 68.6865 17.9197V23.4903H27.3105L27.3099 17.9204C37.0144 17.0975 44.4392 14.6137 47.9981 13.2067ZM63.0291 52.4185C58.8797 54.4705 52.9033 58.0375 47.9962 63.3764L47.9934 63.374C44.0503 59.0845 38.9955 55.3985 32.97 52.4184C29.4804 50.6922 27.3126 47.2171 27.3126 43.349L27.3105 25.3649H68.6863V43.349C68.6865 47.2173 66.5188 50.6924 63.0291 52.4185Z" fill="#1D1E21"/>
<path d="M83.8102 43.2044C82.9053 42.8745 81.9188 42.8414 80.9938 43.1099L81.7218 41.1115C82.5795 38.7524 81.3585 36.1334 78.9992 35.2732C78.0958 34.9432 77.1111 34.9083 76.1867 35.1734V27.0616C76.1867 26.5437 75.767 26.1241 75.2492 26.1241C74.7313 26.1241 74.3117 26.5437 74.3117 27.0616V43.3499C74.3117 49.3728 70.944 54.7801 65.523 57.4614C60.3528 60.0187 53.2517 64.5331 48.7817 71.5182C48.536 71.902 48.153 71.9435 47.9996 71.9435C47.8464 71.9435 47.4633 71.902 47.2177 71.5182C45.5368 68.8915 43.3558 66.413 40.7351 64.1519C40.6419 64.0715 40.5337 64.0102 40.4168 63.9716C40.3 63.9329 40.1766 63.9177 40.0538 63.9267C39.931 63.9358 39.8112 63.9689 39.7013 64.0242C39.5913 64.0796 39.4933 64.156 39.4128 64.2492C39.3324 64.3424 39.2711 64.4506 39.2325 64.5675C39.1938 64.6844 39.1786 64.8077 39.1877 64.9305C39.1967 65.0533 39.2298 65.1731 39.2852 65.2831C39.3405 65.3931 39.4169 65.4911 39.5102 65.5715C41.337 67.1478 42.9347 68.8316 44.2824 70.5961C42.8246 74.0754 39.9913 76.7907 36.4333 78.0854C33.0373 79.322 29.3623 79.1617 26.0865 77.6341C22.8107 76.1067 20.3257 73.3949 19.0893 69.9982L15.3954 59.8486C14.8773 58.4251 15.5713 56.849 16.9419 56.3354C17.6227 56.08 18.3577 56.1089 19.0134 56.4172C19.333 56.5651 19.6201 56.775 19.8581 57.0347C20.0961 57.2943 20.2802 57.5986 20.3998 57.9299L22.4975 63.6939C22.5522 63.8439 22.6442 63.9776 22.765 64.0821C22.8857 64.1867 23.0312 64.2586 23.1875 64.2912L28.0138 65.2957C30.1668 65.7449 31.902 67.2432 32.6585 69.3052L33.6729 72.4542C33.8546 73.0179 33.9302 73.5918 33.8981 74.1605C33.8904 74.2839 33.9071 74.4075 33.9474 74.5244C33.9877 74.6413 34.0506 74.749 34.1327 74.8414C34.2148 74.9339 34.3143 75.0092 34.4256 75.063C34.5368 75.1168 34.6577 75.1481 34.7811 75.155C34.9045 75.162 35.0281 75.1445 35.1447 75.1035C35.2613 75.0625 35.3686 74.9988 35.4606 74.9162C35.5525 74.8335 35.6271 74.7335 35.6803 74.6219C35.7334 74.5103 35.7639 74.3893 35.7701 74.2659C35.8151 73.4664 35.7101 72.6635 35.4575 71.8794L34.4375 68.7129C34.434 68.7017 34.4302 68.6906 34.4261 68.6797C33.4492 65.9954 31.1953 64.0441 28.3961 63.4599L24.0806 62.5617L16.0404 40.4707C15.5357 39.0824 16.2543 37.5412 17.6415 37.0355C17.9937 36.9068 18.3691 36.8537 18.7431 36.8797C19.1172 36.9057 19.4817 37.0101 19.8127 37.1862V43.3501C19.8127 50.0913 23.5803 56.1427 29.645 59.1421C31.6093 60.1137 33.483 61.187 35.214 62.332C35.3166 62.4 35.4317 62.4471 35.5525 62.4706C35.6734 62.4941 35.7977 62.4936 35.9184 62.469C36.039 62.4444 36.1537 62.3963 36.2557 62.3274C36.3578 62.2585 36.4453 62.1702 36.5132 62.0675C36.5811 61.9648 36.6281 61.8498 36.6516 61.7289C36.6751 61.608 36.6745 61.4837 36.65 61.3631C36.6254 61.2425 36.5773 61.1278 36.5084 61.0258C36.4396 60.9237 36.3513 60.8362 36.2486 60.7683C34.4525 59.5801 32.5104 58.4675 30.4764 57.4616C25.0554 54.7803 21.6877 49.3732 21.6877 43.3501V13.4859C21.6865 13.2412 21.7815 13.0058 21.9523 12.8306C22.1232 12.6554 22.356 12.5545 22.6007 12.5495C35.6585 12.2171 45.051 8.42374 47.619 7.26893C47.7387 7.21505 47.8685 7.18721 47.9998 7.18724C48.1311 7.18727 48.2609 7.21518 48.3806 7.26911C50.948 8.42355 60.3401 12.2169 73.3985 12.5495C73.6432 12.5544 73.8761 12.6554 74.047 12.8306C74.2178 13.0058 74.3129 13.2411 74.3117 13.4859V21.5232C74.3117 22.0411 74.7313 22.4607 75.2492 22.4607C75.767 22.4607 76.1867 22.0411 76.1867 21.5232V13.4859C76.1867 11.9491 74.9831 10.7144 73.4463 10.6752C60.738 10.3514 51.6365 6.67736 49.1499 5.55911C48.7883 5.39658 48.3963 5.31253 47.9999 5.3125C47.6034 5.31247 47.2115 5.39645 46.8498 5.55893C44.3628 6.67736 35.2608 10.3516 22.553 10.6752C21.0165 10.7144 19.8129 11.9491 19.8129 13.4859V35.1734C18.8883 34.9085 17.9036 34.9436 17.0002 35.2735C14.6417 36.1334 13.4207 38.7524 14.2785 41.1119L15.0063 43.1101C14.0808 42.8416 13.0938 42.8748 12.1884 43.205C10.3957 43.8597 9.19141 45.5799 9.19141 47.4849C9.19141 48.0129 9.28403 48.5365 9.46741 49.043L17.3272 70.6392C18.735 74.5066 21.5643 77.5942 25.2937 79.3332C26.0598 79.6908 26.8537 79.9855 27.6675 80.2145V83.2467C27.6675 87.2107 30.893 90.4355 34.8581 90.4355C38.822 90.4355 42.0468 87.2107 42.0468 83.2467V76.8796C43.4792 75.6049 44.6609 74.0739 45.5312 72.3654C45.5666 72.4199 45.6032 72.4743 45.6382 72.529C46.155 73.3366 47.0377 73.8185 47.9996 73.8185C48.9617 73.8185 49.8444 73.3366 50.3612 72.529C50.3964 72.4739 50.4333 72.4201 50.469 72.3654C51.3392 74.074 52.5209 75.605 53.9533 76.8798V83.2469C53.9533 87.2109 57.1781 90.4357 61.142 90.4357C65.106 90.4357 68.3308 87.2109 68.3308 83.2469V80.204C72.9528 78.9087 76.9095 75.4842 78.6731 70.6394L86.5337 49.0417C86.7154 48.5428 86.8086 48.016 86.8091 47.485C86.8087 45.5799 85.6044 43.8599 83.8102 43.2044ZM14.1123 56.3242L11.2295 48.4032C11.1221 48.109 11.0668 47.7983 11.0662 47.485C11.0662 46.3642 11.7757 45.352 12.8302 44.9667C14.2166 44.4629 15.755 45.1782 16.2637 46.5625C16.2645 46.5646 16.2647 46.5667 16.2652 46.5687L19.139 54.4664C18.2066 54.1949 17.2151 54.2306 16.2836 54.5795C15.3622 54.9247 14.6203 55.5489 14.1123 56.3242ZM40.1718 83.2467C40.1718 86.1768 37.7882 88.5605 34.8581 88.5605C31.9271 88.5605 29.5425 86.1768 29.5425 83.2467V80.6155C30.288 80.7277 31.0409 80.7842 31.7949 80.7847C33.5722 80.7847 35.3544 80.473 37.0742 79.847C38.1614 79.4505 39.2005 78.9328 40.1718 78.3037V83.2467ZM66.4556 83.2467C66.4556 86.1768 64.0719 88.5605 61.1418 88.5605C58.2118 88.5605 55.8281 86.1768 55.8281 83.2467V78.3037C56.7994 78.9328 57.8385 79.4505 58.9258 79.847C60.6094 80.4618 62.3877 80.7767 64.1801 80.7774C64.9418 80.777 65.7024 80.7198 66.4556 80.6064V83.2467ZM80.5747 59.8773L76.911 69.9982C74.3585 77.0097 66.578 80.6373 59.5668 78.0854C56.009 76.7907 53.1755 74.0755 51.7179 70.5965C55.9522 65.0568 61.8971 61.3465 66.3542 59.1421C72.419 56.1425 76.1865 50.0913 76.1865 43.3501V37.1866C76.5174 37.0103 76.8818 36.9057 77.2559 36.8796C77.6299 36.8535 78.0053 36.9065 78.3575 37.0351C79.7456 37.5412 80.4643 39.0824 79.9597 40.4703L71.8893 62.5904L67.5733 63.4887C64.7747 64.0728 62.5207 66.0239 61.5438 68.7084C61.5399 68.7194 61.536 68.7305 61.5324 68.7415L60.5126 71.9079C60.2638 72.6802 60.1578 73.4718 60.1982 74.2604C60.2027 74.3846 60.232 74.5065 60.2841 74.6193C60.3363 74.732 60.4103 74.8333 60.5019 74.9172C60.5935 75.0011 60.7009 75.0659 60.8178 75.1079C60.9347 75.15 61.0588 75.1684 61.1828 75.162C61.3069 75.1557 61.4285 75.1248 61.5405 75.071C61.6525 75.0173 61.7527 74.9419 61.8353 74.8491C61.9179 74.7563 61.9812 74.648 62.0216 74.5306C62.062 74.4131 62.0786 74.2888 62.0705 74.1648C62.042 73.604 62.1182 73.0381 62.297 72.4829L63.3114 69.3337C64.0678 67.2719 65.8031 65.7736 67.9558 65.3244L72.7826 64.3197C72.9389 64.2871 73.0844 64.2151 73.2051 64.1106C73.3258 64.006 73.4179 63.8724 73.4726 63.7224L75.5707 57.9579C75.6906 57.6263 75.875 57.3218 76.1134 57.0619C76.3518 56.8021 76.6393 56.5921 76.9593 56.4442C77.6126 56.1372 78.3478 56.1087 79.0282 56.3637C80.3992 56.8777 81.093 58.4536 80.5747 59.8773ZM84.771 48.4017L81.8701 56.372C81.362 55.5879 80.615 54.9564 79.686 54.6082C78.7569 54.2602 77.7671 54.224 76.8375 54.4932L79.7342 46.57C79.7351 46.5676 79.7351 46.5652 79.736 46.5627C80.2445 45.1788 81.7831 44.4629 83.168 44.9662C84.224 45.352 84.9335 46.3642 84.9335 47.485C84.9337 47.7946 84.879 48.1038 84.771 48.4017Z" fill="#17DE8A"/>
<path d="M44.5322 42.1255L39.1953 36.7887C38.4632 36.0565 37.2759 36.0565 36.5437 36.7887L34.5174 38.815C33.7852 39.5472 33.7852 40.7345 34.5174 41.4666L43.2063 50.1556C43.9385 50.8878 45.1258 50.8878 45.858 50.1556L61.4818 34.5318C62.214 33.7996 62.214 32.6123 61.4818 31.8801L59.4555 29.8538C58.7233 29.1216 57.536 29.1216 56.8038 29.8538L44.5322 42.1255Z" fill="#1D1E21"/>
<path d="M51.0196 17.9385C50.771 17.9385 50.5325 18.0372 50.3567 18.2131C50.1809 18.3889 50.0821 18.6273 50.0821 18.876V18.8975C50.0821 19.1462 50.1809 19.3846 50.3567 19.5605C50.5325 19.7363 50.771 19.835 51.0196 19.835C51.2683 19.835 51.5067 19.7363 51.6825 19.5605C51.8583 19.3846 51.9571 19.1462 51.9571 18.8975V18.876C51.9571 18.6273 51.8583 18.3889 51.6825 18.2131C51.5067 18.0372 51.2683 17.9385 51.0196 17.9385ZM47.9996 17.9385C47.7509 17.9385 47.5125 18.0372 47.3366 18.2131C47.1608 18.3889 47.0621 18.6273 47.0621 18.876V18.8975C47.0621 19.1462 47.1608 19.3846 47.3366 19.5605C47.5125 19.7363 47.7509 19.835 47.9996 19.835C48.2482 19.835 48.4867 19.7363 48.6625 19.5605C48.8383 19.3846 48.9371 19.1462 48.9371 18.8975V18.876C48.9371 18.6273 48.8383 18.3889 48.6625 18.2131C48.4867 18.0372 48.2482 17.9385 47.9996 17.9385ZM44.9795 17.9385C44.7309 17.9385 44.4924 18.0372 44.3166 18.2131C44.1408 18.3889 44.042 18.6273 44.042 18.876V18.8975C44.042 19.1462 44.1408 19.3846 44.3166 19.5605C44.4924 19.7363 44.7309 19.835 44.9795 19.835C45.2281 19.835 45.4666 19.7363 45.6424 19.5605C45.8182 19.3846 45.917 19.1462 45.917 18.8975V18.876C45.917 18.6273 45.8182 18.3889 45.6424 18.2131C45.4666 18.0372 45.2281 17.9385 44.9795 17.9385Z" fill="#1D1E21"/>
<path d="M76.7717 86.3163C76.523 86.3163 76.2846 86.2175 76.1088 86.0417C75.933 85.8659 75.8342 85.6274 75.8342 85.3788C75.8338 85.0639 75.7086 84.7621 75.486 84.5395C75.2634 84.3168 74.9616 84.1916 74.6467 84.1912C74.1289 84.1912 73.7092 83.7715 73.7092 83.2537C73.7092 82.7358 74.1289 82.3162 74.6467 82.3162C74.9616 82.3158 75.2634 82.1906 75.486 81.968C75.7086 81.7454 75.8338 81.4435 75.8342 81.1287C75.8342 80.6108 76.2538 80.1912 76.7717 80.1912C77.2896 80.1912 77.7092 80.6108 77.7092 81.1287C77.7096 81.4436 77.8348 81.7454 78.0575 81.968C78.2801 82.1906 78.582 82.3158 78.8968 82.3162C79.4147 82.3162 79.8343 82.7358 79.8343 83.2537C79.8343 83.7715 79.4147 84.1912 78.8968 84.1912C78.5819 84.1916 78.2801 84.3168 78.0575 84.5394C77.8348 84.7621 77.7096 85.0639 77.7092 85.3788C77.7092 85.6274 77.6104 85.8659 77.4346 86.0417C77.2588 86.2175 77.0203 86.3163 76.7717 86.3163ZM15.0212 10.3555C14.7725 10.3555 14.5341 10.2568 14.3583 10.0809C14.1825 9.90513 14.0837 9.66667 14.0837 9.41803C14.0833 9.10319 13.958 8.80137 13.7354 8.57876C13.5127 8.35615 13.2109 8.23094 12.8961 8.23059C12.3782 8.23059 11.9586 7.81097 11.9586 7.29309C11.9586 6.77522 12.3782 6.35559 12.8961 6.35559C13.2109 6.3552 13.5128 6.22995 13.7354 6.00731C13.958 5.78467 14.0833 5.48282 14.0837 5.16797C14.0837 4.65009 14.5033 4.23047 15.0212 4.23047C15.5391 4.23047 15.9587 4.65009 15.9587 5.16797C15.959 5.48281 16.0842 5.78465 16.3068 6.0073C16.5295 6.22994 16.8313 6.3552 17.1461 6.35559C17.664 6.35559 18.0836 6.77522 18.0836 7.29309C18.0836 7.81097 17.664 8.23059 17.1461 8.23059C16.8313 8.23094 16.5295 8.35616 16.3069 8.57877C16.0842 8.80138 15.959 9.10321 15.9587 9.41803C15.9587 9.66667 15.8599 9.90513 15.6841 10.0809C15.5083 10.2568 15.2698 10.3555 15.0212 10.3555ZM14.2873 27.9757C14.1642 27.9758 14.0422 27.9517 13.9285 27.9045C13.8147 27.8574 13.7114 27.7882 13.6245 27.701L12.5998 26.6765L11.5751 27.701C11.4881 27.788 11.3848 27.8571 11.271 27.9042C11.1573 27.9514 11.0354 27.9756 10.9123 27.9756C10.7892 27.9756 10.6673 27.9514 10.5536 27.9042C10.4399 27.8571 10.3365 27.788 10.2495 27.701C10.1624 27.6139 10.0934 27.5106 10.0462 27.3969C9.99911 27.2832 9.97485 27.1613 9.97485 27.0382C9.97485 26.9151 9.99911 26.7932 10.0462 26.6794C10.0934 26.5657 10.1624 26.4624 10.2495 26.3753L11.937 24.6878C12.024 24.6008 12.1274 24.5317 12.2411 24.4846C12.3548 24.4375 12.4767 24.4132 12.5998 24.4132C12.7229 24.4132 12.8448 24.4375 12.9585 24.4846C13.0723 24.5317 13.1756 24.6008 13.2626 24.6878L14.9501 26.3753C15.0372 26.4624 15.1063 26.5657 15.1534 26.6794C15.2005 26.7932 15.2248 26.9151 15.2248 27.0382C15.2248 27.1613 15.2005 27.2832 15.1534 27.3969C15.1063 27.5106 15.0372 27.6139 14.9501 27.701C14.8632 27.7882 14.7599 27.8574 14.6462 27.9045C14.5324 27.9517 14.4104 27.9759 14.2873 27.9757ZM84.786 21.2052C84.6629 21.2054 84.5409 21.1812 84.4272 21.1341C84.3134 21.0869 84.2101 21.0178 84.1232 20.9305L83.0985 19.906L82.0738 20.9305C81.9868 21.0176 81.8835 21.0867 81.7697 21.1338C81.656 21.1809 81.5341 21.2052 81.411 21.2052C81.2879 21.2052 81.166 21.1809 81.0523 21.1338C80.9385 21.0867 80.8352 21.0176 80.7482 20.9305C80.6611 20.8435 80.592 20.7402 80.5449 20.6264C80.4978 20.5127 80.4735 20.3908 80.4735 20.2677C80.4735 20.1446 80.4978 20.0227 80.5449 19.909C80.592 19.7953 80.6611 19.6919 80.7482 19.6049L82.4357 17.9174C82.5227 17.8303 82.626 17.7613 82.7398 17.7141C82.8535 17.667 82.9754 17.6428 83.0985 17.6428C83.2216 17.6428 83.3435 17.667 83.4572 17.7141C83.571 17.7613 83.6743 17.8303 83.7613 17.9174L85.4488 19.6049C85.5801 19.7359 85.6695 19.903 85.7057 20.0849C85.742 20.2668 85.7235 20.4553 85.6525 20.6267C85.5815 20.798 85.4613 20.9445 85.3071 21.0475C85.1528 21.1505 84.9715 21.2054 84.786 21.2052ZM12.5998 71.5897C12.4767 71.5898 12.3547 71.5657 12.241 71.5185C12.1272 71.4714 12.0239 71.4022 11.937 71.315L10.9123 70.2905L9.88762 71.315C9.8006 71.402 9.69727 71.4711 9.58354 71.5182C9.46981 71.5654 9.34791 71.5896 9.22481 71.5896C9.1017 71.5896 8.97981 71.5654 8.86608 71.5182C8.75235 71.4711 8.64902 71.402 8.562 71.315C8.47493 71.2279 8.40586 71.1246 8.35873 71.0109C8.31161 70.8972 8.28735 70.7753 8.28735 70.6522C8.28735 70.5291 8.31161 70.4072 8.35873 70.2934C8.40586 70.1797 8.47493 70.0764 8.562 69.9893L10.2495 68.3018C10.3365 68.2148 10.4399 68.1457 10.5536 68.0986C10.6673 68.0515 10.7892 68.0272 10.9123 68.0272C11.0354 68.0272 11.1573 68.0515 11.271 68.0986C11.3848 68.1457 11.4881 68.2148 11.5751 68.3018L13.2626 69.9893C13.3497 70.0764 13.4188 70.1797 13.4659 70.2934C13.513 70.4072 13.5373 70.5291 13.5373 70.6522C13.5373 70.7753 13.513 70.8972 13.4659 71.0109C13.4188 71.1246 13.3497 71.2279 13.2626 71.315C13.1757 71.4022 13.0724 71.4714 12.9587 71.5185C12.8449 71.5657 12.7229 71.5899 12.5998 71.5897Z" fill="#17DE8A"/>
</g>
<defs>
<linearGradient id="paint0_linear_340_12218" x1="-0.662048" y1="75.389" x2="80.448" y2="-5.72109" gradientUnits="userSpaceOnUse">
<stop stop-color="#17DE8A" stop-opacity="0"/>
<stop offset="1" stop-color="#17DE8A"/>
</linearGradient>
<clipPath id="clip0_340_12218">
<rect width="96" height="96" fill="white"/>
</clipPath>
</defs>
</svg>
